%TF.GenerationSoftware,KiCad,Pcbnew,8.0.8*%
%TF.CreationDate,2025-11-12T22:54:29+00:00*%
%TF.ProjectId,Blueboard-Kicad,426c7565-626f-4617-9264-2d4b69636164,rev?*%
%TF.SameCoordinates,Original*%
%TF.FileFunction,Drillmap*%
%TF.FilePolarity,Positive*%
%FSLAX45Y45*%
G04 Gerber Fmt 4.5, Leading zero omitted, Abs format (unit mm)*
G04 Created by KiCad (PCBNEW 8.0.8) date 2025-11-12 22:54:29*
%MOMM*%
%LPD*%
G01*
G04 APERTURE LIST*
%ADD10C,0.050000*%
%ADD11C,0.200000*%
%ADD12C,0.100000*%
%ADD13C,0.110000*%
%ADD14C,0.150000*%
G04 APERTURE END LIST*
D10*
X50000000Y-25500000D02*
X2950000Y-25500000D01*
X2800000Y-11700000D02*
X50150000Y-11700000D01*
X2200000Y-12300000D02*
X2200000Y-14050000D01*
X2300000Y-21050000D02*
X2300000Y-24500000D01*
X2300000Y-21050000D02*
X2300000Y-15500000D01*
X1950000Y-14300000D02*
X2200000Y-14050000D01*
X2300000Y-15500000D02*
X1950000Y-15150000D01*
X1950000Y-15150000D02*
X1950000Y-14300000D01*
X2300000Y-24500000D02*
X2950000Y-25500000D01*
X2200000Y-12300000D02*
X2800000Y-11700000D01*
X50700000Y-24500000D02*
X50000000Y-25500000D01*
X50700000Y-21050000D02*
X50700000Y-24500000D01*
X50750000Y-12300000D02*
X50150000Y-11700000D01*
X50750000Y-14050000D02*
X50750000Y-12300000D01*
X51000000Y-14300000D02*
X50750000Y-14050000D01*
X51000000Y-15150000D02*
X51000000Y-14300000D01*
X50700000Y-15500000D02*
X51000000Y-15150000D01*
X50700000Y-21050000D02*
X50700000Y-15500000D01*
D11*
D12*
X8485000Y-12235000D02*
X8515000Y-12265000D01*
X8515000Y-12235000D02*
X8485000Y-12265000D01*
X17135000Y-12485000D02*
X17165000Y-12515000D01*
X17165000Y-12485000D02*
X17135000Y-12515000D01*
X40635000Y-13585000D02*
X40665000Y-13615000D01*
X40665000Y-13585000D02*
X40635000Y-13615000D01*
X40875397Y-14744603D02*
X40905397Y-14774603D01*
X40905397Y-14744603D02*
X40875397Y-14774603D01*
X42635000Y-14695000D02*
X42665000Y-14725000D01*
X42665000Y-14695000D02*
X42635000Y-14725000D01*
X43135000Y-14635000D02*
X43165000Y-14665000D01*
X43165000Y-14635000D02*
X43135000Y-14665000D01*
X43191569Y-14578431D02*
X43221569Y-14608431D01*
X43221569Y-14578431D02*
X43191569Y-14608431D01*
X45785000Y-14135000D02*
X45815000Y-14165000D01*
X45815000Y-14135000D02*
X45785000Y-14165000D01*
X45785000Y-14435000D02*
X45815000Y-14465000D01*
X45815000Y-14435000D02*
X45785000Y-14465000D01*
X45885000Y-14135000D02*
X45915000Y-14165000D01*
X45915000Y-14135000D02*
X45885000Y-14165000D01*
X45985000Y-14595000D02*
X46015000Y-14625000D01*
X46015000Y-14595000D02*
X45985000Y-14625000D01*
X49085000Y-17585000D02*
X49115000Y-17615000D01*
X49115000Y-17585000D02*
X49085000Y-17615000D01*
X49135000Y-18685000D02*
X49165000Y-18715000D01*
X49165000Y-18685000D02*
X49135000Y-18715000D01*
X49235000Y-18535000D02*
X49265000Y-18565000D01*
X49265000Y-18535000D02*
X49235000Y-18565000D01*
X49285000Y-17835000D02*
X49315000Y-17865000D01*
X49315000Y-17835000D02*
X49285000Y-17865000D01*
X49335000Y-13535000D02*
X49365000Y-13565000D01*
X49365000Y-13535000D02*
X49335000Y-13565000D01*
X49335000Y-13785000D02*
X49365000Y-13815000D01*
X49365000Y-13785000D02*
X49335000Y-13815000D01*
X49335000Y-14035000D02*
X49365000Y-14065000D01*
X49365000Y-14035000D02*
X49335000Y-14065000D01*
X49335000Y-14285000D02*
X49365000Y-14315000D01*
X49365000Y-14285000D02*
X49335000Y-14315000D01*
X49335000Y-18635000D02*
X49365000Y-18665000D01*
X49365000Y-18635000D02*
X49335000Y-18665000D01*
X49425000Y-17535000D02*
X49455000Y-17565000D01*
X49455000Y-17535000D02*
X49425000Y-17565000D01*
X49985000Y-14685000D02*
X50015000Y-14715000D01*
X50015000Y-14685000D02*
X49985000Y-14715000D01*
X49985000Y-20085000D02*
X50015000Y-20115000D01*
X50015000Y-20085000D02*
X49985000Y-20115000D01*
X50085000Y-14685000D02*
X50115000Y-14715000D01*
X50115000Y-14685000D02*
X50085000Y-14715000D01*
X50085000Y-20085000D02*
X50115000Y-20115000D01*
X50115000Y-20085000D02*
X50085000Y-20115000D01*
X50185000Y-14685000D02*
X50215000Y-14715000D01*
X50215000Y-14685000D02*
X50185000Y-14715000D01*
X50185000Y-20085000D02*
X50215000Y-20115000D01*
X50215000Y-20085000D02*
X50185000Y-20115000D01*
X50285000Y-14685000D02*
X50315000Y-14715000D01*
X50315000Y-14685000D02*
X50285000Y-14715000D01*
X50285000Y-20085000D02*
X50315000Y-20115000D01*
X50315000Y-20085000D02*
X50285000Y-20115000D01*
X50385000Y-14685000D02*
X50415000Y-14715000D01*
X50415000Y-14685000D02*
X50385000Y-14715000D01*
X50385000Y-20085000D02*
X50415000Y-20115000D01*
X50415000Y-20085000D02*
X50385000Y-20115000D01*
X50485000Y-14685000D02*
X50515000Y-14715000D01*
X50515000Y-14685000D02*
X50485000Y-14715000D01*
X50485000Y-20085000D02*
X50515000Y-20115000D01*
X50515000Y-20085000D02*
X50485000Y-20115000D01*
X50565000Y-20085000D02*
X50595000Y-20115000D01*
X50595000Y-20085000D02*
X50565000Y-20115000D01*
X50585000Y-14685000D02*
X50615000Y-14715000D01*
X50615000Y-14685000D02*
X50585000Y-14715000D01*
X48978000Y-15010000D02*
G75*
G02*
X48898000Y-15010000I-40000J0D01*
G01*
X48898000Y-15010000D02*
G75*
G02*
X48978000Y-15010000I40000J0D01*
G01*
X48978000Y-15264000D02*
G75*
G02*
X48898000Y-15264000I-40000J0D01*
G01*
X48898000Y-15264000D02*
G75*
G02*
X48978000Y-15264000I40000J0D01*
G01*
X48978000Y-15518000D02*
G75*
G02*
X48898000Y-15518000I-40000J0D01*
G01*
X48898000Y-15518000D02*
G75*
G02*
X48978000Y-15518000I40000J0D01*
G01*
X48978000Y-15772000D02*
G75*
G02*
X48898000Y-15772000I-40000J0D01*
G01*
X48898000Y-15772000D02*
G75*
G02*
X48978000Y-15772000I40000J0D01*
G01*
X48978000Y-16026000D02*
G75*
G02*
X48898000Y-16026000I-40000J0D01*
G01*
X48898000Y-16026000D02*
G75*
G02*
X48978000Y-16026000I40000J0D01*
G01*
X48978000Y-16280000D02*
G75*
G02*
X48898000Y-16280000I-40000J0D01*
G01*
X48898000Y-16280000D02*
G75*
G02*
X48978000Y-16280000I40000J0D01*
G01*
X48978000Y-16534000D02*
G75*
G02*
X48898000Y-16534000I-40000J0D01*
G01*
X48898000Y-16534000D02*
G75*
G02*
X48978000Y-16534000I40000J0D01*
G01*
X48978000Y-16788000D02*
G75*
G02*
X48898000Y-16788000I-40000J0D01*
G01*
X48898000Y-16788000D02*
G75*
G02*
X48978000Y-16788000I40000J0D01*
G01*
X48978000Y-17042000D02*
G75*
G02*
X48898000Y-17042000I-40000J0D01*
G01*
X48898000Y-17042000D02*
G75*
G02*
X48978000Y-17042000I40000J0D01*
G01*
X48978000Y-17296000D02*
G75*
G02*
X48898000Y-17296000I-40000J0D01*
G01*
X48898000Y-17296000D02*
G75*
G02*
X48978000Y-17296000I40000J0D01*
G01*
X48978000Y-17550000D02*
G75*
G02*
X48898000Y-17550000I-40000J0D01*
G01*
X48898000Y-17550000D02*
G75*
G02*
X48978000Y-17550000I40000J0D01*
G01*
X48978000Y-17804000D02*
G75*
G02*
X48898000Y-17804000I-40000J0D01*
G01*
X48898000Y-17804000D02*
G75*
G02*
X48978000Y-17804000I40000J0D01*
G01*
X48978000Y-18058000D02*
G75*
G02*
X48898000Y-18058000I-40000J0D01*
G01*
X48898000Y-18058000D02*
G75*
G02*
X48978000Y-18058000I40000J0D01*
G01*
X48978000Y-18312000D02*
G75*
G02*
X48898000Y-18312000I-40000J0D01*
G01*
X48898000Y-18312000D02*
G75*
G02*
X48978000Y-18312000I40000J0D01*
G01*
X48990000Y-18634000D02*
G75*
G02*
X48910000Y-18634000I-40000J0D01*
G01*
X48910000Y-18634000D02*
G75*
G02*
X48990000Y-18634000I40000J0D01*
G01*
X48990000Y-18888000D02*
G75*
G02*
X48910000Y-18888000I-40000J0D01*
G01*
X48910000Y-18888000D02*
G75*
G02*
X48990000Y-18888000I40000J0D01*
G01*
X48990000Y-19142000D02*
G75*
G02*
X48910000Y-19142000I-40000J0D01*
G01*
X48910000Y-19142000D02*
G75*
G02*
X48990000Y-19142000I40000J0D01*
G01*
X48990000Y-19396000D02*
G75*
G02*
X48910000Y-19396000I-40000J0D01*
G01*
X48910000Y-19396000D02*
G75*
G02*
X48990000Y-19396000I40000J0D01*
G01*
X48990000Y-19650000D02*
G75*
G02*
X48910000Y-19650000I-40000J0D01*
G01*
X48910000Y-19650000D02*
G75*
G02*
X48990000Y-19650000I40000J0D01*
G01*
X48990000Y-19904000D02*
G75*
G02*
X48910000Y-19904000I-40000J0D01*
G01*
X48910000Y-19904000D02*
G75*
G02*
X48990000Y-19904000I40000J0D01*
G01*
X48990000Y-20158000D02*
G75*
G02*
X48910000Y-20158000I-40000J0D01*
G01*
X48910000Y-20158000D02*
G75*
G02*
X48990000Y-20158000I40000J0D01*
G01*
X48990000Y-20412000D02*
G75*
G02*
X48910000Y-20412000I-40000J0D01*
G01*
X48910000Y-20412000D02*
G75*
G02*
X48990000Y-20412000I40000J0D01*
G01*
X48990000Y-20666000D02*
G75*
G02*
X48910000Y-20666000I-40000J0D01*
G01*
X48910000Y-20666000D02*
G75*
G02*
X48990000Y-20666000I40000J0D01*
G01*
X48990000Y-20920000D02*
G75*
G02*
X48910000Y-20920000I-40000J0D01*
G01*
X48910000Y-20920000D02*
G75*
G02*
X48990000Y-20920000I40000J0D01*
G01*
X48990000Y-21174000D02*
G75*
G02*
X48910000Y-21174000I-40000J0D01*
G01*
X48910000Y-21174000D02*
G75*
G02*
X48990000Y-21174000I40000J0D01*
G01*
X48990000Y-21428000D02*
G75*
G02*
X48910000Y-21428000I-40000J0D01*
G01*
X48910000Y-21428000D02*
G75*
G02*
X48990000Y-21428000I40000J0D01*
G01*
X48990000Y-21682000D02*
G75*
G02*
X48910000Y-21682000I-40000J0D01*
G01*
X48910000Y-21682000D02*
G75*
G02*
X48990000Y-21682000I40000J0D01*
G01*
X48990000Y-21936000D02*
G75*
G02*
X48910000Y-21936000I-40000J0D01*
G01*
X48910000Y-21936000D02*
G75*
G02*
X48990000Y-21936000I40000J0D01*
G01*
X49740000Y-15010000D02*
G75*
G02*
X49660000Y-15010000I-40000J0D01*
G01*
X49660000Y-15010000D02*
G75*
G02*
X49740000Y-15010000I40000J0D01*
G01*
X49740000Y-15264000D02*
G75*
G02*
X49660000Y-15264000I-40000J0D01*
G01*
X49660000Y-15264000D02*
G75*
G02*
X49740000Y-15264000I40000J0D01*
G01*
X49740000Y-15518000D02*
G75*
G02*
X49660000Y-15518000I-40000J0D01*
G01*
X49660000Y-15518000D02*
G75*
G02*
X49740000Y-15518000I40000J0D01*
G01*
X49740000Y-15772000D02*
G75*
G02*
X49660000Y-15772000I-40000J0D01*
G01*
X49660000Y-15772000D02*
G75*
G02*
X49740000Y-15772000I40000J0D01*
G01*
X49740000Y-16026000D02*
G75*
G02*
X49660000Y-16026000I-40000J0D01*
G01*
X49660000Y-16026000D02*
G75*
G02*
X49740000Y-16026000I40000J0D01*
G01*
X49740000Y-16280000D02*
G75*
G02*
X49660000Y-16280000I-40000J0D01*
G01*
X49660000Y-16280000D02*
G75*
G02*
X49740000Y-16280000I40000J0D01*
G01*
X49740000Y-16534000D02*
G75*
G02*
X49660000Y-16534000I-40000J0D01*
G01*
X49660000Y-16534000D02*
G75*
G02*
X49740000Y-16534000I40000J0D01*
G01*
X49740000Y-16788000D02*
G75*
G02*
X49660000Y-16788000I-40000J0D01*
G01*
X49660000Y-16788000D02*
G75*
G02*
X49740000Y-16788000I40000J0D01*
G01*
X49740000Y-17042000D02*
G75*
G02*
X49660000Y-17042000I-40000J0D01*
G01*
X49660000Y-17042000D02*
G75*
G02*
X49740000Y-17042000I40000J0D01*
G01*
X49740000Y-17296000D02*
G75*
G02*
X49660000Y-17296000I-40000J0D01*
G01*
X49660000Y-17296000D02*
G75*
G02*
X49740000Y-17296000I40000J0D01*
G01*
X49740000Y-17550000D02*
G75*
G02*
X49660000Y-17550000I-40000J0D01*
G01*
X49660000Y-17550000D02*
G75*
G02*
X49740000Y-17550000I40000J0D01*
G01*
X49740000Y-17804000D02*
G75*
G02*
X49660000Y-17804000I-40000J0D01*
G01*
X49660000Y-17804000D02*
G75*
G02*
X49740000Y-17804000I40000J0D01*
G01*
X49740000Y-18058000D02*
G75*
G02*
X49660000Y-18058000I-40000J0D01*
G01*
X49660000Y-18058000D02*
G75*
G02*
X49740000Y-18058000I40000J0D01*
G01*
X49740000Y-18312000D02*
G75*
G02*
X49660000Y-18312000I-40000J0D01*
G01*
X49660000Y-18312000D02*
G75*
G02*
X49740000Y-18312000I40000J0D01*
G01*
X49752000Y-18634000D02*
G75*
G02*
X49672000Y-18634000I-40000J0D01*
G01*
X49672000Y-18634000D02*
G75*
G02*
X49752000Y-18634000I40000J0D01*
G01*
X49752000Y-18888000D02*
G75*
G02*
X49672000Y-18888000I-40000J0D01*
G01*
X49672000Y-18888000D02*
G75*
G02*
X49752000Y-18888000I40000J0D01*
G01*
X49752000Y-19142000D02*
G75*
G02*
X49672000Y-19142000I-40000J0D01*
G01*
X49672000Y-19142000D02*
G75*
G02*
X49752000Y-19142000I40000J0D01*
G01*
X49752000Y-19396000D02*
G75*
G02*
X49672000Y-19396000I-40000J0D01*
G01*
X49672000Y-19396000D02*
G75*
G02*
X49752000Y-19396000I40000J0D01*
G01*
X49752000Y-19650000D02*
G75*
G02*
X49672000Y-19650000I-40000J0D01*
G01*
X49672000Y-19650000D02*
G75*
G02*
X49752000Y-19650000I40000J0D01*
G01*
X49752000Y-19904000D02*
G75*
G02*
X49672000Y-19904000I-40000J0D01*
G01*
X49672000Y-19904000D02*
G75*
G02*
X49752000Y-19904000I40000J0D01*
G01*
X49752000Y-20158000D02*
G75*
G02*
X49672000Y-20158000I-40000J0D01*
G01*
X49672000Y-20158000D02*
G75*
G02*
X49752000Y-20158000I40000J0D01*
G01*
X49752000Y-20412000D02*
G75*
G02*
X49672000Y-20412000I-40000J0D01*
G01*
X49672000Y-20412000D02*
G75*
G02*
X49752000Y-20412000I40000J0D01*
G01*
X49752000Y-20666000D02*
G75*
G02*
X49672000Y-20666000I-40000J0D01*
G01*
X49672000Y-20666000D02*
G75*
G02*
X49752000Y-20666000I40000J0D01*
G01*
X49752000Y-20920000D02*
G75*
G02*
X49672000Y-20920000I-40000J0D01*
G01*
X49672000Y-20920000D02*
G75*
G02*
X49752000Y-20920000I40000J0D01*
G01*
X49752000Y-21174000D02*
G75*
G02*
X49672000Y-21174000I-40000J0D01*
G01*
X49672000Y-21174000D02*
G75*
G02*
X49752000Y-21174000I40000J0D01*
G01*
X49752000Y-21428000D02*
G75*
G02*
X49672000Y-21428000I-40000J0D01*
G01*
X49672000Y-21428000D02*
G75*
G02*
X49752000Y-21428000I40000J0D01*
G01*
X49752000Y-21682000D02*
G75*
G02*
X49672000Y-21682000I-40000J0D01*
G01*
X49672000Y-21682000D02*
G75*
G02*
X49752000Y-21682000I40000J0D01*
G01*
X49752000Y-21936000D02*
G75*
G02*
X49672000Y-21936000I-40000J0D01*
G01*
X49672000Y-21936000D02*
G75*
G02*
X49752000Y-21936000I40000J0D01*
G01*
X48176000Y-12743550D02*
X48176000Y-12832450D01*
X48131550Y-12788000D02*
X48220450Y-12788000D01*
X48176000Y-12997550D02*
X48176000Y-13086450D01*
X48131550Y-13042000D02*
X48220450Y-13042000D01*
X48176000Y-13251550D02*
X48176000Y-13340450D01*
X48131550Y-13296000D02*
X48220450Y-13296000D01*
X48176000Y-13505550D02*
X48176000Y-13594450D01*
X48131550Y-13550000D02*
X48220450Y-13550000D01*
X48176000Y-13759550D02*
X48176000Y-13848450D01*
X48131550Y-13804000D02*
X48220450Y-13804000D01*
X48176000Y-14013550D02*
X48176000Y-14102450D01*
X48131550Y-14058000D02*
X48220450Y-14058000D01*
X48176000Y-14267550D02*
X48176000Y-14356450D01*
X48131550Y-14312000D02*
X48220450Y-14312000D01*
X49700000Y-12743550D02*
X49700000Y-12832450D01*
X49655550Y-12788000D02*
X49744450Y-12788000D01*
X49700000Y-12997550D02*
X49700000Y-13086450D01*
X49655550Y-13042000D02*
X49744450Y-13042000D01*
X49700000Y-13251550D02*
X49700000Y-13340450D01*
X49655550Y-13296000D02*
X49744450Y-13296000D01*
X49700000Y-13505550D02*
X49700000Y-13594450D01*
X49655550Y-13550000D02*
X49744450Y-13550000D01*
X49700000Y-13759550D02*
X49700000Y-13848450D01*
X49655550Y-13804000D02*
X49744450Y-13804000D01*
X49700000Y-14013550D02*
X49700000Y-14102450D01*
X49655550Y-14058000D02*
X49744450Y-14058000D01*
X49700000Y-14267550D02*
X49700000Y-14356450D01*
X49655550Y-14312000D02*
X49744450Y-14312000D01*
X40173856Y-12881356D02*
X40173856Y-12810644D01*
X40103144Y-12810644D01*
X40103144Y-12881356D01*
X40173856Y-12881356D01*
X40173856Y-13135356D02*
X40173856Y-13064644D01*
X40103144Y-13064644D01*
X40103144Y-13135356D01*
X40173856Y-13135356D01*
X40173856Y-13389356D02*
X40173856Y-13318644D01*
X40103144Y-13318644D01*
X40103144Y-13389356D01*
X40173856Y-13389356D01*
X40173856Y-13643356D02*
X40173856Y-13572644D01*
X40103144Y-13572644D01*
X40103144Y-13643356D01*
X40173856Y-13643356D01*
X44010356Y-13035356D02*
X44010356Y-12964644D01*
X43939644Y-12964644D01*
X43939644Y-13035356D01*
X44010356Y-13035356D01*
X44010356Y-13535356D02*
X44010356Y-13464644D01*
X43939644Y-13464644D01*
X43939644Y-13535356D01*
X44010356Y-13535356D01*
X45460356Y-13035356D02*
X45460356Y-12964644D01*
X45389644Y-12964644D01*
X45389644Y-13035356D01*
X45460356Y-13035356D01*
X45460356Y-13285356D02*
X45460356Y-13214644D01*
X45389644Y-13214644D01*
X45389644Y-13285356D01*
X45460356Y-13285356D01*
X45460356Y-13535356D02*
X45460356Y-13464644D01*
X45389644Y-13464644D01*
X45389644Y-13535356D01*
X45460356Y-13535356D01*
X45985356Y-13035356D02*
X45985356Y-12964644D01*
X45914644Y-12964644D01*
X45914644Y-13035356D01*
X45985356Y-13035356D01*
X45985356Y-13285356D02*
X45985356Y-13214644D01*
X45914644Y-13214644D01*
X45914644Y-13285356D01*
X45985356Y-13285356D01*
X45985356Y-13535356D02*
X45985356Y-13464644D01*
X45914644Y-13464644D01*
X45914644Y-13535356D01*
X45985356Y-13535356D01*
X47435356Y-13035356D02*
X47435356Y-12964644D01*
X47364644Y-12964644D01*
X47364644Y-13035356D01*
X47435356Y-13035356D01*
X47435356Y-13535356D02*
X47435356Y-13464644D01*
X47364644Y-13464644D01*
X47364644Y-13535356D01*
X47435356Y-13535356D01*
D13*
X3195250Y-16696000D02*
X3250250Y-16641000D01*
X3195250Y-16586000D01*
X3140250Y-16641000D01*
X3195250Y-16696000D01*
X3195250Y-18601000D02*
X3250250Y-18546000D01*
X3195250Y-18491000D01*
X3140250Y-18546000D01*
X3195250Y-18601000D01*
X3195250Y-20506000D02*
X3250250Y-20451000D01*
X3195250Y-20396000D01*
X3140250Y-20451000D01*
X3195250Y-20506000D01*
X3195250Y-22411000D02*
X3250250Y-22356000D01*
X3195250Y-22301000D01*
X3140250Y-22356000D01*
X3195250Y-22411000D01*
X3195250Y-24316000D02*
X3250250Y-24261000D01*
X3195250Y-24206000D01*
X3140250Y-24261000D01*
X3195250Y-24316000D01*
X3957250Y-16696000D02*
X4012250Y-16641000D01*
X3957250Y-16586000D01*
X3902250Y-16641000D01*
X3957250Y-16696000D01*
X3957250Y-18601000D02*
X4012250Y-18546000D01*
X3957250Y-18491000D01*
X3902250Y-18546000D01*
X3957250Y-18601000D01*
X3957250Y-20506000D02*
X4012250Y-20451000D01*
X3957250Y-20396000D01*
X3902250Y-20451000D01*
X3957250Y-20506000D01*
X3957250Y-22411000D02*
X4012250Y-22356000D01*
X3957250Y-22301000D01*
X3902250Y-22356000D01*
X3957250Y-22411000D01*
X3957250Y-24316000D02*
X4012250Y-24261000D01*
X3957250Y-24206000D01*
X3902250Y-24261000D01*
X3957250Y-24316000D01*
X5576500Y-13838500D02*
X5631500Y-13783500D01*
X5576500Y-13728500D01*
X5521500Y-13783500D01*
X5576500Y-13838500D01*
X5576500Y-16696000D02*
X5631500Y-16641000D01*
X5576500Y-16586000D01*
X5521500Y-16641000D01*
X5576500Y-16696000D01*
X5814625Y-24316000D02*
X5869625Y-24261000D01*
X5814625Y-24206000D01*
X5759625Y-24261000D01*
X5814625Y-24316000D01*
X6052750Y-18601000D02*
X6107750Y-18546000D01*
X6052750Y-18491000D01*
X5997750Y-18546000D01*
X6052750Y-18601000D01*
X6290875Y-20506000D02*
X6345875Y-20451000D01*
X6290875Y-20396000D01*
X6235875Y-20451000D01*
X6290875Y-20506000D01*
X6338500Y-13838500D02*
X6393500Y-13783500D01*
X6338500Y-13728500D01*
X6283500Y-13783500D01*
X6338500Y-13838500D01*
X6338500Y-16696000D02*
X6393500Y-16641000D01*
X6338500Y-16586000D01*
X6283500Y-16641000D01*
X6338500Y-16696000D01*
X6576625Y-24316000D02*
X6631625Y-24261000D01*
X6576625Y-24206000D01*
X6521625Y-24261000D01*
X6576625Y-24316000D01*
X6767125Y-22411000D02*
X6822125Y-22356000D01*
X6767125Y-22301000D01*
X6712125Y-22356000D01*
X6767125Y-22411000D01*
X6814750Y-18601000D02*
X6869750Y-18546000D01*
X6814750Y-18491000D01*
X6759750Y-18546000D01*
X6814750Y-18601000D01*
X7052875Y-20506000D02*
X7107875Y-20451000D01*
X7052875Y-20396000D01*
X6997875Y-20451000D01*
X7052875Y-20506000D01*
X7481500Y-16696000D02*
X7536500Y-16641000D01*
X7481500Y-16586000D01*
X7426500Y-16641000D01*
X7481500Y-16696000D01*
X7529125Y-22411000D02*
X7584125Y-22356000D01*
X7529125Y-22301000D01*
X7474125Y-22356000D01*
X7529125Y-22411000D01*
X8195875Y-24316000D02*
X8250875Y-24261000D01*
X8195875Y-24206000D01*
X8140875Y-24261000D01*
X8195875Y-24316000D01*
X8243500Y-16696000D02*
X8298500Y-16641000D01*
X8243500Y-16586000D01*
X8188500Y-16641000D01*
X8243500Y-16696000D01*
X8434000Y-18601000D02*
X8489000Y-18546000D01*
X8434000Y-18491000D01*
X8379000Y-18546000D01*
X8434000Y-18601000D01*
X8910250Y-20506000D02*
X8965250Y-20451000D01*
X8910250Y-20396000D01*
X8855250Y-20451000D01*
X8910250Y-20506000D01*
X8957875Y-24316000D02*
X9012875Y-24261000D01*
X8957875Y-24206000D01*
X8902875Y-24261000D01*
X8957875Y-24316000D01*
X9196000Y-18601000D02*
X9251000Y-18546000D01*
X9196000Y-18491000D01*
X9141000Y-18546000D01*
X9196000Y-18601000D01*
X9386500Y-13838500D02*
X9441500Y-13783500D01*
X9386500Y-13728500D01*
X9331500Y-13783500D01*
X9386500Y-13838500D01*
X9386500Y-16696000D02*
X9441500Y-16641000D01*
X9386500Y-16586000D01*
X9331500Y-16641000D01*
X9386500Y-16696000D01*
X9672250Y-20506000D02*
X9727250Y-20451000D01*
X9672250Y-20396000D01*
X9617250Y-20451000D01*
X9672250Y-20506000D01*
X9862750Y-22411000D02*
X9917750Y-22356000D01*
X9862750Y-22301000D01*
X9807750Y-22356000D01*
X9862750Y-22411000D01*
X10148500Y-13838500D02*
X10203500Y-13783500D01*
X10148500Y-13728500D01*
X10093500Y-13783500D01*
X10148500Y-13838500D01*
X10148500Y-16696000D02*
X10203500Y-16641000D01*
X10148500Y-16586000D01*
X10093500Y-16641000D01*
X10148500Y-16696000D01*
X10339000Y-18601000D02*
X10394000Y-18546000D01*
X10339000Y-18491000D01*
X10284000Y-18546000D01*
X10339000Y-18601000D01*
X10577125Y-24316000D02*
X10632125Y-24261000D01*
X10577125Y-24206000D01*
X10522125Y-24261000D01*
X10577125Y-24316000D01*
X10624750Y-22411000D02*
X10679750Y-22356000D01*
X10624750Y-22301000D01*
X10569750Y-22356000D01*
X10624750Y-22411000D01*
X10815250Y-20506000D02*
X10870250Y-20451000D01*
X10815250Y-20396000D01*
X10760250Y-20451000D01*
X10815250Y-20506000D01*
X11101000Y-18601000D02*
X11156000Y-18546000D01*
X11101000Y-18491000D01*
X11046000Y-18546000D01*
X11101000Y-18601000D01*
X11291500Y-13838500D02*
X11346500Y-13783500D01*
X11291500Y-13728500D01*
X11236500Y-13783500D01*
X11291500Y-13838500D01*
X11291500Y-16696000D02*
X11346500Y-16641000D01*
X11291500Y-16586000D01*
X11236500Y-16641000D01*
X11291500Y-16696000D01*
X11339125Y-24316000D02*
X11394125Y-24261000D01*
X11339125Y-24206000D01*
X11284125Y-24261000D01*
X11339125Y-24316000D01*
X11577250Y-20506000D02*
X11632250Y-20451000D01*
X11577250Y-20396000D01*
X11522250Y-20451000D01*
X11577250Y-20506000D01*
X11767750Y-22411000D02*
X11822750Y-22356000D01*
X11767750Y-22301000D01*
X11712750Y-22356000D01*
X11767750Y-22411000D01*
X12053500Y-13838500D02*
X12108500Y-13783500D01*
X12053500Y-13728500D01*
X11998500Y-13783500D01*
X12053500Y-13838500D01*
X12053500Y-16696000D02*
X12108500Y-16641000D01*
X12053500Y-16586000D01*
X11998500Y-16641000D01*
X12053500Y-16696000D01*
X12244000Y-18601000D02*
X12299000Y-18546000D01*
X12244000Y-18491000D01*
X12189000Y-18546000D01*
X12244000Y-18601000D01*
X12529750Y-22411000D02*
X12584750Y-22356000D01*
X12529750Y-22301000D01*
X12474750Y-22356000D01*
X12529750Y-22411000D01*
X12720250Y-20506000D02*
X12775250Y-20451000D01*
X12720250Y-20396000D01*
X12665250Y-20451000D01*
X12720250Y-20506000D01*
X13006000Y-18601000D02*
X13061000Y-18546000D01*
X13006000Y-18491000D01*
X12951000Y-18546000D01*
X13006000Y-18601000D01*
X13196500Y-13838500D02*
X13251500Y-13783500D01*
X13196500Y-13728500D01*
X13141500Y-13783500D01*
X13196500Y-13838500D01*
X13196500Y-16696000D02*
X13251500Y-16641000D01*
X13196500Y-16586000D01*
X13141500Y-16641000D01*
X13196500Y-16696000D01*
X13482250Y-20506000D02*
X13537250Y-20451000D01*
X13482250Y-20396000D01*
X13427250Y-20451000D01*
X13482250Y-20506000D01*
X13672750Y-22411000D02*
X13727750Y-22356000D01*
X13672750Y-22301000D01*
X13617750Y-22356000D01*
X13672750Y-22411000D01*
X13958500Y-13838500D02*
X14013500Y-13783500D01*
X13958500Y-13728500D01*
X13903500Y-13783500D01*
X13958500Y-13838500D01*
X13958500Y-16696000D02*
X14013500Y-16641000D01*
X13958500Y-16586000D01*
X13903500Y-16641000D01*
X13958500Y-16696000D01*
X14149000Y-18601000D02*
X14204000Y-18546000D01*
X14149000Y-18491000D01*
X14094000Y-18546000D01*
X14149000Y-18601000D01*
X14434750Y-22411000D02*
X14489750Y-22356000D01*
X14434750Y-22301000D01*
X14379750Y-22356000D01*
X14434750Y-22411000D01*
X14625250Y-20506000D02*
X14680250Y-20451000D01*
X14625250Y-20396000D01*
X14570250Y-20451000D01*
X14625250Y-20506000D01*
X14911000Y-18601000D02*
X14966000Y-18546000D01*
X14911000Y-18491000D01*
X14856000Y-18546000D01*
X14911000Y-18601000D01*
X15101500Y-13838500D02*
X15156500Y-13783500D01*
X15101500Y-13728500D01*
X15046500Y-13783500D01*
X15101500Y-13838500D01*
X15101500Y-16696000D02*
X15156500Y-16641000D01*
X15101500Y-16586000D01*
X15046500Y-16641000D01*
X15101500Y-16696000D01*
X15387250Y-20506000D02*
X15442250Y-20451000D01*
X15387250Y-20396000D01*
X15332250Y-20451000D01*
X15387250Y-20506000D01*
X15577750Y-22411000D02*
X15632750Y-22356000D01*
X15577750Y-22301000D01*
X15522750Y-22356000D01*
X15577750Y-22411000D01*
X15863500Y-13838500D02*
X15918500Y-13783500D01*
X15863500Y-13728500D01*
X15808500Y-13783500D01*
X15863500Y-13838500D01*
X15863500Y-16696000D02*
X15918500Y-16641000D01*
X15863500Y-16586000D01*
X15808500Y-16641000D01*
X15863500Y-16696000D01*
X16054000Y-18601000D02*
X16109000Y-18546000D01*
X16054000Y-18491000D01*
X15999000Y-18546000D01*
X16054000Y-18601000D01*
X16339750Y-22411000D02*
X16394750Y-22356000D01*
X16339750Y-22301000D01*
X16284750Y-22356000D01*
X16339750Y-22411000D01*
X16530250Y-20506000D02*
X16585250Y-20451000D01*
X16530250Y-20396000D01*
X16475250Y-20451000D01*
X16530250Y-20506000D01*
X16816000Y-18601000D02*
X16871000Y-18546000D01*
X16816000Y-18491000D01*
X16761000Y-18546000D01*
X16816000Y-18601000D01*
X17006500Y-16696000D02*
X17061500Y-16641000D01*
X17006500Y-16586000D01*
X16951500Y-16641000D01*
X17006500Y-16696000D01*
X17292250Y-20506000D02*
X17347250Y-20451000D01*
X17292250Y-20396000D01*
X17237250Y-20451000D01*
X17292250Y-20506000D01*
X17482750Y-22411000D02*
X17537750Y-22356000D01*
X17482750Y-22301000D01*
X17427750Y-22356000D01*
X17482750Y-22411000D01*
X17720875Y-24316000D02*
X17775875Y-24261000D01*
X17720875Y-24206000D01*
X17665875Y-24261000D01*
X17720875Y-24316000D01*
X17768500Y-16696000D02*
X17823500Y-16641000D01*
X17768500Y-16586000D01*
X17713500Y-16641000D01*
X17768500Y-16696000D01*
X17959000Y-13838500D02*
X18014000Y-13783500D01*
X17959000Y-13728500D01*
X17904000Y-13783500D01*
X17959000Y-13838500D01*
X17959000Y-18601000D02*
X18014000Y-18546000D01*
X17959000Y-18491000D01*
X17904000Y-18546000D01*
X17959000Y-18601000D01*
X18244750Y-22411000D02*
X18299750Y-22356000D01*
X18244750Y-22301000D01*
X18189750Y-22356000D01*
X18244750Y-22411000D01*
X18435250Y-20506000D02*
X18490250Y-20451000D01*
X18435250Y-20396000D01*
X18380250Y-20451000D01*
X18435250Y-20506000D01*
X18482875Y-24316000D02*
X18537875Y-24261000D01*
X18482875Y-24206000D01*
X18427875Y-24261000D01*
X18482875Y-24316000D01*
X18721000Y-13838500D02*
X18776000Y-13783500D01*
X18721000Y-13728500D01*
X18666000Y-13783500D01*
X18721000Y-13838500D01*
X18721000Y-18601000D02*
X18776000Y-18546000D01*
X18721000Y-18491000D01*
X18666000Y-18546000D01*
X18721000Y-18601000D01*
X18911500Y-16696000D02*
X18966500Y-16641000D01*
X18911500Y-16586000D01*
X18856500Y-16641000D01*
X18911500Y-16696000D01*
X19197250Y-20506000D02*
X19252250Y-20451000D01*
X19197250Y-20396000D01*
X19142250Y-20451000D01*
X19197250Y-20506000D01*
X19387750Y-22411000D02*
X19442750Y-22356000D01*
X19387750Y-22301000D01*
X19332750Y-22356000D01*
X19387750Y-22411000D01*
X19673500Y-16696000D02*
X19728500Y-16641000D01*
X19673500Y-16586000D01*
X19618500Y-16641000D01*
X19673500Y-16696000D01*
X19864000Y-13838500D02*
X19919000Y-13783500D01*
X19864000Y-13728500D01*
X19809000Y-13783500D01*
X19864000Y-13838500D01*
X19864000Y-18601000D02*
X19919000Y-18546000D01*
X19864000Y-18491000D01*
X19809000Y-18546000D01*
X19864000Y-18601000D01*
X20149750Y-22411000D02*
X20204750Y-22356000D01*
X20149750Y-22301000D01*
X20094750Y-22356000D01*
X20149750Y-22411000D01*
X20340250Y-20506000D02*
X20395250Y-20451000D01*
X20340250Y-20396000D01*
X20285250Y-20451000D01*
X20340250Y-20506000D01*
X20626000Y-13838500D02*
X20681000Y-13783500D01*
X20626000Y-13728500D01*
X20571000Y-13783500D01*
X20626000Y-13838500D01*
X20626000Y-18601000D02*
X20681000Y-18546000D01*
X20626000Y-18491000D01*
X20571000Y-18546000D01*
X20626000Y-18601000D01*
X20816500Y-16696000D02*
X20871500Y-16641000D01*
X20816500Y-16586000D01*
X20761500Y-16641000D01*
X20816500Y-16696000D01*
X21102250Y-20506000D02*
X21157250Y-20451000D01*
X21102250Y-20396000D01*
X21047250Y-20451000D01*
X21102250Y-20506000D01*
X21292750Y-22411000D02*
X21347750Y-22356000D01*
X21292750Y-22301000D01*
X21237750Y-22356000D01*
X21292750Y-22411000D01*
X21578500Y-16696000D02*
X21633500Y-16641000D01*
X21578500Y-16586000D01*
X21523500Y-16641000D01*
X21578500Y-16696000D01*
X21769000Y-13838500D02*
X21824000Y-13783500D01*
X21769000Y-13728500D01*
X21714000Y-13783500D01*
X21769000Y-13838500D01*
X21769000Y-18601000D02*
X21824000Y-18546000D01*
X21769000Y-18491000D01*
X21714000Y-18546000D01*
X21769000Y-18601000D01*
X22054750Y-22411000D02*
X22109750Y-22356000D01*
X22054750Y-22301000D01*
X21999750Y-22356000D01*
X22054750Y-22411000D01*
X22245250Y-20506000D02*
X22300250Y-20451000D01*
X22245250Y-20396000D01*
X22190250Y-20451000D01*
X22245250Y-20506000D01*
X22531000Y-13838500D02*
X22586000Y-13783500D01*
X22531000Y-13728500D01*
X22476000Y-13783500D01*
X22531000Y-13838500D01*
X22531000Y-18601000D02*
X22586000Y-18546000D01*
X22531000Y-18491000D01*
X22476000Y-18546000D01*
X22531000Y-18601000D01*
X22721500Y-16696000D02*
X22776500Y-16641000D01*
X22721500Y-16586000D01*
X22666500Y-16641000D01*
X22721500Y-16696000D01*
X23007250Y-20506000D02*
X23062250Y-20451000D01*
X23007250Y-20396000D01*
X22952250Y-20451000D01*
X23007250Y-20506000D01*
X23197750Y-22411000D02*
X23252750Y-22356000D01*
X23197750Y-22301000D01*
X23142750Y-22356000D01*
X23197750Y-22411000D01*
X23483500Y-16696000D02*
X23538500Y-16641000D01*
X23483500Y-16586000D01*
X23428500Y-16641000D01*
X23483500Y-16696000D01*
X23674000Y-13838500D02*
X23729000Y-13783500D01*
X23674000Y-13728500D01*
X23619000Y-13783500D01*
X23674000Y-13838500D01*
X23674000Y-18601000D02*
X23729000Y-18546000D01*
X23674000Y-18491000D01*
X23619000Y-18546000D01*
X23674000Y-18601000D01*
X23959750Y-22411000D02*
X24014750Y-22356000D01*
X23959750Y-22301000D01*
X23904750Y-22356000D01*
X23959750Y-22411000D01*
X24150250Y-20506000D02*
X24205250Y-20451000D01*
X24150250Y-20396000D01*
X24095250Y-20451000D01*
X24150250Y-20506000D01*
X24436000Y-13838500D02*
X24491000Y-13783500D01*
X24436000Y-13728500D01*
X24381000Y-13783500D01*
X24436000Y-13838500D01*
X24436000Y-18601000D02*
X24491000Y-18546000D01*
X24436000Y-18491000D01*
X24381000Y-18546000D01*
X24436000Y-18601000D01*
X24626500Y-16696000D02*
X24681500Y-16641000D01*
X24626500Y-16586000D01*
X24571500Y-16641000D01*
X24626500Y-16696000D01*
X24864625Y-24316000D02*
X24919625Y-24261000D01*
X24864625Y-24206000D01*
X24809625Y-24261000D01*
X24864625Y-24316000D01*
X24912250Y-20506000D02*
X24967250Y-20451000D01*
X24912250Y-20396000D01*
X24857250Y-20451000D01*
X24912250Y-20506000D01*
X25102750Y-22411000D02*
X25157750Y-22356000D01*
X25102750Y-22301000D01*
X25047750Y-22356000D01*
X25102750Y-22411000D01*
X25388500Y-16696000D02*
X25443500Y-16641000D01*
X25388500Y-16586000D01*
X25333500Y-16641000D01*
X25388500Y-16696000D01*
X25579000Y-18601000D02*
X25634000Y-18546000D01*
X25579000Y-18491000D01*
X25524000Y-18546000D01*
X25579000Y-18601000D01*
X25626625Y-24316000D02*
X25681625Y-24261000D01*
X25626625Y-24206000D01*
X25571625Y-24261000D01*
X25626625Y-24316000D01*
X25864750Y-22411000D02*
X25919750Y-22356000D01*
X25864750Y-22301000D01*
X25809750Y-22356000D01*
X25864750Y-22411000D01*
X26055250Y-20506000D02*
X26110250Y-20451000D01*
X26055250Y-20396000D01*
X26000250Y-20451000D01*
X26055250Y-20506000D01*
X26341000Y-18601000D02*
X26396000Y-18546000D01*
X26341000Y-18491000D01*
X26286000Y-18546000D01*
X26341000Y-18601000D01*
X26531500Y-13838500D02*
X26586500Y-13783500D01*
X26531500Y-13728500D01*
X26476500Y-13783500D01*
X26531500Y-13838500D01*
X26531500Y-16696000D02*
X26586500Y-16641000D01*
X26531500Y-16586000D01*
X26476500Y-16641000D01*
X26531500Y-16696000D01*
X26817250Y-20506000D02*
X26872250Y-20451000D01*
X26817250Y-20396000D01*
X26762250Y-20451000D01*
X26817250Y-20506000D01*
X27007750Y-22411000D02*
X27062750Y-22356000D01*
X27007750Y-22301000D01*
X26952750Y-22356000D01*
X27007750Y-22411000D01*
X27245875Y-24316000D02*
X27300875Y-24261000D01*
X27245875Y-24206000D01*
X27190875Y-24261000D01*
X27245875Y-24316000D01*
X27293500Y-13838500D02*
X27348500Y-13783500D01*
X27293500Y-13728500D01*
X27238500Y-13783500D01*
X27293500Y-13838500D01*
X27293500Y-16696000D02*
X27348500Y-16641000D01*
X27293500Y-16586000D01*
X27238500Y-16641000D01*
X27293500Y-16696000D01*
X27484000Y-18601000D02*
X27539000Y-18546000D01*
X27484000Y-18491000D01*
X27429000Y-18546000D01*
X27484000Y-18601000D01*
X27769750Y-22411000D02*
X27824750Y-22356000D01*
X27769750Y-22301000D01*
X27714750Y-22356000D01*
X27769750Y-22411000D01*
X27960250Y-20506000D02*
X28015250Y-20451000D01*
X27960250Y-20396000D01*
X27905250Y-20451000D01*
X27960250Y-20506000D01*
X28007875Y-24316000D02*
X28062875Y-24261000D01*
X28007875Y-24206000D01*
X27952875Y-24261000D01*
X28007875Y-24316000D01*
X28246000Y-18601000D02*
X28301000Y-18546000D01*
X28246000Y-18491000D01*
X28191000Y-18546000D01*
X28246000Y-18601000D01*
X28436500Y-13838500D02*
X28491500Y-13783500D01*
X28436500Y-13728500D01*
X28381500Y-13783500D01*
X28436500Y-13838500D01*
X28436500Y-16696000D02*
X28491500Y-16641000D01*
X28436500Y-16586000D01*
X28381500Y-16641000D01*
X28436500Y-16696000D01*
X28722250Y-20506000D02*
X28777250Y-20451000D01*
X28722250Y-20396000D01*
X28667250Y-20451000D01*
X28722250Y-20506000D01*
X29198500Y-13838500D02*
X29253500Y-13783500D01*
X29198500Y-13728500D01*
X29143500Y-13783500D01*
X29198500Y-13838500D01*
X29198500Y-16696000D02*
X29253500Y-16641000D01*
X29198500Y-16586000D01*
X29143500Y-16641000D01*
X29198500Y-16696000D01*
X29389000Y-18601000D02*
X29444000Y-18546000D01*
X29389000Y-18491000D01*
X29334000Y-18546000D01*
X29389000Y-18601000D01*
X29627125Y-24316000D02*
X29682125Y-24261000D01*
X29627125Y-24206000D01*
X29572125Y-24261000D01*
X29627125Y-24316000D01*
X30151000Y-18601000D02*
X30206000Y-18546000D01*
X30151000Y-18491000D01*
X30096000Y-18546000D01*
X30151000Y-18601000D01*
X30341500Y-13838500D02*
X30396500Y-13783500D01*
X30341500Y-13728500D01*
X30286500Y-13783500D01*
X30341500Y-13838500D01*
X30389125Y-24316000D02*
X30444125Y-24261000D01*
X30389125Y-24206000D01*
X30334125Y-24261000D01*
X30389125Y-24316000D01*
X30579625Y-22411000D02*
X30634625Y-22356000D01*
X30579625Y-22301000D01*
X30524625Y-22356000D01*
X30579625Y-22411000D01*
X31055875Y-20506000D02*
X31110875Y-20451000D01*
X31055875Y-20396000D01*
X31000875Y-20451000D01*
X31055875Y-20506000D01*
X31103500Y-13838500D02*
X31158500Y-13783500D01*
X31103500Y-13728500D01*
X31048500Y-13783500D01*
X31103500Y-13838500D01*
X31294000Y-16696000D02*
X31349000Y-16641000D01*
X31294000Y-16586000D01*
X31239000Y-16641000D01*
X31294000Y-16696000D01*
X31341625Y-22411000D02*
X31396625Y-22356000D01*
X31341625Y-22301000D01*
X31286625Y-22356000D01*
X31341625Y-22411000D01*
X31770250Y-18601000D02*
X31825250Y-18546000D01*
X31770250Y-18491000D01*
X31715250Y-18546000D01*
X31770250Y-18601000D01*
X31817875Y-20506000D02*
X31872875Y-20451000D01*
X31817875Y-20396000D01*
X31762875Y-20451000D01*
X31817875Y-20506000D01*
X32008375Y-24316000D02*
X32063375Y-24261000D01*
X32008375Y-24206000D01*
X31953375Y-24261000D01*
X32008375Y-24316000D01*
X32056000Y-16696000D02*
X32111000Y-16641000D01*
X32056000Y-16586000D01*
X32001000Y-16641000D01*
X32056000Y-16696000D01*
X32246500Y-13838500D02*
X32301500Y-13783500D01*
X32246500Y-13728500D01*
X32191500Y-13783500D01*
X32246500Y-13838500D01*
X32532250Y-18601000D02*
X32587250Y-18546000D01*
X32532250Y-18491000D01*
X32477250Y-18546000D01*
X32532250Y-18601000D01*
X32770375Y-24316000D02*
X32825375Y-24261000D01*
X32770375Y-24206000D01*
X32715375Y-24261000D01*
X32770375Y-24316000D01*
X33008500Y-13838500D02*
X33063500Y-13783500D01*
X33008500Y-13728500D01*
X32953500Y-13783500D01*
X33008500Y-13838500D01*
X34627750Y-13838500D02*
X34682750Y-13783500D01*
X34627750Y-13728500D01*
X34572750Y-13783500D01*
X34627750Y-13838500D01*
X34627750Y-16696000D02*
X34682750Y-16641000D01*
X34627750Y-16586000D01*
X34572750Y-16641000D01*
X34627750Y-16696000D01*
X34627750Y-18601000D02*
X34682750Y-18546000D01*
X34627750Y-18491000D01*
X34572750Y-18546000D01*
X34627750Y-18601000D01*
X34627750Y-24316000D02*
X34682750Y-24261000D01*
X34627750Y-24206000D01*
X34572750Y-24261000D01*
X34627750Y-24316000D01*
X35389750Y-13838500D02*
X35444750Y-13783500D01*
X35389750Y-13728500D01*
X35334750Y-13783500D01*
X35389750Y-13838500D01*
X35389750Y-16696000D02*
X35444750Y-16641000D01*
X35389750Y-16586000D01*
X35334750Y-16641000D01*
X35389750Y-16696000D01*
X35389750Y-18601000D02*
X35444750Y-18546000D01*
X35389750Y-18491000D01*
X35334750Y-18546000D01*
X35389750Y-18601000D01*
X35389750Y-24316000D02*
X35444750Y-24261000D01*
X35389750Y-24206000D01*
X35334750Y-24261000D01*
X35389750Y-24316000D01*
X36532750Y-13838500D02*
X36587750Y-13783500D01*
X36532750Y-13728500D01*
X36477750Y-13783500D01*
X36532750Y-13838500D01*
X36532750Y-16696000D02*
X36587750Y-16641000D01*
X36532750Y-16586000D01*
X36477750Y-16641000D01*
X36532750Y-16696000D01*
X36532750Y-18601000D02*
X36587750Y-18546000D01*
X36532750Y-18491000D01*
X36477750Y-18546000D01*
X36532750Y-18601000D01*
X36532750Y-22411000D02*
X36587750Y-22356000D01*
X36532750Y-22301000D01*
X36477750Y-22356000D01*
X36532750Y-22411000D01*
X36532750Y-24316000D02*
X36587750Y-24261000D01*
X36532750Y-24206000D01*
X36477750Y-24261000D01*
X36532750Y-24316000D01*
X37294750Y-13838500D02*
X37349750Y-13783500D01*
X37294750Y-13728500D01*
X37239750Y-13783500D01*
X37294750Y-13838500D01*
X37294750Y-16696000D02*
X37349750Y-16641000D01*
X37294750Y-16586000D01*
X37239750Y-16641000D01*
X37294750Y-16696000D01*
X37294750Y-18601000D02*
X37349750Y-18546000D01*
X37294750Y-18491000D01*
X37239750Y-18546000D01*
X37294750Y-18601000D01*
X37294750Y-22411000D02*
X37349750Y-22356000D01*
X37294750Y-22301000D01*
X37239750Y-22356000D01*
X37294750Y-22411000D01*
X37294750Y-24316000D02*
X37349750Y-24261000D01*
X37294750Y-24206000D01*
X37239750Y-24261000D01*
X37294750Y-24316000D01*
X38437750Y-13838500D02*
X38492750Y-13783500D01*
X38437750Y-13728500D01*
X38382750Y-13783500D01*
X38437750Y-13838500D01*
X38437750Y-16696000D02*
X38492750Y-16641000D01*
X38437750Y-16586000D01*
X38382750Y-16641000D01*
X38437750Y-16696000D01*
X38437750Y-18601000D02*
X38492750Y-18546000D01*
X38437750Y-18491000D01*
X38382750Y-18546000D01*
X38437750Y-18601000D01*
X38437750Y-24316000D02*
X38492750Y-24261000D01*
X38437750Y-24206000D01*
X38382750Y-24261000D01*
X38437750Y-24316000D01*
X39199750Y-13838500D02*
X39254750Y-13783500D01*
X39199750Y-13728500D01*
X39144750Y-13783500D01*
X39199750Y-13838500D01*
X39199750Y-16696000D02*
X39254750Y-16641000D01*
X39199750Y-16586000D01*
X39144750Y-16641000D01*
X39199750Y-16696000D01*
X39199750Y-18601000D02*
X39254750Y-18546000D01*
X39199750Y-18491000D01*
X39144750Y-18546000D01*
X39199750Y-18601000D01*
X39199750Y-24316000D02*
X39254750Y-24261000D01*
X39199750Y-24206000D01*
X39144750Y-24261000D01*
X39199750Y-24316000D01*
X40819000Y-16696000D02*
X40874000Y-16641000D01*
X40819000Y-16586000D01*
X40764000Y-16641000D01*
X40819000Y-16696000D01*
X40819000Y-18601000D02*
X40874000Y-18546000D01*
X40819000Y-18491000D01*
X40764000Y-18546000D01*
X40819000Y-18601000D01*
X40819000Y-20506000D02*
X40874000Y-20451000D01*
X40819000Y-20396000D01*
X40764000Y-20451000D01*
X40819000Y-20506000D01*
X40819000Y-22411000D02*
X40874000Y-22356000D01*
X40819000Y-22301000D01*
X40764000Y-22356000D01*
X40819000Y-22411000D01*
X41581000Y-16696000D02*
X41636000Y-16641000D01*
X41581000Y-16586000D01*
X41526000Y-16641000D01*
X41581000Y-16696000D01*
X41581000Y-18601000D02*
X41636000Y-18546000D01*
X41581000Y-18491000D01*
X41526000Y-18546000D01*
X41581000Y-18601000D01*
X41581000Y-20506000D02*
X41636000Y-20451000D01*
X41581000Y-20396000D01*
X41526000Y-20451000D01*
X41581000Y-20506000D01*
X41581000Y-22411000D02*
X41636000Y-22356000D01*
X41581000Y-22301000D01*
X41526000Y-22356000D01*
X41581000Y-22411000D01*
X41771500Y-24316000D02*
X41826500Y-24261000D01*
X41771500Y-24206000D01*
X41716500Y-24261000D01*
X41771500Y-24316000D01*
X42533500Y-24316000D02*
X42588500Y-24261000D01*
X42533500Y-24206000D01*
X42478500Y-24261000D01*
X42533500Y-24316000D01*
X42724000Y-16696000D02*
X42779000Y-16641000D01*
X42724000Y-16586000D01*
X42669000Y-16641000D01*
X42724000Y-16696000D01*
X42724000Y-18601000D02*
X42779000Y-18546000D01*
X42724000Y-18491000D01*
X42669000Y-18546000D01*
X42724000Y-18601000D01*
X42724000Y-20506000D02*
X42779000Y-20451000D01*
X42724000Y-20396000D01*
X42669000Y-20451000D01*
X42724000Y-20506000D01*
X42724000Y-22411000D02*
X42779000Y-22356000D01*
X42724000Y-22301000D01*
X42669000Y-22356000D01*
X42724000Y-22411000D01*
X43486000Y-16696000D02*
X43541000Y-16641000D01*
X43486000Y-16586000D01*
X43431000Y-16641000D01*
X43486000Y-16696000D01*
X43486000Y-18601000D02*
X43541000Y-18546000D01*
X43486000Y-18491000D01*
X43431000Y-18546000D01*
X43486000Y-18601000D01*
X43486000Y-20506000D02*
X43541000Y-20451000D01*
X43486000Y-20396000D01*
X43431000Y-20451000D01*
X43486000Y-20506000D01*
X43486000Y-22411000D02*
X43541000Y-22356000D01*
X43486000Y-22301000D01*
X43431000Y-22356000D01*
X43486000Y-22411000D01*
X44629000Y-16696000D02*
X44684000Y-16641000D01*
X44629000Y-16586000D01*
X44574000Y-16641000D01*
X44629000Y-16696000D01*
X44629000Y-18601000D02*
X44684000Y-18546000D01*
X44629000Y-18491000D01*
X44574000Y-18546000D01*
X44629000Y-18601000D01*
X44629000Y-20506000D02*
X44684000Y-20451000D01*
X44629000Y-20396000D01*
X44574000Y-20451000D01*
X44629000Y-20506000D01*
X44629000Y-22411000D02*
X44684000Y-22356000D01*
X44629000Y-22301000D01*
X44574000Y-22356000D01*
X44629000Y-22411000D01*
X44629000Y-24316000D02*
X44684000Y-24261000D01*
X44629000Y-24206000D01*
X44574000Y-24261000D01*
X44629000Y-24316000D01*
X45391000Y-16696000D02*
X45446000Y-16641000D01*
X45391000Y-16586000D01*
X45336000Y-16641000D01*
X45391000Y-16696000D01*
X45391000Y-18601000D02*
X45446000Y-18546000D01*
X45391000Y-18491000D01*
X45336000Y-18546000D01*
X45391000Y-18601000D01*
X45391000Y-20506000D02*
X45446000Y-20451000D01*
X45391000Y-20396000D01*
X45336000Y-20451000D01*
X45391000Y-20506000D01*
X45391000Y-22411000D02*
X45446000Y-22356000D01*
X45391000Y-22301000D01*
X45336000Y-22356000D01*
X45391000Y-22411000D01*
X45391000Y-24316000D02*
X45446000Y-24261000D01*
X45391000Y-24206000D01*
X45336000Y-24261000D01*
X45391000Y-24316000D01*
X46534000Y-16696000D02*
X46589000Y-16641000D01*
X46534000Y-16586000D01*
X46479000Y-16641000D01*
X46534000Y-16696000D01*
X46534000Y-19553500D02*
X46589000Y-19498500D01*
X46534000Y-19443500D01*
X46479000Y-19498500D01*
X46534000Y-19553500D01*
X46534000Y-23363500D02*
X46589000Y-23308500D01*
X46534000Y-23253500D01*
X46479000Y-23308500D01*
X46534000Y-23363500D01*
X47296000Y-16696000D02*
X47351000Y-16641000D01*
X47296000Y-16586000D01*
X47241000Y-16641000D01*
X47296000Y-16696000D01*
X47296000Y-19553500D02*
X47351000Y-19498500D01*
X47296000Y-19443500D01*
X47241000Y-19498500D01*
X47296000Y-19553500D01*
X47296000Y-23363500D02*
X47351000Y-23308500D01*
X47296000Y-23253500D01*
X47241000Y-23308500D01*
X47296000Y-23363500D01*
D14*
X3116250Y-15770000D02*
X3266250Y-15920000D01*
X3266250Y-15770000D02*
X3116250Y-15920000D01*
X3266250Y-15845000D02*
G75*
G02*
X3116250Y-15845000I-75000J0D01*
G01*
X3116250Y-15845000D02*
G75*
G02*
X3266250Y-15845000I75000J0D01*
G01*
X3116250Y-17675000D02*
X3266250Y-17825000D01*
X3266250Y-17675000D02*
X3116250Y-17825000D01*
X3266250Y-17750000D02*
G75*
G02*
X3116250Y-17750000I-75000J0D01*
G01*
X3116250Y-17750000D02*
G75*
G02*
X3266250Y-17750000I75000J0D01*
G01*
X3116250Y-19580000D02*
X3266250Y-19730000D01*
X3266250Y-19580000D02*
X3116250Y-19730000D01*
X3266250Y-19655000D02*
G75*
G02*
X3116250Y-19655000I-75000J0D01*
G01*
X3116250Y-19655000D02*
G75*
G02*
X3266250Y-19655000I75000J0D01*
G01*
X3116250Y-21485000D02*
X3266250Y-21635000D01*
X3266250Y-21485000D02*
X3116250Y-21635000D01*
X3266250Y-21560000D02*
G75*
G02*
X3116250Y-21560000I-75000J0D01*
G01*
X3116250Y-21560000D02*
G75*
G02*
X3266250Y-21560000I75000J0D01*
G01*
X3116250Y-23390000D02*
X3266250Y-23540000D01*
X3266250Y-23390000D02*
X3116250Y-23540000D01*
X3266250Y-23465000D02*
G75*
G02*
X3116250Y-23465000I-75000J0D01*
G01*
X3116250Y-23465000D02*
G75*
G02*
X3266250Y-23465000I75000J0D01*
G01*
X3751250Y-15516000D02*
X3901250Y-15666000D01*
X3901250Y-15516000D02*
X3751250Y-15666000D01*
X3901250Y-15591000D02*
G75*
G02*
X3751250Y-15591000I-75000J0D01*
G01*
X3751250Y-15591000D02*
G75*
G02*
X3901250Y-15591000I75000J0D01*
G01*
X3751250Y-17421000D02*
X3901250Y-17571000D01*
X3901250Y-17421000D02*
X3751250Y-17571000D01*
X3901250Y-17496000D02*
G75*
G02*
X3751250Y-17496000I-75000J0D01*
G01*
X3751250Y-17496000D02*
G75*
G02*
X3901250Y-17496000I75000J0D01*
G01*
X3751250Y-19326000D02*
X3901250Y-19476000D01*
X3901250Y-19326000D02*
X3751250Y-19476000D01*
X3901250Y-19401000D02*
G75*
G02*
X3751250Y-19401000I-75000J0D01*
G01*
X3751250Y-19401000D02*
G75*
G02*
X3901250Y-19401000I75000J0D01*
G01*
X3751250Y-21231000D02*
X3901250Y-21381000D01*
X3901250Y-21231000D02*
X3751250Y-21381000D01*
X3901250Y-21306000D02*
G75*
G02*
X3751250Y-21306000I-75000J0D01*
G01*
X3751250Y-21306000D02*
G75*
G02*
X3901250Y-21306000I75000J0D01*
G01*
X3751250Y-23136000D02*
X3901250Y-23286000D01*
X3901250Y-23136000D02*
X3751250Y-23286000D01*
X3901250Y-23211000D02*
G75*
G02*
X3751250Y-23211000I-75000J0D01*
G01*
X3751250Y-23211000D02*
G75*
G02*
X3901250Y-23211000I75000J0D01*
G01*
X5497500Y-12912500D02*
X5647500Y-13062500D01*
X5647500Y-12912500D02*
X5497500Y-13062500D01*
X5647500Y-12987500D02*
G75*
G02*
X5497500Y-12987500I-75000J0D01*
G01*
X5497500Y-12987500D02*
G75*
G02*
X5647500Y-12987500I75000J0D01*
G01*
X5497500Y-15770000D02*
X5647500Y-15920000D01*
X5647500Y-15770000D02*
X5497500Y-15920000D01*
X5647500Y-15845000D02*
G75*
G02*
X5497500Y-15845000I-75000J0D01*
G01*
X5497500Y-15845000D02*
G75*
G02*
X5647500Y-15845000I75000J0D01*
G01*
X5735625Y-23390000D02*
X5885625Y-23540000D01*
X5885625Y-23390000D02*
X5735625Y-23540000D01*
X5885625Y-23465000D02*
G75*
G02*
X5735625Y-23465000I-75000J0D01*
G01*
X5735625Y-23465000D02*
G75*
G02*
X5885625Y-23465000I75000J0D01*
G01*
X5973750Y-17675000D02*
X6123750Y-17825000D01*
X6123750Y-17675000D02*
X5973750Y-17825000D01*
X6123750Y-17750000D02*
G75*
G02*
X5973750Y-17750000I-75000J0D01*
G01*
X5973750Y-17750000D02*
G75*
G02*
X6123750Y-17750000I75000J0D01*
G01*
X6132500Y-12658500D02*
X6282500Y-12808500D01*
X6282500Y-12658500D02*
X6132500Y-12808500D01*
X6282500Y-12733500D02*
G75*
G02*
X6132500Y-12733500I-75000J0D01*
G01*
X6132500Y-12733500D02*
G75*
G02*
X6282500Y-12733500I75000J0D01*
G01*
X6132500Y-15516000D02*
X6282500Y-15666000D01*
X6282500Y-15516000D02*
X6132500Y-15666000D01*
X6282500Y-15591000D02*
G75*
G02*
X6132500Y-15591000I-75000J0D01*
G01*
X6132500Y-15591000D02*
G75*
G02*
X6282500Y-15591000I75000J0D01*
G01*
X6211875Y-19580000D02*
X6361875Y-19730000D01*
X6361875Y-19580000D02*
X6211875Y-19730000D01*
X6361875Y-19655000D02*
G75*
G02*
X6211875Y-19655000I-75000J0D01*
G01*
X6211875Y-19655000D02*
G75*
G02*
X6361875Y-19655000I75000J0D01*
G01*
X6370625Y-23136000D02*
X6520625Y-23286000D01*
X6520625Y-23136000D02*
X6370625Y-23286000D01*
X6520625Y-23211000D02*
G75*
G02*
X6370625Y-23211000I-75000J0D01*
G01*
X6370625Y-23211000D02*
G75*
G02*
X6520625Y-23211000I75000J0D01*
G01*
X6608750Y-17421000D02*
X6758750Y-17571000D01*
X6758750Y-17421000D02*
X6608750Y-17571000D01*
X6758750Y-17496000D02*
G75*
G02*
X6608750Y-17496000I-75000J0D01*
G01*
X6608750Y-17496000D02*
G75*
G02*
X6758750Y-17496000I75000J0D01*
G01*
X6688125Y-21485000D02*
X6838125Y-21635000D01*
X6838125Y-21485000D02*
X6688125Y-21635000D01*
X6838125Y-21560000D02*
G75*
G02*
X6688125Y-21560000I-75000J0D01*
G01*
X6688125Y-21560000D02*
G75*
G02*
X6838125Y-21560000I75000J0D01*
G01*
X6846875Y-19326000D02*
X6996875Y-19476000D01*
X6996875Y-19326000D02*
X6846875Y-19476000D01*
X6996875Y-19401000D02*
G75*
G02*
X6846875Y-19401000I-75000J0D01*
G01*
X6846875Y-19401000D02*
G75*
G02*
X6996875Y-19401000I75000J0D01*
G01*
X7323125Y-21231000D02*
X7473125Y-21381000D01*
X7473125Y-21231000D02*
X7323125Y-21381000D01*
X7473125Y-21306000D02*
G75*
G02*
X7323125Y-21306000I-75000J0D01*
G01*
X7323125Y-21306000D02*
G75*
G02*
X7473125Y-21306000I75000J0D01*
G01*
X7402500Y-15770000D02*
X7552500Y-15920000D01*
X7552500Y-15770000D02*
X7402500Y-15920000D01*
X7552500Y-15845000D02*
G75*
G02*
X7402500Y-15845000I-75000J0D01*
G01*
X7402500Y-15845000D02*
G75*
G02*
X7552500Y-15845000I75000J0D01*
G01*
X8037500Y-15516000D02*
X8187500Y-15666000D01*
X8187500Y-15516000D02*
X8037500Y-15666000D01*
X8187500Y-15591000D02*
G75*
G02*
X8037500Y-15591000I-75000J0D01*
G01*
X8037500Y-15591000D02*
G75*
G02*
X8187500Y-15591000I75000J0D01*
G01*
X8116875Y-23390000D02*
X8266875Y-23540000D01*
X8266875Y-23390000D02*
X8116875Y-23540000D01*
X8266875Y-23465000D02*
G75*
G02*
X8116875Y-23465000I-75000J0D01*
G01*
X8116875Y-23465000D02*
G75*
G02*
X8266875Y-23465000I75000J0D01*
G01*
X8355000Y-17675000D02*
X8505000Y-17825000D01*
X8505000Y-17675000D02*
X8355000Y-17825000D01*
X8505000Y-17750000D02*
G75*
G02*
X8355000Y-17750000I-75000J0D01*
G01*
X8355000Y-17750000D02*
G75*
G02*
X8505000Y-17750000I75000J0D01*
G01*
X8751875Y-23136000D02*
X8901875Y-23286000D01*
X8901875Y-23136000D02*
X8751875Y-23286000D01*
X8901875Y-23211000D02*
G75*
G02*
X8751875Y-23211000I-75000J0D01*
G01*
X8751875Y-23211000D02*
G75*
G02*
X8901875Y-23211000I75000J0D01*
G01*
X8831250Y-19580000D02*
X8981250Y-19730000D01*
X8981250Y-19580000D02*
X8831250Y-19730000D01*
X8981250Y-19655000D02*
G75*
G02*
X8831250Y-19655000I-75000J0D01*
G01*
X8831250Y-19655000D02*
G75*
G02*
X8981250Y-19655000I75000J0D01*
G01*
X8990000Y-17421000D02*
X9140000Y-17571000D01*
X9140000Y-17421000D02*
X8990000Y-17571000D01*
X9140000Y-17496000D02*
G75*
G02*
X8990000Y-17496000I-75000J0D01*
G01*
X8990000Y-17496000D02*
G75*
G02*
X9140000Y-17496000I75000J0D01*
G01*
X9307500Y-12912500D02*
X9457500Y-13062500D01*
X9457500Y-12912500D02*
X9307500Y-13062500D01*
X9457500Y-12987500D02*
G75*
G02*
X9307500Y-12987500I-75000J0D01*
G01*
X9307500Y-12987500D02*
G75*
G02*
X9457500Y-12987500I75000J0D01*
G01*
X9307500Y-15770000D02*
X9457500Y-15920000D01*
X9457500Y-15770000D02*
X9307500Y-15920000D01*
X9457500Y-15845000D02*
G75*
G02*
X9307500Y-15845000I-75000J0D01*
G01*
X9307500Y-15845000D02*
G75*
G02*
X9457500Y-15845000I75000J0D01*
G01*
X9466250Y-19326000D02*
X9616250Y-19476000D01*
X9616250Y-19326000D02*
X9466250Y-19476000D01*
X9616250Y-19401000D02*
G75*
G02*
X9466250Y-19401000I-75000J0D01*
G01*
X9466250Y-19401000D02*
G75*
G02*
X9616250Y-19401000I75000J0D01*
G01*
X9783750Y-21485000D02*
X9933750Y-21635000D01*
X9933750Y-21485000D02*
X9783750Y-21635000D01*
X9933750Y-21560000D02*
G75*
G02*
X9783750Y-21560000I-75000J0D01*
G01*
X9783750Y-21560000D02*
G75*
G02*
X9933750Y-21560000I75000J0D01*
G01*
X9942500Y-12658500D02*
X10092500Y-12808500D01*
X10092500Y-12658500D02*
X9942500Y-12808500D01*
X10092500Y-12733500D02*
G75*
G02*
X9942500Y-12733500I-75000J0D01*
G01*
X9942500Y-12733500D02*
G75*
G02*
X10092500Y-12733500I75000J0D01*
G01*
X9942500Y-15516000D02*
X10092500Y-15666000D01*
X10092500Y-15516000D02*
X9942500Y-15666000D01*
X10092500Y-15591000D02*
G75*
G02*
X9942500Y-15591000I-75000J0D01*
G01*
X9942500Y-15591000D02*
G75*
G02*
X10092500Y-15591000I75000J0D01*
G01*
X10260000Y-17675000D02*
X10410000Y-17825000D01*
X10410000Y-17675000D02*
X10260000Y-17825000D01*
X10410000Y-17750000D02*
G75*
G02*
X10260000Y-17750000I-75000J0D01*
G01*
X10260000Y-17750000D02*
G75*
G02*
X10410000Y-17750000I75000J0D01*
G01*
X10418750Y-21231000D02*
X10568750Y-21381000D01*
X10568750Y-21231000D02*
X10418750Y-21381000D01*
X10568750Y-21306000D02*
G75*
G02*
X10418750Y-21306000I-75000J0D01*
G01*
X10418750Y-21306000D02*
G75*
G02*
X10568750Y-21306000I75000J0D01*
G01*
X10498125Y-23390000D02*
X10648125Y-23540000D01*
X10648125Y-23390000D02*
X10498125Y-23540000D01*
X10648125Y-23465000D02*
G75*
G02*
X10498125Y-23465000I-75000J0D01*
G01*
X10498125Y-23465000D02*
G75*
G02*
X10648125Y-23465000I75000J0D01*
G01*
X10736250Y-19580000D02*
X10886250Y-19730000D01*
X10886250Y-19580000D02*
X10736250Y-19730000D01*
X10886250Y-19655000D02*
G75*
G02*
X10736250Y-19655000I-75000J0D01*
G01*
X10736250Y-19655000D02*
G75*
G02*
X10886250Y-19655000I75000J0D01*
G01*
X10895000Y-17421000D02*
X11045000Y-17571000D01*
X11045000Y-17421000D02*
X10895000Y-17571000D01*
X11045000Y-17496000D02*
G75*
G02*
X10895000Y-17496000I-75000J0D01*
G01*
X10895000Y-17496000D02*
G75*
G02*
X11045000Y-17496000I75000J0D01*
G01*
X11133125Y-23136000D02*
X11283125Y-23286000D01*
X11283125Y-23136000D02*
X11133125Y-23286000D01*
X11283125Y-23211000D02*
G75*
G02*
X11133125Y-23211000I-75000J0D01*
G01*
X11133125Y-23211000D02*
G75*
G02*
X11283125Y-23211000I75000J0D01*
G01*
X11212500Y-12912500D02*
X11362500Y-13062500D01*
X11362500Y-12912500D02*
X11212500Y-13062500D01*
X11362500Y-12987500D02*
G75*
G02*
X11212500Y-12987500I-75000J0D01*
G01*
X11212500Y-12987500D02*
G75*
G02*
X11362500Y-12987500I75000J0D01*
G01*
X11212500Y-15770000D02*
X11362500Y-15920000D01*
X11362500Y-15770000D02*
X11212500Y-15920000D01*
X11362500Y-15845000D02*
G75*
G02*
X11212500Y-15845000I-75000J0D01*
G01*
X11212500Y-15845000D02*
G75*
G02*
X11362500Y-15845000I75000J0D01*
G01*
X11371250Y-19326000D02*
X11521250Y-19476000D01*
X11521250Y-19326000D02*
X11371250Y-19476000D01*
X11521250Y-19401000D02*
G75*
G02*
X11371250Y-19401000I-75000J0D01*
G01*
X11371250Y-19401000D02*
G75*
G02*
X11521250Y-19401000I75000J0D01*
G01*
X11688750Y-21485000D02*
X11838750Y-21635000D01*
X11838750Y-21485000D02*
X11688750Y-21635000D01*
X11838750Y-21560000D02*
G75*
G02*
X11688750Y-21560000I-75000J0D01*
G01*
X11688750Y-21560000D02*
G75*
G02*
X11838750Y-21560000I75000J0D01*
G01*
X11847500Y-12658500D02*
X11997500Y-12808500D01*
X11997500Y-12658500D02*
X11847500Y-12808500D01*
X11997500Y-12733500D02*
G75*
G02*
X11847500Y-12733500I-75000J0D01*
G01*
X11847500Y-12733500D02*
G75*
G02*
X11997500Y-12733500I75000J0D01*
G01*
X11847500Y-15516000D02*
X11997500Y-15666000D01*
X11997500Y-15516000D02*
X11847500Y-15666000D01*
X11997500Y-15591000D02*
G75*
G02*
X11847500Y-15591000I-75000J0D01*
G01*
X11847500Y-15591000D02*
G75*
G02*
X11997500Y-15591000I75000J0D01*
G01*
X12165000Y-17675000D02*
X12315000Y-17825000D01*
X12315000Y-17675000D02*
X12165000Y-17825000D01*
X12315000Y-17750000D02*
G75*
G02*
X12165000Y-17750000I-75000J0D01*
G01*
X12165000Y-17750000D02*
G75*
G02*
X12315000Y-17750000I75000J0D01*
G01*
X12323750Y-21231000D02*
X12473750Y-21381000D01*
X12473750Y-21231000D02*
X12323750Y-21381000D01*
X12473750Y-21306000D02*
G75*
G02*
X12323750Y-21306000I-75000J0D01*
G01*
X12323750Y-21306000D02*
G75*
G02*
X12473750Y-21306000I75000J0D01*
G01*
X12641250Y-19580000D02*
X12791250Y-19730000D01*
X12791250Y-19580000D02*
X12641250Y-19730000D01*
X12791250Y-19655000D02*
G75*
G02*
X12641250Y-19655000I-75000J0D01*
G01*
X12641250Y-19655000D02*
G75*
G02*
X12791250Y-19655000I75000J0D01*
G01*
X12800000Y-17421000D02*
X12950000Y-17571000D01*
X12950000Y-17421000D02*
X12800000Y-17571000D01*
X12950000Y-17496000D02*
G75*
G02*
X12800000Y-17496000I-75000J0D01*
G01*
X12800000Y-17496000D02*
G75*
G02*
X12950000Y-17496000I75000J0D01*
G01*
X13117500Y-12912500D02*
X13267500Y-13062500D01*
X13267500Y-12912500D02*
X13117500Y-13062500D01*
X13267500Y-12987500D02*
G75*
G02*
X13117500Y-12987500I-75000J0D01*
G01*
X13117500Y-12987500D02*
G75*
G02*
X13267500Y-12987500I75000J0D01*
G01*
X13117500Y-15770000D02*
X13267500Y-15920000D01*
X13267500Y-15770000D02*
X13117500Y-15920000D01*
X13267500Y-15845000D02*
G75*
G02*
X13117500Y-15845000I-75000J0D01*
G01*
X13117500Y-15845000D02*
G75*
G02*
X13267500Y-15845000I75000J0D01*
G01*
X13276250Y-19326000D02*
X13426250Y-19476000D01*
X13426250Y-19326000D02*
X13276250Y-19476000D01*
X13426250Y-19401000D02*
G75*
G02*
X13276250Y-19401000I-75000J0D01*
G01*
X13276250Y-19401000D02*
G75*
G02*
X13426250Y-19401000I75000J0D01*
G01*
X13593750Y-21485000D02*
X13743750Y-21635000D01*
X13743750Y-21485000D02*
X13593750Y-21635000D01*
X13743750Y-21560000D02*
G75*
G02*
X13593750Y-21560000I-75000J0D01*
G01*
X13593750Y-21560000D02*
G75*
G02*
X13743750Y-21560000I75000J0D01*
G01*
X13752500Y-12658500D02*
X13902500Y-12808500D01*
X13902500Y-12658500D02*
X13752500Y-12808500D01*
X13902500Y-12733500D02*
G75*
G02*
X13752500Y-12733500I-75000J0D01*
G01*
X13752500Y-12733500D02*
G75*
G02*
X13902500Y-12733500I75000J0D01*
G01*
X13752500Y-15516000D02*
X13902500Y-15666000D01*
X13902500Y-15516000D02*
X13752500Y-15666000D01*
X13902500Y-15591000D02*
G75*
G02*
X13752500Y-15591000I-75000J0D01*
G01*
X13752500Y-15591000D02*
G75*
G02*
X13902500Y-15591000I75000J0D01*
G01*
X14070000Y-17675000D02*
X14220000Y-17825000D01*
X14220000Y-17675000D02*
X14070000Y-17825000D01*
X14220000Y-17750000D02*
G75*
G02*
X14070000Y-17750000I-75000J0D01*
G01*
X14070000Y-17750000D02*
G75*
G02*
X14220000Y-17750000I75000J0D01*
G01*
X14228750Y-21231000D02*
X14378750Y-21381000D01*
X14378750Y-21231000D02*
X14228750Y-21381000D01*
X14378750Y-21306000D02*
G75*
G02*
X14228750Y-21306000I-75000J0D01*
G01*
X14228750Y-21306000D02*
G75*
G02*
X14378750Y-21306000I75000J0D01*
G01*
X14546250Y-19580000D02*
X14696250Y-19730000D01*
X14696250Y-19580000D02*
X14546250Y-19730000D01*
X14696250Y-19655000D02*
G75*
G02*
X14546250Y-19655000I-75000J0D01*
G01*
X14546250Y-19655000D02*
G75*
G02*
X14696250Y-19655000I75000J0D01*
G01*
X14705000Y-17421000D02*
X14855000Y-17571000D01*
X14855000Y-17421000D02*
X14705000Y-17571000D01*
X14855000Y-17496000D02*
G75*
G02*
X14705000Y-17496000I-75000J0D01*
G01*
X14705000Y-17496000D02*
G75*
G02*
X14855000Y-17496000I75000J0D01*
G01*
X15022500Y-12912500D02*
X15172500Y-13062500D01*
X15172500Y-12912500D02*
X15022500Y-13062500D01*
X15172500Y-12987500D02*
G75*
G02*
X15022500Y-12987500I-75000J0D01*
G01*
X15022500Y-12987500D02*
G75*
G02*
X15172500Y-12987500I75000J0D01*
G01*
X15022500Y-15770000D02*
X15172500Y-15920000D01*
X15172500Y-15770000D02*
X15022500Y-15920000D01*
X15172500Y-15845000D02*
G75*
G02*
X15022500Y-15845000I-75000J0D01*
G01*
X15022500Y-15845000D02*
G75*
G02*
X15172500Y-15845000I75000J0D01*
G01*
X15181250Y-19326000D02*
X15331250Y-19476000D01*
X15331250Y-19326000D02*
X15181250Y-19476000D01*
X15331250Y-19401000D02*
G75*
G02*
X15181250Y-19401000I-75000J0D01*
G01*
X15181250Y-19401000D02*
G75*
G02*
X15331250Y-19401000I75000J0D01*
G01*
X15498750Y-21485000D02*
X15648750Y-21635000D01*
X15648750Y-21485000D02*
X15498750Y-21635000D01*
X15648750Y-21560000D02*
G75*
G02*
X15498750Y-21560000I-75000J0D01*
G01*
X15498750Y-21560000D02*
G75*
G02*
X15648750Y-21560000I75000J0D01*
G01*
X15657500Y-12658500D02*
X15807500Y-12808500D01*
X15807500Y-12658500D02*
X15657500Y-12808500D01*
X15807500Y-12733500D02*
G75*
G02*
X15657500Y-12733500I-75000J0D01*
G01*
X15657500Y-12733500D02*
G75*
G02*
X15807500Y-12733500I75000J0D01*
G01*
X15657500Y-15516000D02*
X15807500Y-15666000D01*
X15807500Y-15516000D02*
X15657500Y-15666000D01*
X15807500Y-15591000D02*
G75*
G02*
X15657500Y-15591000I-75000J0D01*
G01*
X15657500Y-15591000D02*
G75*
G02*
X15807500Y-15591000I75000J0D01*
G01*
X15975000Y-17675000D02*
X16125000Y-17825000D01*
X16125000Y-17675000D02*
X15975000Y-17825000D01*
X16125000Y-17750000D02*
G75*
G02*
X15975000Y-17750000I-75000J0D01*
G01*
X15975000Y-17750000D02*
G75*
G02*
X16125000Y-17750000I75000J0D01*
G01*
X16133750Y-21231000D02*
X16283750Y-21381000D01*
X16283750Y-21231000D02*
X16133750Y-21381000D01*
X16283750Y-21306000D02*
G75*
G02*
X16133750Y-21306000I-75000J0D01*
G01*
X16133750Y-21306000D02*
G75*
G02*
X16283750Y-21306000I75000J0D01*
G01*
X16451250Y-19580000D02*
X16601250Y-19730000D01*
X16601250Y-19580000D02*
X16451250Y-19730000D01*
X16601250Y-19655000D02*
G75*
G02*
X16451250Y-19655000I-75000J0D01*
G01*
X16451250Y-19655000D02*
G75*
G02*
X16601250Y-19655000I75000J0D01*
G01*
X16610000Y-17421000D02*
X16760000Y-17571000D01*
X16760000Y-17421000D02*
X16610000Y-17571000D01*
X16760000Y-17496000D02*
G75*
G02*
X16610000Y-17496000I-75000J0D01*
G01*
X16610000Y-17496000D02*
G75*
G02*
X16760000Y-17496000I75000J0D01*
G01*
X16927500Y-15770000D02*
X17077500Y-15920000D01*
X17077500Y-15770000D02*
X16927500Y-15920000D01*
X17077500Y-15845000D02*
G75*
G02*
X16927500Y-15845000I-75000J0D01*
G01*
X16927500Y-15845000D02*
G75*
G02*
X17077500Y-15845000I75000J0D01*
G01*
X17086250Y-19326000D02*
X17236250Y-19476000D01*
X17236250Y-19326000D02*
X17086250Y-19476000D01*
X17236250Y-19401000D02*
G75*
G02*
X17086250Y-19401000I-75000J0D01*
G01*
X17086250Y-19401000D02*
G75*
G02*
X17236250Y-19401000I75000J0D01*
G01*
X17403750Y-21485000D02*
X17553750Y-21635000D01*
X17553750Y-21485000D02*
X17403750Y-21635000D01*
X17553750Y-21560000D02*
G75*
G02*
X17403750Y-21560000I-75000J0D01*
G01*
X17403750Y-21560000D02*
G75*
G02*
X17553750Y-21560000I75000J0D01*
G01*
X17562500Y-15516000D02*
X17712500Y-15666000D01*
X17712500Y-15516000D02*
X17562500Y-15666000D01*
X17712500Y-15591000D02*
G75*
G02*
X17562500Y-15591000I-75000J0D01*
G01*
X17562500Y-15591000D02*
G75*
G02*
X17712500Y-15591000I75000J0D01*
G01*
X17641875Y-23390000D02*
X17791875Y-23540000D01*
X17791875Y-23390000D02*
X17641875Y-23540000D01*
X17791875Y-23465000D02*
G75*
G02*
X17641875Y-23465000I-75000J0D01*
G01*
X17641875Y-23465000D02*
G75*
G02*
X17791875Y-23465000I75000J0D01*
G01*
X17880000Y-12912500D02*
X18030000Y-13062500D01*
X18030000Y-12912500D02*
X17880000Y-13062500D01*
X18030000Y-12987500D02*
G75*
G02*
X17880000Y-12987500I-75000J0D01*
G01*
X17880000Y-12987500D02*
G75*
G02*
X18030000Y-12987500I75000J0D01*
G01*
X17880000Y-17675000D02*
X18030000Y-17825000D01*
X18030000Y-17675000D02*
X17880000Y-17825000D01*
X18030000Y-17750000D02*
G75*
G02*
X17880000Y-17750000I-75000J0D01*
G01*
X17880000Y-17750000D02*
G75*
G02*
X18030000Y-17750000I75000J0D01*
G01*
X18038750Y-21231000D02*
X18188750Y-21381000D01*
X18188750Y-21231000D02*
X18038750Y-21381000D01*
X18188750Y-21306000D02*
G75*
G02*
X18038750Y-21306000I-75000J0D01*
G01*
X18038750Y-21306000D02*
G75*
G02*
X18188750Y-21306000I75000J0D01*
G01*
X18276875Y-23136000D02*
X18426875Y-23286000D01*
X18426875Y-23136000D02*
X18276875Y-23286000D01*
X18426875Y-23211000D02*
G75*
G02*
X18276875Y-23211000I-75000J0D01*
G01*
X18276875Y-23211000D02*
G75*
G02*
X18426875Y-23211000I75000J0D01*
G01*
X18356250Y-19580000D02*
X18506250Y-19730000D01*
X18506250Y-19580000D02*
X18356250Y-19730000D01*
X18506250Y-19655000D02*
G75*
G02*
X18356250Y-19655000I-75000J0D01*
G01*
X18356250Y-19655000D02*
G75*
G02*
X18506250Y-19655000I75000J0D01*
G01*
X18515000Y-12658500D02*
X18665000Y-12808500D01*
X18665000Y-12658500D02*
X18515000Y-12808500D01*
X18665000Y-12733500D02*
G75*
G02*
X18515000Y-12733500I-75000J0D01*
G01*
X18515000Y-12733500D02*
G75*
G02*
X18665000Y-12733500I75000J0D01*
G01*
X18515000Y-17421000D02*
X18665000Y-17571000D01*
X18665000Y-17421000D02*
X18515000Y-17571000D01*
X18665000Y-17496000D02*
G75*
G02*
X18515000Y-17496000I-75000J0D01*
G01*
X18515000Y-17496000D02*
G75*
G02*
X18665000Y-17496000I75000J0D01*
G01*
X18832500Y-15770000D02*
X18982500Y-15920000D01*
X18982500Y-15770000D02*
X18832500Y-15920000D01*
X18982500Y-15845000D02*
G75*
G02*
X18832500Y-15845000I-75000J0D01*
G01*
X18832500Y-15845000D02*
G75*
G02*
X18982500Y-15845000I75000J0D01*
G01*
X18991250Y-19326000D02*
X19141250Y-19476000D01*
X19141250Y-19326000D02*
X18991250Y-19476000D01*
X19141250Y-19401000D02*
G75*
G02*
X18991250Y-19401000I-75000J0D01*
G01*
X18991250Y-19401000D02*
G75*
G02*
X19141250Y-19401000I75000J0D01*
G01*
X19308750Y-21485000D02*
X19458750Y-21635000D01*
X19458750Y-21485000D02*
X19308750Y-21635000D01*
X19458750Y-21560000D02*
G75*
G02*
X19308750Y-21560000I-75000J0D01*
G01*
X19308750Y-21560000D02*
G75*
G02*
X19458750Y-21560000I75000J0D01*
G01*
X19467500Y-15516000D02*
X19617500Y-15666000D01*
X19617500Y-15516000D02*
X19467500Y-15666000D01*
X19617500Y-15591000D02*
G75*
G02*
X19467500Y-15591000I-75000J0D01*
G01*
X19467500Y-15591000D02*
G75*
G02*
X19617500Y-15591000I75000J0D01*
G01*
X19785000Y-12912500D02*
X19935000Y-13062500D01*
X19935000Y-12912500D02*
X19785000Y-13062500D01*
X19935000Y-12987500D02*
G75*
G02*
X19785000Y-12987500I-75000J0D01*
G01*
X19785000Y-12987500D02*
G75*
G02*
X19935000Y-12987500I75000J0D01*
G01*
X19785000Y-17675000D02*
X19935000Y-17825000D01*
X19935000Y-17675000D02*
X19785000Y-17825000D01*
X19935000Y-17750000D02*
G75*
G02*
X19785000Y-17750000I-75000J0D01*
G01*
X19785000Y-17750000D02*
G75*
G02*
X19935000Y-17750000I75000J0D01*
G01*
X19943750Y-21231000D02*
X20093750Y-21381000D01*
X20093750Y-21231000D02*
X19943750Y-21381000D01*
X20093750Y-21306000D02*
G75*
G02*
X19943750Y-21306000I-75000J0D01*
G01*
X19943750Y-21306000D02*
G75*
G02*
X20093750Y-21306000I75000J0D01*
G01*
X20261250Y-19580000D02*
X20411250Y-19730000D01*
X20411250Y-19580000D02*
X20261250Y-19730000D01*
X20411250Y-19655000D02*
G75*
G02*
X20261250Y-19655000I-75000J0D01*
G01*
X20261250Y-19655000D02*
G75*
G02*
X20411250Y-19655000I75000J0D01*
G01*
X20420000Y-12658500D02*
X20570000Y-12808500D01*
X20570000Y-12658500D02*
X20420000Y-12808500D01*
X20570000Y-12733500D02*
G75*
G02*
X20420000Y-12733500I-75000J0D01*
G01*
X20420000Y-12733500D02*
G75*
G02*
X20570000Y-12733500I75000J0D01*
G01*
X20420000Y-17421000D02*
X20570000Y-17571000D01*
X20570000Y-17421000D02*
X20420000Y-17571000D01*
X20570000Y-17496000D02*
G75*
G02*
X20420000Y-17496000I-75000J0D01*
G01*
X20420000Y-17496000D02*
G75*
G02*
X20570000Y-17496000I75000J0D01*
G01*
X20737500Y-15770000D02*
X20887500Y-15920000D01*
X20887500Y-15770000D02*
X20737500Y-15920000D01*
X20887500Y-15845000D02*
G75*
G02*
X20737500Y-15845000I-75000J0D01*
G01*
X20737500Y-15845000D02*
G75*
G02*
X20887500Y-15845000I75000J0D01*
G01*
X20896250Y-19326000D02*
X21046250Y-19476000D01*
X21046250Y-19326000D02*
X20896250Y-19476000D01*
X21046250Y-19401000D02*
G75*
G02*
X20896250Y-19401000I-75000J0D01*
G01*
X20896250Y-19401000D02*
G75*
G02*
X21046250Y-19401000I75000J0D01*
G01*
X21213750Y-21485000D02*
X21363750Y-21635000D01*
X21363750Y-21485000D02*
X21213750Y-21635000D01*
X21363750Y-21560000D02*
G75*
G02*
X21213750Y-21560000I-75000J0D01*
G01*
X21213750Y-21560000D02*
G75*
G02*
X21363750Y-21560000I75000J0D01*
G01*
X21372500Y-15516000D02*
X21522500Y-15666000D01*
X21522500Y-15516000D02*
X21372500Y-15666000D01*
X21522500Y-15591000D02*
G75*
G02*
X21372500Y-15591000I-75000J0D01*
G01*
X21372500Y-15591000D02*
G75*
G02*
X21522500Y-15591000I75000J0D01*
G01*
X21690000Y-12912500D02*
X21840000Y-13062500D01*
X21840000Y-12912500D02*
X21690000Y-13062500D01*
X21840000Y-12987500D02*
G75*
G02*
X21690000Y-12987500I-75000J0D01*
G01*
X21690000Y-12987500D02*
G75*
G02*
X21840000Y-12987500I75000J0D01*
G01*
X21690000Y-17675000D02*
X21840000Y-17825000D01*
X21840000Y-17675000D02*
X21690000Y-17825000D01*
X21840000Y-17750000D02*
G75*
G02*
X21690000Y-17750000I-75000J0D01*
G01*
X21690000Y-17750000D02*
G75*
G02*
X21840000Y-17750000I75000J0D01*
G01*
X21848750Y-21231000D02*
X21998750Y-21381000D01*
X21998750Y-21231000D02*
X21848750Y-21381000D01*
X21998750Y-21306000D02*
G75*
G02*
X21848750Y-21306000I-75000J0D01*
G01*
X21848750Y-21306000D02*
G75*
G02*
X21998750Y-21306000I75000J0D01*
G01*
X22166250Y-19580000D02*
X22316250Y-19730000D01*
X22316250Y-19580000D02*
X22166250Y-19730000D01*
X22316250Y-19655000D02*
G75*
G02*
X22166250Y-19655000I-75000J0D01*
G01*
X22166250Y-19655000D02*
G75*
G02*
X22316250Y-19655000I75000J0D01*
G01*
X22325000Y-12658500D02*
X22475000Y-12808500D01*
X22475000Y-12658500D02*
X22325000Y-12808500D01*
X22475000Y-12733500D02*
G75*
G02*
X22325000Y-12733500I-75000J0D01*
G01*
X22325000Y-12733500D02*
G75*
G02*
X22475000Y-12733500I75000J0D01*
G01*
X22325000Y-17421000D02*
X22475000Y-17571000D01*
X22475000Y-17421000D02*
X22325000Y-17571000D01*
X22475000Y-17496000D02*
G75*
G02*
X22325000Y-17496000I-75000J0D01*
G01*
X22325000Y-17496000D02*
G75*
G02*
X22475000Y-17496000I75000J0D01*
G01*
X22642500Y-15770000D02*
X22792500Y-15920000D01*
X22792500Y-15770000D02*
X22642500Y-15920000D01*
X22792500Y-15845000D02*
G75*
G02*
X22642500Y-15845000I-75000J0D01*
G01*
X22642500Y-15845000D02*
G75*
G02*
X22792500Y-15845000I75000J0D01*
G01*
X22801250Y-19326000D02*
X22951250Y-19476000D01*
X22951250Y-19326000D02*
X22801250Y-19476000D01*
X22951250Y-19401000D02*
G75*
G02*
X22801250Y-19401000I-75000J0D01*
G01*
X22801250Y-19401000D02*
G75*
G02*
X22951250Y-19401000I75000J0D01*
G01*
X23118750Y-21485000D02*
X23268750Y-21635000D01*
X23268750Y-21485000D02*
X23118750Y-21635000D01*
X23268750Y-21560000D02*
G75*
G02*
X23118750Y-21560000I-75000J0D01*
G01*
X23118750Y-21560000D02*
G75*
G02*
X23268750Y-21560000I75000J0D01*
G01*
X23277500Y-15516000D02*
X23427500Y-15666000D01*
X23427500Y-15516000D02*
X23277500Y-15666000D01*
X23427500Y-15591000D02*
G75*
G02*
X23277500Y-15591000I-75000J0D01*
G01*
X23277500Y-15591000D02*
G75*
G02*
X23427500Y-15591000I75000J0D01*
G01*
X23595000Y-12912500D02*
X23745000Y-13062500D01*
X23745000Y-12912500D02*
X23595000Y-13062500D01*
X23745000Y-12987500D02*
G75*
G02*
X23595000Y-12987500I-75000J0D01*
G01*
X23595000Y-12987500D02*
G75*
G02*
X23745000Y-12987500I75000J0D01*
G01*
X23595000Y-17675000D02*
X23745000Y-17825000D01*
X23745000Y-17675000D02*
X23595000Y-17825000D01*
X23745000Y-17750000D02*
G75*
G02*
X23595000Y-17750000I-75000J0D01*
G01*
X23595000Y-17750000D02*
G75*
G02*
X23745000Y-17750000I75000J0D01*
G01*
X23753750Y-21231000D02*
X23903750Y-21381000D01*
X23903750Y-21231000D02*
X23753750Y-21381000D01*
X23903750Y-21306000D02*
G75*
G02*
X23753750Y-21306000I-75000J0D01*
G01*
X23753750Y-21306000D02*
G75*
G02*
X23903750Y-21306000I75000J0D01*
G01*
X24071250Y-19580000D02*
X24221250Y-19730000D01*
X24221250Y-19580000D02*
X24071250Y-19730000D01*
X24221250Y-19655000D02*
G75*
G02*
X24071250Y-19655000I-75000J0D01*
G01*
X24071250Y-19655000D02*
G75*
G02*
X24221250Y-19655000I75000J0D01*
G01*
X24230000Y-12658500D02*
X24380000Y-12808500D01*
X24380000Y-12658500D02*
X24230000Y-12808500D01*
X24380000Y-12733500D02*
G75*
G02*
X24230000Y-12733500I-75000J0D01*
G01*
X24230000Y-12733500D02*
G75*
G02*
X24380000Y-12733500I75000J0D01*
G01*
X24230000Y-17421000D02*
X24380000Y-17571000D01*
X24380000Y-17421000D02*
X24230000Y-17571000D01*
X24380000Y-17496000D02*
G75*
G02*
X24230000Y-17496000I-75000J0D01*
G01*
X24230000Y-17496000D02*
G75*
G02*
X24380000Y-17496000I75000J0D01*
G01*
X24547500Y-15770000D02*
X24697500Y-15920000D01*
X24697500Y-15770000D02*
X24547500Y-15920000D01*
X24697500Y-15845000D02*
G75*
G02*
X24547500Y-15845000I-75000J0D01*
G01*
X24547500Y-15845000D02*
G75*
G02*
X24697500Y-15845000I75000J0D01*
G01*
X24706250Y-19326000D02*
X24856250Y-19476000D01*
X24856250Y-19326000D02*
X24706250Y-19476000D01*
X24856250Y-19401000D02*
G75*
G02*
X24706250Y-19401000I-75000J0D01*
G01*
X24706250Y-19401000D02*
G75*
G02*
X24856250Y-19401000I75000J0D01*
G01*
X24785625Y-23390000D02*
X24935625Y-23540000D01*
X24935625Y-23390000D02*
X24785625Y-23540000D01*
X24935625Y-23465000D02*
G75*
G02*
X24785625Y-23465000I-75000J0D01*
G01*
X24785625Y-23465000D02*
G75*
G02*
X24935625Y-23465000I75000J0D01*
G01*
X25023750Y-21485000D02*
X25173750Y-21635000D01*
X25173750Y-21485000D02*
X25023750Y-21635000D01*
X25173750Y-21560000D02*
G75*
G02*
X25023750Y-21560000I-75000J0D01*
G01*
X25023750Y-21560000D02*
G75*
G02*
X25173750Y-21560000I75000J0D01*
G01*
X25182500Y-15516000D02*
X25332500Y-15666000D01*
X25332500Y-15516000D02*
X25182500Y-15666000D01*
X25332500Y-15591000D02*
G75*
G02*
X25182500Y-15591000I-75000J0D01*
G01*
X25182500Y-15591000D02*
G75*
G02*
X25332500Y-15591000I75000J0D01*
G01*
X25420625Y-23136000D02*
X25570625Y-23286000D01*
X25570625Y-23136000D02*
X25420625Y-23286000D01*
X25570625Y-23211000D02*
G75*
G02*
X25420625Y-23211000I-75000J0D01*
G01*
X25420625Y-23211000D02*
G75*
G02*
X25570625Y-23211000I75000J0D01*
G01*
X25500000Y-17675000D02*
X25650000Y-17825000D01*
X25650000Y-17675000D02*
X25500000Y-17825000D01*
X25650000Y-17750000D02*
G75*
G02*
X25500000Y-17750000I-75000J0D01*
G01*
X25500000Y-17750000D02*
G75*
G02*
X25650000Y-17750000I75000J0D01*
G01*
X25658750Y-21231000D02*
X25808750Y-21381000D01*
X25808750Y-21231000D02*
X25658750Y-21381000D01*
X25808750Y-21306000D02*
G75*
G02*
X25658750Y-21306000I-75000J0D01*
G01*
X25658750Y-21306000D02*
G75*
G02*
X25808750Y-21306000I75000J0D01*
G01*
X25976250Y-19580000D02*
X26126250Y-19730000D01*
X26126250Y-19580000D02*
X25976250Y-19730000D01*
X26126250Y-19655000D02*
G75*
G02*
X25976250Y-19655000I-75000J0D01*
G01*
X25976250Y-19655000D02*
G75*
G02*
X26126250Y-19655000I75000J0D01*
G01*
X26135000Y-17421000D02*
X26285000Y-17571000D01*
X26285000Y-17421000D02*
X26135000Y-17571000D01*
X26285000Y-17496000D02*
G75*
G02*
X26135000Y-17496000I-75000J0D01*
G01*
X26135000Y-17496000D02*
G75*
G02*
X26285000Y-17496000I75000J0D01*
G01*
X26452500Y-12912500D02*
X26602500Y-13062500D01*
X26602500Y-12912500D02*
X26452500Y-13062500D01*
X26602500Y-12987500D02*
G75*
G02*
X26452500Y-12987500I-75000J0D01*
G01*
X26452500Y-12987500D02*
G75*
G02*
X26602500Y-12987500I75000J0D01*
G01*
X26452500Y-15770000D02*
X26602500Y-15920000D01*
X26602500Y-15770000D02*
X26452500Y-15920000D01*
X26602500Y-15845000D02*
G75*
G02*
X26452500Y-15845000I-75000J0D01*
G01*
X26452500Y-15845000D02*
G75*
G02*
X26602500Y-15845000I75000J0D01*
G01*
X26611250Y-19326000D02*
X26761250Y-19476000D01*
X26761250Y-19326000D02*
X26611250Y-19476000D01*
X26761250Y-19401000D02*
G75*
G02*
X26611250Y-19401000I-75000J0D01*
G01*
X26611250Y-19401000D02*
G75*
G02*
X26761250Y-19401000I75000J0D01*
G01*
X26928750Y-21485000D02*
X27078750Y-21635000D01*
X27078750Y-21485000D02*
X26928750Y-21635000D01*
X27078750Y-21560000D02*
G75*
G02*
X26928750Y-21560000I-75000J0D01*
G01*
X26928750Y-21560000D02*
G75*
G02*
X27078750Y-21560000I75000J0D01*
G01*
X27087500Y-12658500D02*
X27237500Y-12808500D01*
X27237500Y-12658500D02*
X27087500Y-12808500D01*
X27237500Y-12733500D02*
G75*
G02*
X27087500Y-12733500I-75000J0D01*
G01*
X27087500Y-12733500D02*
G75*
G02*
X27237500Y-12733500I75000J0D01*
G01*
X27087500Y-15516000D02*
X27237500Y-15666000D01*
X27237500Y-15516000D02*
X27087500Y-15666000D01*
X27237500Y-15591000D02*
G75*
G02*
X27087500Y-15591000I-75000J0D01*
G01*
X27087500Y-15591000D02*
G75*
G02*
X27237500Y-15591000I75000J0D01*
G01*
X27166875Y-23390000D02*
X27316875Y-23540000D01*
X27316875Y-23390000D02*
X27166875Y-23540000D01*
X27316875Y-23465000D02*
G75*
G02*
X27166875Y-23465000I-75000J0D01*
G01*
X27166875Y-23465000D02*
G75*
G02*
X27316875Y-23465000I75000J0D01*
G01*
X27405000Y-17675000D02*
X27555000Y-17825000D01*
X27555000Y-17675000D02*
X27405000Y-17825000D01*
X27555000Y-17750000D02*
G75*
G02*
X27405000Y-17750000I-75000J0D01*
G01*
X27405000Y-17750000D02*
G75*
G02*
X27555000Y-17750000I75000J0D01*
G01*
X27563750Y-21231000D02*
X27713750Y-21381000D01*
X27713750Y-21231000D02*
X27563750Y-21381000D01*
X27713750Y-21306000D02*
G75*
G02*
X27563750Y-21306000I-75000J0D01*
G01*
X27563750Y-21306000D02*
G75*
G02*
X27713750Y-21306000I75000J0D01*
G01*
X27801875Y-23136000D02*
X27951875Y-23286000D01*
X27951875Y-23136000D02*
X27801875Y-23286000D01*
X27951875Y-23211000D02*
G75*
G02*
X27801875Y-23211000I-75000J0D01*
G01*
X27801875Y-23211000D02*
G75*
G02*
X27951875Y-23211000I75000J0D01*
G01*
X27881250Y-19580000D02*
X28031250Y-19730000D01*
X28031250Y-19580000D02*
X27881250Y-19730000D01*
X28031250Y-19655000D02*
G75*
G02*
X27881250Y-19655000I-75000J0D01*
G01*
X27881250Y-19655000D02*
G75*
G02*
X28031250Y-19655000I75000J0D01*
G01*
X28040000Y-17421000D02*
X28190000Y-17571000D01*
X28190000Y-17421000D02*
X28040000Y-17571000D01*
X28190000Y-17496000D02*
G75*
G02*
X28040000Y-17496000I-75000J0D01*
G01*
X28040000Y-17496000D02*
G75*
G02*
X28190000Y-17496000I75000J0D01*
G01*
X28357500Y-12912500D02*
X28507500Y-13062500D01*
X28507500Y-12912500D02*
X28357500Y-13062500D01*
X28507500Y-12987500D02*
G75*
G02*
X28357500Y-12987500I-75000J0D01*
G01*
X28357500Y-12987500D02*
G75*
G02*
X28507500Y-12987500I75000J0D01*
G01*
X28357500Y-15770000D02*
X28507500Y-15920000D01*
X28507500Y-15770000D02*
X28357500Y-15920000D01*
X28507500Y-15845000D02*
G75*
G02*
X28357500Y-15845000I-75000J0D01*
G01*
X28357500Y-15845000D02*
G75*
G02*
X28507500Y-15845000I75000J0D01*
G01*
X28516250Y-19326000D02*
X28666250Y-19476000D01*
X28666250Y-19326000D02*
X28516250Y-19476000D01*
X28666250Y-19401000D02*
G75*
G02*
X28516250Y-19401000I-75000J0D01*
G01*
X28516250Y-19401000D02*
G75*
G02*
X28666250Y-19401000I75000J0D01*
G01*
X28992500Y-12658500D02*
X29142500Y-12808500D01*
X29142500Y-12658500D02*
X28992500Y-12808500D01*
X29142500Y-12733500D02*
G75*
G02*
X28992500Y-12733500I-75000J0D01*
G01*
X28992500Y-12733500D02*
G75*
G02*
X29142500Y-12733500I75000J0D01*
G01*
X28992500Y-15516000D02*
X29142500Y-15666000D01*
X29142500Y-15516000D02*
X28992500Y-15666000D01*
X29142500Y-15591000D02*
G75*
G02*
X28992500Y-15591000I-75000J0D01*
G01*
X28992500Y-15591000D02*
G75*
G02*
X29142500Y-15591000I75000J0D01*
G01*
X29310000Y-17675000D02*
X29460000Y-17825000D01*
X29460000Y-17675000D02*
X29310000Y-17825000D01*
X29460000Y-17750000D02*
G75*
G02*
X29310000Y-17750000I-75000J0D01*
G01*
X29310000Y-17750000D02*
G75*
G02*
X29460000Y-17750000I75000J0D01*
G01*
X29548125Y-23390000D02*
X29698125Y-23540000D01*
X29698125Y-23390000D02*
X29548125Y-23540000D01*
X29698125Y-23465000D02*
G75*
G02*
X29548125Y-23465000I-75000J0D01*
G01*
X29548125Y-23465000D02*
G75*
G02*
X29698125Y-23465000I75000J0D01*
G01*
X29945000Y-17421000D02*
X30095000Y-17571000D01*
X30095000Y-17421000D02*
X29945000Y-17571000D01*
X30095000Y-17496000D02*
G75*
G02*
X29945000Y-17496000I-75000J0D01*
G01*
X29945000Y-17496000D02*
G75*
G02*
X30095000Y-17496000I75000J0D01*
G01*
X30183125Y-23136000D02*
X30333125Y-23286000D01*
X30333125Y-23136000D02*
X30183125Y-23286000D01*
X30333125Y-23211000D02*
G75*
G02*
X30183125Y-23211000I-75000J0D01*
G01*
X30183125Y-23211000D02*
G75*
G02*
X30333125Y-23211000I75000J0D01*
G01*
X30262500Y-12912500D02*
X30412500Y-13062500D01*
X30412500Y-12912500D02*
X30262500Y-13062500D01*
X30412500Y-12987500D02*
G75*
G02*
X30262500Y-12987500I-75000J0D01*
G01*
X30262500Y-12987500D02*
G75*
G02*
X30412500Y-12987500I75000J0D01*
G01*
X30500625Y-21485000D02*
X30650625Y-21635000D01*
X30650625Y-21485000D02*
X30500625Y-21635000D01*
X30650625Y-21560000D02*
G75*
G02*
X30500625Y-21560000I-75000J0D01*
G01*
X30500625Y-21560000D02*
G75*
G02*
X30650625Y-21560000I75000J0D01*
G01*
X30897500Y-12658500D02*
X31047500Y-12808500D01*
X31047500Y-12658500D02*
X30897500Y-12808500D01*
X31047500Y-12733500D02*
G75*
G02*
X30897500Y-12733500I-75000J0D01*
G01*
X30897500Y-12733500D02*
G75*
G02*
X31047500Y-12733500I75000J0D01*
G01*
X30976875Y-19580000D02*
X31126875Y-19730000D01*
X31126875Y-19580000D02*
X30976875Y-19730000D01*
X31126875Y-19655000D02*
G75*
G02*
X30976875Y-19655000I-75000J0D01*
G01*
X30976875Y-19655000D02*
G75*
G02*
X31126875Y-19655000I75000J0D01*
G01*
X31135625Y-21231000D02*
X31285625Y-21381000D01*
X31285625Y-21231000D02*
X31135625Y-21381000D01*
X31285625Y-21306000D02*
G75*
G02*
X31135625Y-21306000I-75000J0D01*
G01*
X31135625Y-21306000D02*
G75*
G02*
X31285625Y-21306000I75000J0D01*
G01*
X31215000Y-15770000D02*
X31365000Y-15920000D01*
X31365000Y-15770000D02*
X31215000Y-15920000D01*
X31365000Y-15845000D02*
G75*
G02*
X31215000Y-15845000I-75000J0D01*
G01*
X31215000Y-15845000D02*
G75*
G02*
X31365000Y-15845000I75000J0D01*
G01*
X31611875Y-19326000D02*
X31761875Y-19476000D01*
X31761875Y-19326000D02*
X31611875Y-19476000D01*
X31761875Y-19401000D02*
G75*
G02*
X31611875Y-19401000I-75000J0D01*
G01*
X31611875Y-19401000D02*
G75*
G02*
X31761875Y-19401000I75000J0D01*
G01*
X31691250Y-17675000D02*
X31841250Y-17825000D01*
X31841250Y-17675000D02*
X31691250Y-17825000D01*
X31841250Y-17750000D02*
G75*
G02*
X31691250Y-17750000I-75000J0D01*
G01*
X31691250Y-17750000D02*
G75*
G02*
X31841250Y-17750000I75000J0D01*
G01*
X31850000Y-15516000D02*
X32000000Y-15666000D01*
X32000000Y-15516000D02*
X31850000Y-15666000D01*
X32000000Y-15591000D02*
G75*
G02*
X31850000Y-15591000I-75000J0D01*
G01*
X31850000Y-15591000D02*
G75*
G02*
X32000000Y-15591000I75000J0D01*
G01*
X31929375Y-23390000D02*
X32079375Y-23540000D01*
X32079375Y-23390000D02*
X31929375Y-23540000D01*
X32079375Y-23465000D02*
G75*
G02*
X31929375Y-23465000I-75000J0D01*
G01*
X31929375Y-23465000D02*
G75*
G02*
X32079375Y-23465000I75000J0D01*
G01*
X32167500Y-12912500D02*
X32317500Y-13062500D01*
X32317500Y-12912500D02*
X32167500Y-13062500D01*
X32317500Y-12987500D02*
G75*
G02*
X32167500Y-12987500I-75000J0D01*
G01*
X32167500Y-12987500D02*
G75*
G02*
X32317500Y-12987500I75000J0D01*
G01*
X32326250Y-17421000D02*
X32476250Y-17571000D01*
X32476250Y-17421000D02*
X32326250Y-17571000D01*
X32476250Y-17496000D02*
G75*
G02*
X32326250Y-17496000I-75000J0D01*
G01*
X32326250Y-17496000D02*
G75*
G02*
X32476250Y-17496000I75000J0D01*
G01*
X32564375Y-23136000D02*
X32714375Y-23286000D01*
X32714375Y-23136000D02*
X32564375Y-23286000D01*
X32714375Y-23211000D02*
G75*
G02*
X32564375Y-23211000I-75000J0D01*
G01*
X32564375Y-23211000D02*
G75*
G02*
X32714375Y-23211000I75000J0D01*
G01*
X32802500Y-12658500D02*
X32952500Y-12808500D01*
X32952500Y-12658500D02*
X32802500Y-12808500D01*
X32952500Y-12733500D02*
G75*
G02*
X32802500Y-12733500I-75000J0D01*
G01*
X32802500Y-12733500D02*
G75*
G02*
X32952500Y-12733500I75000J0D01*
G01*
X34548750Y-12912500D02*
X34698750Y-13062500D01*
X34698750Y-12912500D02*
X34548750Y-13062500D01*
X34698750Y-12987500D02*
G75*
G02*
X34548750Y-12987500I-75000J0D01*
G01*
X34548750Y-12987500D02*
G75*
G02*
X34698750Y-12987500I75000J0D01*
G01*
X34548750Y-15770000D02*
X34698750Y-15920000D01*
X34698750Y-15770000D02*
X34548750Y-15920000D01*
X34698750Y-15845000D02*
G75*
G02*
X34548750Y-15845000I-75000J0D01*
G01*
X34548750Y-15845000D02*
G75*
G02*
X34698750Y-15845000I75000J0D01*
G01*
X34548750Y-17675000D02*
X34698750Y-17825000D01*
X34698750Y-17675000D02*
X34548750Y-17825000D01*
X34698750Y-17750000D02*
G75*
G02*
X34548750Y-17750000I-75000J0D01*
G01*
X34548750Y-17750000D02*
G75*
G02*
X34698750Y-17750000I75000J0D01*
G01*
X34548750Y-23390000D02*
X34698750Y-23540000D01*
X34698750Y-23390000D02*
X34548750Y-23540000D01*
X34698750Y-23465000D02*
G75*
G02*
X34548750Y-23465000I-75000J0D01*
G01*
X34548750Y-23465000D02*
G75*
G02*
X34698750Y-23465000I75000J0D01*
G01*
X35183750Y-12658500D02*
X35333750Y-12808500D01*
X35333750Y-12658500D02*
X35183750Y-12808500D01*
X35333750Y-12733500D02*
G75*
G02*
X35183750Y-12733500I-75000J0D01*
G01*
X35183750Y-12733500D02*
G75*
G02*
X35333750Y-12733500I75000J0D01*
G01*
X35183750Y-15516000D02*
X35333750Y-15666000D01*
X35333750Y-15516000D02*
X35183750Y-15666000D01*
X35333750Y-15591000D02*
G75*
G02*
X35183750Y-15591000I-75000J0D01*
G01*
X35183750Y-15591000D02*
G75*
G02*
X35333750Y-15591000I75000J0D01*
G01*
X35183750Y-17421000D02*
X35333750Y-17571000D01*
X35333750Y-17421000D02*
X35183750Y-17571000D01*
X35333750Y-17496000D02*
G75*
G02*
X35183750Y-17496000I-75000J0D01*
G01*
X35183750Y-17496000D02*
G75*
G02*
X35333750Y-17496000I75000J0D01*
G01*
X35183750Y-23136000D02*
X35333750Y-23286000D01*
X35333750Y-23136000D02*
X35183750Y-23286000D01*
X35333750Y-23211000D02*
G75*
G02*
X35183750Y-23211000I-75000J0D01*
G01*
X35183750Y-23211000D02*
G75*
G02*
X35333750Y-23211000I75000J0D01*
G01*
X36453750Y-12912500D02*
X36603750Y-13062500D01*
X36603750Y-12912500D02*
X36453750Y-13062500D01*
X36603750Y-12987500D02*
G75*
G02*
X36453750Y-12987500I-75000J0D01*
G01*
X36453750Y-12987500D02*
G75*
G02*
X36603750Y-12987500I75000J0D01*
G01*
X36453750Y-15770000D02*
X36603750Y-15920000D01*
X36603750Y-15770000D02*
X36453750Y-15920000D01*
X36603750Y-15845000D02*
G75*
G02*
X36453750Y-15845000I-75000J0D01*
G01*
X36453750Y-15845000D02*
G75*
G02*
X36603750Y-15845000I75000J0D01*
G01*
X36453750Y-17675000D02*
X36603750Y-17825000D01*
X36603750Y-17675000D02*
X36453750Y-17825000D01*
X36603750Y-17750000D02*
G75*
G02*
X36453750Y-17750000I-75000J0D01*
G01*
X36453750Y-17750000D02*
G75*
G02*
X36603750Y-17750000I75000J0D01*
G01*
X36453750Y-21485000D02*
X36603750Y-21635000D01*
X36603750Y-21485000D02*
X36453750Y-21635000D01*
X36603750Y-21560000D02*
G75*
G02*
X36453750Y-21560000I-75000J0D01*
G01*
X36453750Y-21560000D02*
G75*
G02*
X36603750Y-21560000I75000J0D01*
G01*
X36453750Y-23390000D02*
X36603750Y-23540000D01*
X36603750Y-23390000D02*
X36453750Y-23540000D01*
X36603750Y-23465000D02*
G75*
G02*
X36453750Y-23465000I-75000J0D01*
G01*
X36453750Y-23465000D02*
G75*
G02*
X36603750Y-23465000I75000J0D01*
G01*
X37088750Y-12658500D02*
X37238750Y-12808500D01*
X37238750Y-12658500D02*
X37088750Y-12808500D01*
X37238750Y-12733500D02*
G75*
G02*
X37088750Y-12733500I-75000J0D01*
G01*
X37088750Y-12733500D02*
G75*
G02*
X37238750Y-12733500I75000J0D01*
G01*
X37088750Y-15516000D02*
X37238750Y-15666000D01*
X37238750Y-15516000D02*
X37088750Y-15666000D01*
X37238750Y-15591000D02*
G75*
G02*
X37088750Y-15591000I-75000J0D01*
G01*
X37088750Y-15591000D02*
G75*
G02*
X37238750Y-15591000I75000J0D01*
G01*
X37088750Y-17421000D02*
X37238750Y-17571000D01*
X37238750Y-17421000D02*
X37088750Y-17571000D01*
X37238750Y-17496000D02*
G75*
G02*
X37088750Y-17496000I-75000J0D01*
G01*
X37088750Y-17496000D02*
G75*
G02*
X37238750Y-17496000I75000J0D01*
G01*
X37088750Y-21231000D02*
X37238750Y-21381000D01*
X37238750Y-21231000D02*
X37088750Y-21381000D01*
X37238750Y-21306000D02*
G75*
G02*
X37088750Y-21306000I-75000J0D01*
G01*
X37088750Y-21306000D02*
G75*
G02*
X37238750Y-21306000I75000J0D01*
G01*
X37088750Y-23136000D02*
X37238750Y-23286000D01*
X37238750Y-23136000D02*
X37088750Y-23286000D01*
X37238750Y-23211000D02*
G75*
G02*
X37088750Y-23211000I-75000J0D01*
G01*
X37088750Y-23211000D02*
G75*
G02*
X37238750Y-23211000I75000J0D01*
G01*
X38358750Y-12912500D02*
X38508750Y-13062500D01*
X38508750Y-12912500D02*
X38358750Y-13062500D01*
X38508750Y-12987500D02*
G75*
G02*
X38358750Y-12987500I-75000J0D01*
G01*
X38358750Y-12987500D02*
G75*
G02*
X38508750Y-12987500I75000J0D01*
G01*
X38358750Y-15770000D02*
X38508750Y-15920000D01*
X38508750Y-15770000D02*
X38358750Y-15920000D01*
X38508750Y-15845000D02*
G75*
G02*
X38358750Y-15845000I-75000J0D01*
G01*
X38358750Y-15845000D02*
G75*
G02*
X38508750Y-15845000I75000J0D01*
G01*
X38358750Y-17675000D02*
X38508750Y-17825000D01*
X38508750Y-17675000D02*
X38358750Y-17825000D01*
X38508750Y-17750000D02*
G75*
G02*
X38358750Y-17750000I-75000J0D01*
G01*
X38358750Y-17750000D02*
G75*
G02*
X38508750Y-17750000I75000J0D01*
G01*
X38358750Y-23390000D02*
X38508750Y-23540000D01*
X38508750Y-23390000D02*
X38358750Y-23540000D01*
X38508750Y-23465000D02*
G75*
G02*
X38358750Y-23465000I-75000J0D01*
G01*
X38358750Y-23465000D02*
G75*
G02*
X38508750Y-23465000I75000J0D01*
G01*
X38993750Y-12658500D02*
X39143750Y-12808500D01*
X39143750Y-12658500D02*
X38993750Y-12808500D01*
X39143750Y-12733500D02*
G75*
G02*
X38993750Y-12733500I-75000J0D01*
G01*
X38993750Y-12733500D02*
G75*
G02*
X39143750Y-12733500I75000J0D01*
G01*
X38993750Y-15516000D02*
X39143750Y-15666000D01*
X39143750Y-15516000D02*
X38993750Y-15666000D01*
X39143750Y-15591000D02*
G75*
G02*
X38993750Y-15591000I-75000J0D01*
G01*
X38993750Y-15591000D02*
G75*
G02*
X39143750Y-15591000I75000J0D01*
G01*
X38993750Y-17421000D02*
X39143750Y-17571000D01*
X39143750Y-17421000D02*
X38993750Y-17571000D01*
X39143750Y-17496000D02*
G75*
G02*
X38993750Y-17496000I-75000J0D01*
G01*
X38993750Y-17496000D02*
G75*
G02*
X39143750Y-17496000I75000J0D01*
G01*
X38993750Y-23136000D02*
X39143750Y-23286000D01*
X39143750Y-23136000D02*
X38993750Y-23286000D01*
X39143750Y-23211000D02*
G75*
G02*
X38993750Y-23211000I-75000J0D01*
G01*
X38993750Y-23211000D02*
G75*
G02*
X39143750Y-23211000I75000J0D01*
G01*
X40740000Y-15770000D02*
X40890000Y-15920000D01*
X40890000Y-15770000D02*
X40740000Y-15920000D01*
X40890000Y-15845000D02*
G75*
G02*
X40740000Y-15845000I-75000J0D01*
G01*
X40740000Y-15845000D02*
G75*
G02*
X40890000Y-15845000I75000J0D01*
G01*
X40740000Y-17675000D02*
X40890000Y-17825000D01*
X40890000Y-17675000D02*
X40740000Y-17825000D01*
X40890000Y-17750000D02*
G75*
G02*
X40740000Y-17750000I-75000J0D01*
G01*
X40740000Y-17750000D02*
G75*
G02*
X40890000Y-17750000I75000J0D01*
G01*
X40740000Y-19580000D02*
X40890000Y-19730000D01*
X40890000Y-19580000D02*
X40740000Y-19730000D01*
X40890000Y-19655000D02*
G75*
G02*
X40740000Y-19655000I-75000J0D01*
G01*
X40740000Y-19655000D02*
G75*
G02*
X40890000Y-19655000I75000J0D01*
G01*
X40740000Y-21485000D02*
X40890000Y-21635000D01*
X40890000Y-21485000D02*
X40740000Y-21635000D01*
X40890000Y-21560000D02*
G75*
G02*
X40740000Y-21560000I-75000J0D01*
G01*
X40740000Y-21560000D02*
G75*
G02*
X40890000Y-21560000I75000J0D01*
G01*
X41375000Y-15516000D02*
X41525000Y-15666000D01*
X41525000Y-15516000D02*
X41375000Y-15666000D01*
X41525000Y-15591000D02*
G75*
G02*
X41375000Y-15591000I-75000J0D01*
G01*
X41375000Y-15591000D02*
G75*
G02*
X41525000Y-15591000I75000J0D01*
G01*
X41375000Y-17421000D02*
X41525000Y-17571000D01*
X41525000Y-17421000D02*
X41375000Y-17571000D01*
X41525000Y-17496000D02*
G75*
G02*
X41375000Y-17496000I-75000J0D01*
G01*
X41375000Y-17496000D02*
G75*
G02*
X41525000Y-17496000I75000J0D01*
G01*
X41375000Y-19326000D02*
X41525000Y-19476000D01*
X41525000Y-19326000D02*
X41375000Y-19476000D01*
X41525000Y-19401000D02*
G75*
G02*
X41375000Y-19401000I-75000J0D01*
G01*
X41375000Y-19401000D02*
G75*
G02*
X41525000Y-19401000I75000J0D01*
G01*
X41375000Y-21231000D02*
X41525000Y-21381000D01*
X41525000Y-21231000D02*
X41375000Y-21381000D01*
X41525000Y-21306000D02*
G75*
G02*
X41375000Y-21306000I-75000J0D01*
G01*
X41375000Y-21306000D02*
G75*
G02*
X41525000Y-21306000I75000J0D01*
G01*
X41692500Y-23390000D02*
X41842500Y-23540000D01*
X41842500Y-23390000D02*
X41692500Y-23540000D01*
X41842500Y-23465000D02*
G75*
G02*
X41692500Y-23465000I-75000J0D01*
G01*
X41692500Y-23465000D02*
G75*
G02*
X41842500Y-23465000I75000J0D01*
G01*
X42327500Y-23136000D02*
X42477500Y-23286000D01*
X42477500Y-23136000D02*
X42327500Y-23286000D01*
X42477500Y-23211000D02*
G75*
G02*
X42327500Y-23211000I-75000J0D01*
G01*
X42327500Y-23211000D02*
G75*
G02*
X42477500Y-23211000I75000J0D01*
G01*
X42645000Y-15770000D02*
X42795000Y-15920000D01*
X42795000Y-15770000D02*
X42645000Y-15920000D01*
X42795000Y-15845000D02*
G75*
G02*
X42645000Y-15845000I-75000J0D01*
G01*
X42645000Y-15845000D02*
G75*
G02*
X42795000Y-15845000I75000J0D01*
G01*
X42645000Y-17675000D02*
X42795000Y-17825000D01*
X42795000Y-17675000D02*
X42645000Y-17825000D01*
X42795000Y-17750000D02*
G75*
G02*
X42645000Y-17750000I-75000J0D01*
G01*
X42645000Y-17750000D02*
G75*
G02*
X42795000Y-17750000I75000J0D01*
G01*
X42645000Y-19580000D02*
X42795000Y-19730000D01*
X42795000Y-19580000D02*
X42645000Y-19730000D01*
X42795000Y-19655000D02*
G75*
G02*
X42645000Y-19655000I-75000J0D01*
G01*
X42645000Y-19655000D02*
G75*
G02*
X42795000Y-19655000I75000J0D01*
G01*
X42645000Y-21485000D02*
X42795000Y-21635000D01*
X42795000Y-21485000D02*
X42645000Y-21635000D01*
X42795000Y-21560000D02*
G75*
G02*
X42645000Y-21560000I-75000J0D01*
G01*
X42645000Y-21560000D02*
G75*
G02*
X42795000Y-21560000I75000J0D01*
G01*
X43280000Y-15516000D02*
X43430000Y-15666000D01*
X43430000Y-15516000D02*
X43280000Y-15666000D01*
X43430000Y-15591000D02*
G75*
G02*
X43280000Y-15591000I-75000J0D01*
G01*
X43280000Y-15591000D02*
G75*
G02*
X43430000Y-15591000I75000J0D01*
G01*
X43280000Y-17421000D02*
X43430000Y-17571000D01*
X43430000Y-17421000D02*
X43280000Y-17571000D01*
X43430000Y-17496000D02*
G75*
G02*
X43280000Y-17496000I-75000J0D01*
G01*
X43280000Y-17496000D02*
G75*
G02*
X43430000Y-17496000I75000J0D01*
G01*
X43280000Y-19326000D02*
X43430000Y-19476000D01*
X43430000Y-19326000D02*
X43280000Y-19476000D01*
X43430000Y-19401000D02*
G75*
G02*
X43280000Y-19401000I-75000J0D01*
G01*
X43280000Y-19401000D02*
G75*
G02*
X43430000Y-19401000I75000J0D01*
G01*
X43280000Y-21231000D02*
X43430000Y-21381000D01*
X43430000Y-21231000D02*
X43280000Y-21381000D01*
X43430000Y-21306000D02*
G75*
G02*
X43280000Y-21306000I-75000J0D01*
G01*
X43280000Y-21306000D02*
G75*
G02*
X43430000Y-21306000I75000J0D01*
G01*
X44550000Y-15770000D02*
X44700000Y-15920000D01*
X44700000Y-15770000D02*
X44550000Y-15920000D01*
X44700000Y-15845000D02*
G75*
G02*
X44550000Y-15845000I-75000J0D01*
G01*
X44550000Y-15845000D02*
G75*
G02*
X44700000Y-15845000I75000J0D01*
G01*
X44550000Y-17675000D02*
X44700000Y-17825000D01*
X44700000Y-17675000D02*
X44550000Y-17825000D01*
X44700000Y-17750000D02*
G75*
G02*
X44550000Y-17750000I-75000J0D01*
G01*
X44550000Y-17750000D02*
G75*
G02*
X44700000Y-17750000I75000J0D01*
G01*
X44550000Y-19580000D02*
X44700000Y-19730000D01*
X44700000Y-19580000D02*
X44550000Y-19730000D01*
X44700000Y-19655000D02*
G75*
G02*
X44550000Y-19655000I-75000J0D01*
G01*
X44550000Y-19655000D02*
G75*
G02*
X44700000Y-19655000I75000J0D01*
G01*
X44550000Y-21485000D02*
X44700000Y-21635000D01*
X44700000Y-21485000D02*
X44550000Y-21635000D01*
X44700000Y-21560000D02*
G75*
G02*
X44550000Y-21560000I-75000J0D01*
G01*
X44550000Y-21560000D02*
G75*
G02*
X44700000Y-21560000I75000J0D01*
G01*
X44550000Y-23390000D02*
X44700000Y-23540000D01*
X44700000Y-23390000D02*
X44550000Y-23540000D01*
X44700000Y-23465000D02*
G75*
G02*
X44550000Y-23465000I-75000J0D01*
G01*
X44550000Y-23465000D02*
G75*
G02*
X44700000Y-23465000I75000J0D01*
G01*
X44600000Y-12615000D02*
X44750000Y-12765000D01*
X44750000Y-12615000D02*
X44600000Y-12765000D01*
X44750000Y-12690000D02*
G75*
G02*
X44600000Y-12690000I-75000J0D01*
G01*
X44600000Y-12690000D02*
G75*
G02*
X44750000Y-12690000I75000J0D01*
G01*
D12*
X44740000Y-12615000D02*
X44610000Y-12615000D01*
X44610000Y-12765000D02*
G75*
G02*
X44610000Y-12615000I0J75000D01*
G01*
X44610000Y-12765000D02*
X44740000Y-12765000D01*
X44740000Y-12765000D02*
G75*
G03*
X44740000Y-12615000I0J75000D01*
G01*
D14*
X44600000Y-13735000D02*
X44750000Y-13885000D01*
X44750000Y-13735000D02*
X44600000Y-13885000D01*
X44750000Y-13810000D02*
G75*
G02*
X44600000Y-13810000I-75000J0D01*
G01*
X44600000Y-13810000D02*
G75*
G02*
X44750000Y-13810000I75000J0D01*
G01*
D12*
X44740000Y-13735000D02*
X44610000Y-13735000D01*
X44610000Y-13885000D02*
G75*
G02*
X44610000Y-13735000I0J75000D01*
G01*
X44610000Y-13885000D02*
X44740000Y-13885000D01*
X44740000Y-13885000D02*
G75*
G03*
X44740000Y-13735000I0J75000D01*
G01*
D14*
X45185000Y-15516000D02*
X45335000Y-15666000D01*
X45335000Y-15516000D02*
X45185000Y-15666000D01*
X45335000Y-15591000D02*
G75*
G02*
X45185000Y-15591000I-75000J0D01*
G01*
X45185000Y-15591000D02*
G75*
G02*
X45335000Y-15591000I75000J0D01*
G01*
X45185000Y-17421000D02*
X45335000Y-17571000D01*
X45335000Y-17421000D02*
X45185000Y-17571000D01*
X45335000Y-17496000D02*
G75*
G02*
X45185000Y-17496000I-75000J0D01*
G01*
X45185000Y-17496000D02*
G75*
G02*
X45335000Y-17496000I75000J0D01*
G01*
X45185000Y-19326000D02*
X45335000Y-19476000D01*
X45335000Y-19326000D02*
X45185000Y-19476000D01*
X45335000Y-19401000D02*
G75*
G02*
X45185000Y-19401000I-75000J0D01*
G01*
X45185000Y-19401000D02*
G75*
G02*
X45335000Y-19401000I75000J0D01*
G01*
X45185000Y-21231000D02*
X45335000Y-21381000D01*
X45335000Y-21231000D02*
X45185000Y-21381000D01*
X45335000Y-21306000D02*
G75*
G02*
X45185000Y-21306000I-75000J0D01*
G01*
X45185000Y-21306000D02*
G75*
G02*
X45335000Y-21306000I75000J0D01*
G01*
X45185000Y-23136000D02*
X45335000Y-23286000D01*
X45335000Y-23136000D02*
X45185000Y-23286000D01*
X45335000Y-23211000D02*
G75*
G02*
X45185000Y-23211000I-75000J0D01*
G01*
X45185000Y-23211000D02*
G75*
G02*
X45335000Y-23211000I75000J0D01*
G01*
X46455000Y-15770000D02*
X46605000Y-15920000D01*
X46605000Y-15770000D02*
X46455000Y-15920000D01*
X46605000Y-15845000D02*
G75*
G02*
X46455000Y-15845000I-75000J0D01*
G01*
X46455000Y-15845000D02*
G75*
G02*
X46605000Y-15845000I75000J0D01*
G01*
X46455000Y-18627500D02*
X46605000Y-18777500D01*
X46605000Y-18627500D02*
X46455000Y-18777500D01*
X46605000Y-18702500D02*
G75*
G02*
X46455000Y-18702500I-75000J0D01*
G01*
X46455000Y-18702500D02*
G75*
G02*
X46605000Y-18702500I75000J0D01*
G01*
X46455000Y-22437500D02*
X46605000Y-22587500D01*
X46605000Y-22437500D02*
X46455000Y-22587500D01*
X46605000Y-22512500D02*
G75*
G02*
X46455000Y-22512500I-75000J0D01*
G01*
X46455000Y-22512500D02*
G75*
G02*
X46605000Y-22512500I75000J0D01*
G01*
X46625000Y-12615000D02*
X46775000Y-12765000D01*
X46775000Y-12615000D02*
X46625000Y-12765000D01*
X46775000Y-12690000D02*
G75*
G02*
X46625000Y-12690000I-75000J0D01*
G01*
X46625000Y-12690000D02*
G75*
G02*
X46775000Y-12690000I75000J0D01*
G01*
D12*
X46635000Y-12765000D02*
X46765000Y-12765000D01*
X46765000Y-12615000D02*
G75*
G02*
X46765000Y-12765000I0J-75000D01*
G01*
X46765000Y-12615000D02*
X46635000Y-12615000D01*
X46635000Y-12615000D02*
G75*
G03*
X46635000Y-12765000I0J-75000D01*
G01*
D14*
X46625000Y-13735000D02*
X46775000Y-13885000D01*
X46775000Y-13735000D02*
X46625000Y-13885000D01*
X46775000Y-13810000D02*
G75*
G02*
X46625000Y-13810000I-75000J0D01*
G01*
X46625000Y-13810000D02*
G75*
G02*
X46775000Y-13810000I75000J0D01*
G01*
D12*
X46635000Y-13885000D02*
X46765000Y-13885000D01*
X46765000Y-13735000D02*
G75*
G02*
X46765000Y-13885000I0J-75000D01*
G01*
X46765000Y-13735000D02*
X46635000Y-13735000D01*
X46635000Y-13735000D02*
G75*
G03*
X46635000Y-13885000I0J-75000D01*
G01*
D14*
X47090000Y-15516000D02*
X47240000Y-15666000D01*
X47240000Y-15516000D02*
X47090000Y-15666000D01*
X47240000Y-15591000D02*
G75*
G02*
X47090000Y-15591000I-75000J0D01*
G01*
X47090000Y-15591000D02*
G75*
G02*
X47240000Y-15591000I75000J0D01*
G01*
X47090000Y-18373500D02*
X47240000Y-18523500D01*
X47240000Y-18373500D02*
X47090000Y-18523500D01*
X47240000Y-18448500D02*
G75*
G02*
X47090000Y-18448500I-75000J0D01*
G01*
X47090000Y-18448500D02*
G75*
G02*
X47240000Y-18448500I75000J0D01*
G01*
X47090000Y-22183500D02*
X47240000Y-22333500D01*
X47240000Y-22183500D02*
X47090000Y-22333500D01*
X47240000Y-22258500D02*
G75*
G02*
X47090000Y-22258500I-75000J0D01*
G01*
X47090000Y-22258500D02*
G75*
G02*
X47240000Y-22258500I75000J0D01*
G01*
D11*
X2208277Y-25813984D02*
X2208277Y-25613984D01*
X2208277Y-25613984D02*
X2255896Y-25613984D01*
X2255896Y-25613984D02*
X2284467Y-25623508D01*
X2284467Y-25623508D02*
X2303515Y-25642555D01*
X2303515Y-25642555D02*
X2313039Y-25661603D01*
X2313039Y-25661603D02*
X2322563Y-25699698D01*
X2322563Y-25699698D02*
X2322563Y-25728269D01*
X2322563Y-25728269D02*
X2313039Y-25766365D01*
X2313039Y-25766365D02*
X2303515Y-25785412D01*
X2303515Y-25785412D02*
X2284467Y-25804460D01*
X2284467Y-25804460D02*
X2255896Y-25813984D01*
X2255896Y-25813984D02*
X2208277Y-25813984D01*
X2408277Y-25813984D02*
X2408277Y-25680650D01*
X2408277Y-25718746D02*
X2417801Y-25699698D01*
X2417801Y-25699698D02*
X2427324Y-25690174D01*
X2427324Y-25690174D02*
X2446372Y-25680650D01*
X2446372Y-25680650D02*
X2465420Y-25680650D01*
X2532086Y-25813984D02*
X2532086Y-25680650D01*
X2532086Y-25613984D02*
X2522563Y-25623508D01*
X2522563Y-25623508D02*
X2532086Y-25633031D01*
X2532086Y-25633031D02*
X2541610Y-25623508D01*
X2541610Y-25623508D02*
X2532086Y-25613984D01*
X2532086Y-25613984D02*
X2532086Y-25633031D01*
X2655896Y-25813984D02*
X2636848Y-25804460D01*
X2636848Y-25804460D02*
X2627324Y-25785412D01*
X2627324Y-25785412D02*
X2627324Y-25613984D01*
X2760658Y-25813984D02*
X2741610Y-25804460D01*
X2741610Y-25804460D02*
X2732086Y-25785412D01*
X2732086Y-25785412D02*
X2732086Y-25613984D01*
X2989229Y-25813984D02*
X2989229Y-25613984D01*
X2989229Y-25613984D02*
X3055896Y-25756841D01*
X3055896Y-25756841D02*
X3122562Y-25613984D01*
X3122562Y-25613984D02*
X3122562Y-25813984D01*
X3303515Y-25813984D02*
X3303515Y-25709222D01*
X3303515Y-25709222D02*
X3293991Y-25690174D01*
X3293991Y-25690174D02*
X3274943Y-25680650D01*
X3274943Y-25680650D02*
X3236848Y-25680650D01*
X3236848Y-25680650D02*
X3217801Y-25690174D01*
X3303515Y-25804460D02*
X3284467Y-25813984D01*
X3284467Y-25813984D02*
X3236848Y-25813984D01*
X3236848Y-25813984D02*
X3217801Y-25804460D01*
X3217801Y-25804460D02*
X3208277Y-25785412D01*
X3208277Y-25785412D02*
X3208277Y-25766365D01*
X3208277Y-25766365D02*
X3217801Y-25747317D01*
X3217801Y-25747317D02*
X3236848Y-25737793D01*
X3236848Y-25737793D02*
X3284467Y-25737793D01*
X3284467Y-25737793D02*
X3303515Y-25728269D01*
X3398753Y-25680650D02*
X3398753Y-25880650D01*
X3398753Y-25690174D02*
X3417801Y-25680650D01*
X3417801Y-25680650D02*
X3455896Y-25680650D01*
X3455896Y-25680650D02*
X3474943Y-25690174D01*
X3474943Y-25690174D02*
X3484467Y-25699698D01*
X3484467Y-25699698D02*
X3493991Y-25718746D01*
X3493991Y-25718746D02*
X3493991Y-25775888D01*
X3493991Y-25775888D02*
X3484467Y-25794936D01*
X3484467Y-25794936D02*
X3474943Y-25804460D01*
X3474943Y-25804460D02*
X3455896Y-25813984D01*
X3455896Y-25813984D02*
X3417801Y-25813984D01*
X3417801Y-25813984D02*
X3398753Y-25804460D01*
X3579705Y-25794936D02*
X3589229Y-25804460D01*
X3589229Y-25804460D02*
X3579705Y-25813984D01*
X3579705Y-25813984D02*
X3570182Y-25804460D01*
X3570182Y-25804460D02*
X3579705Y-25794936D01*
X3579705Y-25794936D02*
X3579705Y-25813984D01*
X3579705Y-25690174D02*
X3589229Y-25699698D01*
X3589229Y-25699698D02*
X3579705Y-25709222D01*
X3579705Y-25709222D02*
X3570182Y-25699698D01*
X3570182Y-25699698D02*
X3579705Y-25690174D01*
X3579705Y-25690174D02*
X3579705Y-25709222D01*
D12*
X1917500Y-26127500D02*
X1947500Y-26157500D01*
X1947500Y-26127500D02*
X1917500Y-26157500D01*
D11*
X2246372Y-26033984D02*
X2265420Y-26033984D01*
X2265420Y-26033984D02*
X2284467Y-26043508D01*
X2284467Y-26043508D02*
X2293991Y-26053031D01*
X2293991Y-26053031D02*
X2303515Y-26072079D01*
X2303515Y-26072079D02*
X2313039Y-26110174D01*
X2313039Y-26110174D02*
X2313039Y-26157793D01*
X2313039Y-26157793D02*
X2303515Y-26195888D01*
X2303515Y-26195888D02*
X2293991Y-26214936D01*
X2293991Y-26214936D02*
X2284467Y-26224460D01*
X2284467Y-26224460D02*
X2265420Y-26233984D01*
X2265420Y-26233984D02*
X2246372Y-26233984D01*
X2246372Y-26233984D02*
X2227324Y-26224460D01*
X2227324Y-26224460D02*
X2217801Y-26214936D01*
X2217801Y-26214936D02*
X2208277Y-26195888D01*
X2208277Y-26195888D02*
X2198753Y-26157793D01*
X2198753Y-26157793D02*
X2198753Y-26110174D01*
X2198753Y-26110174D02*
X2208277Y-26072079D01*
X2208277Y-26072079D02*
X2217801Y-26053031D01*
X2217801Y-26053031D02*
X2227324Y-26043508D01*
X2227324Y-26043508D02*
X2246372Y-26033984D01*
X2398753Y-26214936D02*
X2408277Y-26224460D01*
X2408277Y-26224460D02*
X2398753Y-26233984D01*
X2398753Y-26233984D02*
X2389229Y-26224460D01*
X2389229Y-26224460D02*
X2398753Y-26214936D01*
X2398753Y-26214936D02*
X2398753Y-26233984D01*
X2474944Y-26033984D02*
X2598753Y-26033984D01*
X2598753Y-26033984D02*
X2532086Y-26110174D01*
X2532086Y-26110174D02*
X2560658Y-26110174D01*
X2560658Y-26110174D02*
X2579705Y-26119698D01*
X2579705Y-26119698D02*
X2589229Y-26129222D01*
X2589229Y-26129222D02*
X2598753Y-26148269D01*
X2598753Y-26148269D02*
X2598753Y-26195888D01*
X2598753Y-26195888D02*
X2589229Y-26214936D01*
X2589229Y-26214936D02*
X2579705Y-26224460D01*
X2579705Y-26224460D02*
X2560658Y-26233984D01*
X2560658Y-26233984D02*
X2503515Y-26233984D01*
X2503515Y-26233984D02*
X2484467Y-26224460D01*
X2484467Y-26224460D02*
X2474944Y-26214936D01*
X2722563Y-26033984D02*
X2741610Y-26033984D01*
X2741610Y-26033984D02*
X2760658Y-26043508D01*
X2760658Y-26043508D02*
X2770182Y-26053031D01*
X2770182Y-26053031D02*
X2779705Y-26072079D01*
X2779705Y-26072079D02*
X2789229Y-26110174D01*
X2789229Y-26110174D02*
X2789229Y-26157793D01*
X2789229Y-26157793D02*
X2779705Y-26195888D01*
X2779705Y-26195888D02*
X2770182Y-26214936D01*
X2770182Y-26214936D02*
X2760658Y-26224460D01*
X2760658Y-26224460D02*
X2741610Y-26233984D01*
X2741610Y-26233984D02*
X2722563Y-26233984D01*
X2722563Y-26233984D02*
X2703515Y-26224460D01*
X2703515Y-26224460D02*
X2693991Y-26214936D01*
X2693991Y-26214936D02*
X2684467Y-26195888D01*
X2684467Y-26195888D02*
X2674944Y-26157793D01*
X2674944Y-26157793D02*
X2674944Y-26110174D01*
X2674944Y-26110174D02*
X2684467Y-26072079D01*
X2684467Y-26072079D02*
X2693991Y-26053031D01*
X2693991Y-26053031D02*
X2703515Y-26043508D01*
X2703515Y-26043508D02*
X2722563Y-26033984D01*
X2913039Y-26033984D02*
X2932086Y-26033984D01*
X2932086Y-26033984D02*
X2951134Y-26043508D01*
X2951134Y-26043508D02*
X2960658Y-26053031D01*
X2960658Y-26053031D02*
X2970182Y-26072079D01*
X2970182Y-26072079D02*
X2979705Y-26110174D01*
X2979705Y-26110174D02*
X2979705Y-26157793D01*
X2979705Y-26157793D02*
X2970182Y-26195888D01*
X2970182Y-26195888D02*
X2960658Y-26214936D01*
X2960658Y-26214936D02*
X2951134Y-26224460D01*
X2951134Y-26224460D02*
X2932086Y-26233984D01*
X2932086Y-26233984D02*
X2913039Y-26233984D01*
X2913039Y-26233984D02*
X2893991Y-26224460D01*
X2893991Y-26224460D02*
X2884467Y-26214936D01*
X2884467Y-26214936D02*
X2874943Y-26195888D01*
X2874943Y-26195888D02*
X2865420Y-26157793D01*
X2865420Y-26157793D02*
X2865420Y-26110174D01*
X2865420Y-26110174D02*
X2874943Y-26072079D01*
X2874943Y-26072079D02*
X2884467Y-26053031D01*
X2884467Y-26053031D02*
X2893991Y-26043508D01*
X2893991Y-26043508D02*
X2913039Y-26033984D01*
X3065420Y-26233984D02*
X3065420Y-26100650D01*
X3065420Y-26119698D02*
X3074943Y-26110174D01*
X3074943Y-26110174D02*
X3093991Y-26100650D01*
X3093991Y-26100650D02*
X3122563Y-26100650D01*
X3122563Y-26100650D02*
X3141610Y-26110174D01*
X3141610Y-26110174D02*
X3151134Y-26129222D01*
X3151134Y-26129222D02*
X3151134Y-26233984D01*
X3151134Y-26129222D02*
X3160658Y-26110174D01*
X3160658Y-26110174D02*
X3179705Y-26100650D01*
X3179705Y-26100650D02*
X3208277Y-26100650D01*
X3208277Y-26100650D02*
X3227324Y-26110174D01*
X3227324Y-26110174D02*
X3236848Y-26129222D01*
X3236848Y-26129222D02*
X3236848Y-26233984D01*
X3332086Y-26233984D02*
X3332086Y-26100650D01*
X3332086Y-26119698D02*
X3341610Y-26110174D01*
X3341610Y-26110174D02*
X3360658Y-26100650D01*
X3360658Y-26100650D02*
X3389229Y-26100650D01*
X3389229Y-26100650D02*
X3408277Y-26110174D01*
X3408277Y-26110174D02*
X3417801Y-26129222D01*
X3417801Y-26129222D02*
X3417801Y-26233984D01*
X3417801Y-26129222D02*
X3427324Y-26110174D01*
X3427324Y-26110174D02*
X3446372Y-26100650D01*
X3446372Y-26100650D02*
X3474943Y-26100650D01*
X3474943Y-26100650D02*
X3493991Y-26110174D01*
X3493991Y-26110174D02*
X3503515Y-26129222D01*
X3503515Y-26129222D02*
X3503515Y-26233984D01*
X3893991Y-26024460D02*
X3722563Y-26281603D01*
X4151134Y-26033984D02*
X4170182Y-26033984D01*
X4170182Y-26033984D02*
X4189229Y-26043508D01*
X4189229Y-26043508D02*
X4198753Y-26053031D01*
X4198753Y-26053031D02*
X4208277Y-26072079D01*
X4208277Y-26072079D02*
X4217801Y-26110174D01*
X4217801Y-26110174D02*
X4217801Y-26157793D01*
X4217801Y-26157793D02*
X4208277Y-26195888D01*
X4208277Y-26195888D02*
X4198753Y-26214936D01*
X4198753Y-26214936D02*
X4189229Y-26224460D01*
X4189229Y-26224460D02*
X4170182Y-26233984D01*
X4170182Y-26233984D02*
X4151134Y-26233984D01*
X4151134Y-26233984D02*
X4132086Y-26224460D01*
X4132086Y-26224460D02*
X4122563Y-26214936D01*
X4122563Y-26214936D02*
X4113039Y-26195888D01*
X4113039Y-26195888D02*
X4103515Y-26157793D01*
X4103515Y-26157793D02*
X4103515Y-26110174D01*
X4103515Y-26110174D02*
X4113039Y-26072079D01*
X4113039Y-26072079D02*
X4122563Y-26053031D01*
X4122563Y-26053031D02*
X4132086Y-26043508D01*
X4132086Y-26043508D02*
X4151134Y-26033984D01*
X4303515Y-26214936D02*
X4313039Y-26224460D01*
X4313039Y-26224460D02*
X4303515Y-26233984D01*
X4303515Y-26233984D02*
X4293991Y-26224460D01*
X4293991Y-26224460D02*
X4303515Y-26214936D01*
X4303515Y-26214936D02*
X4303515Y-26233984D01*
X4436848Y-26033984D02*
X4455896Y-26033984D01*
X4455896Y-26033984D02*
X4474944Y-26043508D01*
X4474944Y-26043508D02*
X4484468Y-26053031D01*
X4484468Y-26053031D02*
X4493991Y-26072079D01*
X4493991Y-26072079D02*
X4503515Y-26110174D01*
X4503515Y-26110174D02*
X4503515Y-26157793D01*
X4503515Y-26157793D02*
X4493991Y-26195888D01*
X4493991Y-26195888D02*
X4484468Y-26214936D01*
X4484468Y-26214936D02*
X4474944Y-26224460D01*
X4474944Y-26224460D02*
X4455896Y-26233984D01*
X4455896Y-26233984D02*
X4436848Y-26233984D01*
X4436848Y-26233984D02*
X4417801Y-26224460D01*
X4417801Y-26224460D02*
X4408277Y-26214936D01*
X4408277Y-26214936D02*
X4398753Y-26195888D01*
X4398753Y-26195888D02*
X4389229Y-26157793D01*
X4389229Y-26157793D02*
X4389229Y-26110174D01*
X4389229Y-26110174D02*
X4398753Y-26072079D01*
X4398753Y-26072079D02*
X4408277Y-26053031D01*
X4408277Y-26053031D02*
X4417801Y-26043508D01*
X4417801Y-26043508D02*
X4436848Y-26033984D01*
X4693991Y-26233984D02*
X4579706Y-26233984D01*
X4636848Y-26233984D02*
X4636848Y-26033984D01*
X4636848Y-26033984D02*
X4617801Y-26062555D01*
X4617801Y-26062555D02*
X4598753Y-26081603D01*
X4598753Y-26081603D02*
X4579706Y-26091127D01*
X4884468Y-26233984D02*
X4770182Y-26233984D01*
X4827325Y-26233984D02*
X4827325Y-26033984D01*
X4827325Y-26033984D02*
X4808277Y-26062555D01*
X4808277Y-26062555D02*
X4789229Y-26081603D01*
X4789229Y-26081603D02*
X4770182Y-26091127D01*
X4998753Y-26119698D02*
X4979706Y-26110174D01*
X4979706Y-26110174D02*
X4970182Y-26100650D01*
X4970182Y-26100650D02*
X4960658Y-26081603D01*
X4960658Y-26081603D02*
X4960658Y-26072079D01*
X4960658Y-26072079D02*
X4970182Y-26053031D01*
X4970182Y-26053031D02*
X4979706Y-26043508D01*
X4979706Y-26043508D02*
X4998753Y-26033984D01*
X4998753Y-26033984D02*
X5036849Y-26033984D01*
X5036849Y-26033984D02*
X5055896Y-26043508D01*
X5055896Y-26043508D02*
X5065420Y-26053031D01*
X5065420Y-26053031D02*
X5074944Y-26072079D01*
X5074944Y-26072079D02*
X5074944Y-26081603D01*
X5074944Y-26081603D02*
X5065420Y-26100650D01*
X5065420Y-26100650D02*
X5055896Y-26110174D01*
X5055896Y-26110174D02*
X5036849Y-26119698D01*
X5036849Y-26119698D02*
X4998753Y-26119698D01*
X4998753Y-26119698D02*
X4979706Y-26129222D01*
X4979706Y-26129222D02*
X4970182Y-26138746D01*
X4970182Y-26138746D02*
X4960658Y-26157793D01*
X4960658Y-26157793D02*
X4960658Y-26195888D01*
X4960658Y-26195888D02*
X4970182Y-26214936D01*
X4970182Y-26214936D02*
X4979706Y-26224460D01*
X4979706Y-26224460D02*
X4998753Y-26233984D01*
X4998753Y-26233984D02*
X5036849Y-26233984D01*
X5036849Y-26233984D02*
X5055896Y-26224460D01*
X5055896Y-26224460D02*
X5065420Y-26214936D01*
X5065420Y-26214936D02*
X5074944Y-26195888D01*
X5074944Y-26195888D02*
X5074944Y-26157793D01*
X5074944Y-26157793D02*
X5065420Y-26138746D01*
X5065420Y-26138746D02*
X5055896Y-26129222D01*
X5055896Y-26129222D02*
X5036849Y-26119698D01*
X5151134Y-26033984D02*
X5151134Y-26072079D01*
X5227325Y-26033984D02*
X5227325Y-26072079D01*
X5522563Y-26310174D02*
X5513039Y-26300650D01*
X5513039Y-26300650D02*
X5493991Y-26272079D01*
X5493991Y-26272079D02*
X5484468Y-26253031D01*
X5484468Y-26253031D02*
X5474944Y-26224460D01*
X5474944Y-26224460D02*
X5465420Y-26176841D01*
X5465420Y-26176841D02*
X5465420Y-26138746D01*
X5465420Y-26138746D02*
X5474944Y-26091127D01*
X5474944Y-26091127D02*
X5484468Y-26062555D01*
X5484468Y-26062555D02*
X5493991Y-26043508D01*
X5493991Y-26043508D02*
X5513039Y-26014936D01*
X5513039Y-26014936D02*
X5522563Y-26005412D01*
X5579706Y-26033984D02*
X5703515Y-26033984D01*
X5703515Y-26033984D02*
X5636848Y-26110174D01*
X5636848Y-26110174D02*
X5665420Y-26110174D01*
X5665420Y-26110174D02*
X5684468Y-26119698D01*
X5684468Y-26119698D02*
X5693991Y-26129222D01*
X5693991Y-26129222D02*
X5703515Y-26148269D01*
X5703515Y-26148269D02*
X5703515Y-26195888D01*
X5703515Y-26195888D02*
X5693991Y-26214936D01*
X5693991Y-26214936D02*
X5684468Y-26224460D01*
X5684468Y-26224460D02*
X5665420Y-26233984D01*
X5665420Y-26233984D02*
X5608277Y-26233984D01*
X5608277Y-26233984D02*
X5589230Y-26224460D01*
X5589230Y-26224460D02*
X5579706Y-26214936D01*
X5884468Y-26033984D02*
X5789229Y-26033984D01*
X5789229Y-26033984D02*
X5779706Y-26129222D01*
X5779706Y-26129222D02*
X5789229Y-26119698D01*
X5789229Y-26119698D02*
X5808277Y-26110174D01*
X5808277Y-26110174D02*
X5855896Y-26110174D01*
X5855896Y-26110174D02*
X5874944Y-26119698D01*
X5874944Y-26119698D02*
X5884468Y-26129222D01*
X5884468Y-26129222D02*
X5893991Y-26148269D01*
X5893991Y-26148269D02*
X5893991Y-26195888D01*
X5893991Y-26195888D02*
X5884468Y-26214936D01*
X5884468Y-26214936D02*
X5874944Y-26224460D01*
X5874944Y-26224460D02*
X5855896Y-26233984D01*
X5855896Y-26233984D02*
X5808277Y-26233984D01*
X5808277Y-26233984D02*
X5789229Y-26224460D01*
X5789229Y-26224460D02*
X5779706Y-26214936D01*
X6132087Y-26233984D02*
X6132087Y-26033984D01*
X6217801Y-26233984D02*
X6217801Y-26129222D01*
X6217801Y-26129222D02*
X6208277Y-26110174D01*
X6208277Y-26110174D02*
X6189230Y-26100650D01*
X6189230Y-26100650D02*
X6160658Y-26100650D01*
X6160658Y-26100650D02*
X6141610Y-26110174D01*
X6141610Y-26110174D02*
X6132087Y-26119698D01*
X6341610Y-26233984D02*
X6322563Y-26224460D01*
X6322563Y-26224460D02*
X6313039Y-26214936D01*
X6313039Y-26214936D02*
X6303515Y-26195888D01*
X6303515Y-26195888D02*
X6303515Y-26138746D01*
X6303515Y-26138746D02*
X6313039Y-26119698D01*
X6313039Y-26119698D02*
X6322563Y-26110174D01*
X6322563Y-26110174D02*
X6341610Y-26100650D01*
X6341610Y-26100650D02*
X6370182Y-26100650D01*
X6370182Y-26100650D02*
X6389230Y-26110174D01*
X6389230Y-26110174D02*
X6398753Y-26119698D01*
X6398753Y-26119698D02*
X6408277Y-26138746D01*
X6408277Y-26138746D02*
X6408277Y-26195888D01*
X6408277Y-26195888D02*
X6398753Y-26214936D01*
X6398753Y-26214936D02*
X6389230Y-26224460D01*
X6389230Y-26224460D02*
X6370182Y-26233984D01*
X6370182Y-26233984D02*
X6341610Y-26233984D01*
X6522563Y-26233984D02*
X6503515Y-26224460D01*
X6503515Y-26224460D02*
X6493991Y-26205412D01*
X6493991Y-26205412D02*
X6493991Y-26033984D01*
X6674944Y-26224460D02*
X6655896Y-26233984D01*
X6655896Y-26233984D02*
X6617801Y-26233984D01*
X6617801Y-26233984D02*
X6598753Y-26224460D01*
X6598753Y-26224460D02*
X6589230Y-26205412D01*
X6589230Y-26205412D02*
X6589230Y-26129222D01*
X6589230Y-26129222D02*
X6598753Y-26110174D01*
X6598753Y-26110174D02*
X6617801Y-26100650D01*
X6617801Y-26100650D02*
X6655896Y-26100650D01*
X6655896Y-26100650D02*
X6674944Y-26110174D01*
X6674944Y-26110174D02*
X6684468Y-26129222D01*
X6684468Y-26129222D02*
X6684468Y-26148269D01*
X6684468Y-26148269D02*
X6589230Y-26167317D01*
X6760658Y-26224460D02*
X6779706Y-26233984D01*
X6779706Y-26233984D02*
X6817801Y-26233984D01*
X6817801Y-26233984D02*
X6836849Y-26224460D01*
X6836849Y-26224460D02*
X6846372Y-26205412D01*
X6846372Y-26205412D02*
X6846372Y-26195888D01*
X6846372Y-26195888D02*
X6836849Y-26176841D01*
X6836849Y-26176841D02*
X6817801Y-26167317D01*
X6817801Y-26167317D02*
X6789230Y-26167317D01*
X6789230Y-26167317D02*
X6770182Y-26157793D01*
X6770182Y-26157793D02*
X6760658Y-26138746D01*
X6760658Y-26138746D02*
X6760658Y-26129222D01*
X6760658Y-26129222D02*
X6770182Y-26110174D01*
X6770182Y-26110174D02*
X6789230Y-26100650D01*
X6789230Y-26100650D02*
X6817801Y-26100650D01*
X6817801Y-26100650D02*
X6836849Y-26110174D01*
X6913039Y-26310174D02*
X6922563Y-26300650D01*
X6922563Y-26300650D02*
X6941611Y-26272079D01*
X6941611Y-26272079D02*
X6951134Y-26253031D01*
X6951134Y-26253031D02*
X6960658Y-26224460D01*
X6960658Y-26224460D02*
X6970182Y-26176841D01*
X6970182Y-26176841D02*
X6970182Y-26138746D01*
X6970182Y-26138746D02*
X6960658Y-26091127D01*
X6960658Y-26091127D02*
X6951134Y-26062555D01*
X6951134Y-26062555D02*
X6941611Y-26043508D01*
X6941611Y-26043508D02*
X6922563Y-26014936D01*
X6922563Y-26014936D02*
X6913039Y-26005412D01*
D12*
X1947500Y-26406500D02*
G75*
G02*
X1867500Y-26406500I-40000J0D01*
G01*
X1867500Y-26406500D02*
G75*
G02*
X1947500Y-26406500I40000J0D01*
G01*
D11*
X2246372Y-26297984D02*
X2265420Y-26297984D01*
X2265420Y-26297984D02*
X2284467Y-26307508D01*
X2284467Y-26307508D02*
X2293991Y-26317031D01*
X2293991Y-26317031D02*
X2303515Y-26336079D01*
X2303515Y-26336079D02*
X2313039Y-26374174D01*
X2313039Y-26374174D02*
X2313039Y-26421793D01*
X2313039Y-26421793D02*
X2303515Y-26459888D01*
X2303515Y-26459888D02*
X2293991Y-26478936D01*
X2293991Y-26478936D02*
X2284467Y-26488460D01*
X2284467Y-26488460D02*
X2265420Y-26497984D01*
X2265420Y-26497984D02*
X2246372Y-26497984D01*
X2246372Y-26497984D02*
X2227324Y-26488460D01*
X2227324Y-26488460D02*
X2217801Y-26478936D01*
X2217801Y-26478936D02*
X2208277Y-26459888D01*
X2208277Y-26459888D02*
X2198753Y-26421793D01*
X2198753Y-26421793D02*
X2198753Y-26374174D01*
X2198753Y-26374174D02*
X2208277Y-26336079D01*
X2208277Y-26336079D02*
X2217801Y-26317031D01*
X2217801Y-26317031D02*
X2227324Y-26307508D01*
X2227324Y-26307508D02*
X2246372Y-26297984D01*
X2398753Y-26478936D02*
X2408277Y-26488460D01*
X2408277Y-26488460D02*
X2398753Y-26497984D01*
X2398753Y-26497984D02*
X2389229Y-26488460D01*
X2389229Y-26488460D02*
X2398753Y-26478936D01*
X2398753Y-26478936D02*
X2398753Y-26497984D01*
X2522563Y-26383698D02*
X2503515Y-26374174D01*
X2503515Y-26374174D02*
X2493991Y-26364650D01*
X2493991Y-26364650D02*
X2484467Y-26345603D01*
X2484467Y-26345603D02*
X2484467Y-26336079D01*
X2484467Y-26336079D02*
X2493991Y-26317031D01*
X2493991Y-26317031D02*
X2503515Y-26307508D01*
X2503515Y-26307508D02*
X2522563Y-26297984D01*
X2522563Y-26297984D02*
X2560658Y-26297984D01*
X2560658Y-26297984D02*
X2579705Y-26307508D01*
X2579705Y-26307508D02*
X2589229Y-26317031D01*
X2589229Y-26317031D02*
X2598753Y-26336079D01*
X2598753Y-26336079D02*
X2598753Y-26345603D01*
X2598753Y-26345603D02*
X2589229Y-26364650D01*
X2589229Y-26364650D02*
X2579705Y-26374174D01*
X2579705Y-26374174D02*
X2560658Y-26383698D01*
X2560658Y-26383698D02*
X2522563Y-26383698D01*
X2522563Y-26383698D02*
X2503515Y-26393222D01*
X2503515Y-26393222D02*
X2493991Y-26402746D01*
X2493991Y-26402746D02*
X2484467Y-26421793D01*
X2484467Y-26421793D02*
X2484467Y-26459888D01*
X2484467Y-26459888D02*
X2493991Y-26478936D01*
X2493991Y-26478936D02*
X2503515Y-26488460D01*
X2503515Y-26488460D02*
X2522563Y-26497984D01*
X2522563Y-26497984D02*
X2560658Y-26497984D01*
X2560658Y-26497984D02*
X2579705Y-26488460D01*
X2579705Y-26488460D02*
X2589229Y-26478936D01*
X2589229Y-26478936D02*
X2598753Y-26459888D01*
X2598753Y-26459888D02*
X2598753Y-26421793D01*
X2598753Y-26421793D02*
X2589229Y-26402746D01*
X2589229Y-26402746D02*
X2579705Y-26393222D01*
X2579705Y-26393222D02*
X2560658Y-26383698D01*
X2722563Y-26297984D02*
X2741610Y-26297984D01*
X2741610Y-26297984D02*
X2760658Y-26307508D01*
X2760658Y-26307508D02*
X2770182Y-26317031D01*
X2770182Y-26317031D02*
X2779705Y-26336079D01*
X2779705Y-26336079D02*
X2789229Y-26374174D01*
X2789229Y-26374174D02*
X2789229Y-26421793D01*
X2789229Y-26421793D02*
X2779705Y-26459888D01*
X2779705Y-26459888D02*
X2770182Y-26478936D01*
X2770182Y-26478936D02*
X2760658Y-26488460D01*
X2760658Y-26488460D02*
X2741610Y-26497984D01*
X2741610Y-26497984D02*
X2722563Y-26497984D01*
X2722563Y-26497984D02*
X2703515Y-26488460D01*
X2703515Y-26488460D02*
X2693991Y-26478936D01*
X2693991Y-26478936D02*
X2684467Y-26459888D01*
X2684467Y-26459888D02*
X2674944Y-26421793D01*
X2674944Y-26421793D02*
X2674944Y-26374174D01*
X2674944Y-26374174D02*
X2684467Y-26336079D01*
X2684467Y-26336079D02*
X2693991Y-26317031D01*
X2693991Y-26317031D02*
X2703515Y-26307508D01*
X2703515Y-26307508D02*
X2722563Y-26297984D01*
X2913039Y-26297984D02*
X2932086Y-26297984D01*
X2932086Y-26297984D02*
X2951134Y-26307508D01*
X2951134Y-26307508D02*
X2960658Y-26317031D01*
X2960658Y-26317031D02*
X2970182Y-26336079D01*
X2970182Y-26336079D02*
X2979705Y-26374174D01*
X2979705Y-26374174D02*
X2979705Y-26421793D01*
X2979705Y-26421793D02*
X2970182Y-26459888D01*
X2970182Y-26459888D02*
X2960658Y-26478936D01*
X2960658Y-26478936D02*
X2951134Y-26488460D01*
X2951134Y-26488460D02*
X2932086Y-26497984D01*
X2932086Y-26497984D02*
X2913039Y-26497984D01*
X2913039Y-26497984D02*
X2893991Y-26488460D01*
X2893991Y-26488460D02*
X2884467Y-26478936D01*
X2884467Y-26478936D02*
X2874943Y-26459888D01*
X2874943Y-26459888D02*
X2865420Y-26421793D01*
X2865420Y-26421793D02*
X2865420Y-26374174D01*
X2865420Y-26374174D02*
X2874943Y-26336079D01*
X2874943Y-26336079D02*
X2884467Y-26317031D01*
X2884467Y-26317031D02*
X2893991Y-26307508D01*
X2893991Y-26307508D02*
X2913039Y-26297984D01*
X3065420Y-26497984D02*
X3065420Y-26364650D01*
X3065420Y-26383698D02*
X3074943Y-26374174D01*
X3074943Y-26374174D02*
X3093991Y-26364650D01*
X3093991Y-26364650D02*
X3122563Y-26364650D01*
X3122563Y-26364650D02*
X3141610Y-26374174D01*
X3141610Y-26374174D02*
X3151134Y-26393222D01*
X3151134Y-26393222D02*
X3151134Y-26497984D01*
X3151134Y-26393222D02*
X3160658Y-26374174D01*
X3160658Y-26374174D02*
X3179705Y-26364650D01*
X3179705Y-26364650D02*
X3208277Y-26364650D01*
X3208277Y-26364650D02*
X3227324Y-26374174D01*
X3227324Y-26374174D02*
X3236848Y-26393222D01*
X3236848Y-26393222D02*
X3236848Y-26497984D01*
X3332086Y-26497984D02*
X3332086Y-26364650D01*
X3332086Y-26383698D02*
X3341610Y-26374174D01*
X3341610Y-26374174D02*
X3360658Y-26364650D01*
X3360658Y-26364650D02*
X3389229Y-26364650D01*
X3389229Y-26364650D02*
X3408277Y-26374174D01*
X3408277Y-26374174D02*
X3417801Y-26393222D01*
X3417801Y-26393222D02*
X3417801Y-26497984D01*
X3417801Y-26393222D02*
X3427324Y-26374174D01*
X3427324Y-26374174D02*
X3446372Y-26364650D01*
X3446372Y-26364650D02*
X3474943Y-26364650D01*
X3474943Y-26364650D02*
X3493991Y-26374174D01*
X3493991Y-26374174D02*
X3503515Y-26393222D01*
X3503515Y-26393222D02*
X3503515Y-26497984D01*
X3893991Y-26288460D02*
X3722563Y-26545603D01*
X4151134Y-26297984D02*
X4170182Y-26297984D01*
X4170182Y-26297984D02*
X4189229Y-26307508D01*
X4189229Y-26307508D02*
X4198753Y-26317031D01*
X4198753Y-26317031D02*
X4208277Y-26336079D01*
X4208277Y-26336079D02*
X4217801Y-26374174D01*
X4217801Y-26374174D02*
X4217801Y-26421793D01*
X4217801Y-26421793D02*
X4208277Y-26459888D01*
X4208277Y-26459888D02*
X4198753Y-26478936D01*
X4198753Y-26478936D02*
X4189229Y-26488460D01*
X4189229Y-26488460D02*
X4170182Y-26497984D01*
X4170182Y-26497984D02*
X4151134Y-26497984D01*
X4151134Y-26497984D02*
X4132086Y-26488460D01*
X4132086Y-26488460D02*
X4122563Y-26478936D01*
X4122563Y-26478936D02*
X4113039Y-26459888D01*
X4113039Y-26459888D02*
X4103515Y-26421793D01*
X4103515Y-26421793D02*
X4103515Y-26374174D01*
X4103515Y-26374174D02*
X4113039Y-26336079D01*
X4113039Y-26336079D02*
X4122563Y-26317031D01*
X4122563Y-26317031D02*
X4132086Y-26307508D01*
X4132086Y-26307508D02*
X4151134Y-26297984D01*
X4303515Y-26478936D02*
X4313039Y-26488460D01*
X4313039Y-26488460D02*
X4303515Y-26497984D01*
X4303515Y-26497984D02*
X4293991Y-26488460D01*
X4293991Y-26488460D02*
X4303515Y-26478936D01*
X4303515Y-26478936D02*
X4303515Y-26497984D01*
X4436848Y-26297984D02*
X4455896Y-26297984D01*
X4455896Y-26297984D02*
X4474944Y-26307508D01*
X4474944Y-26307508D02*
X4484468Y-26317031D01*
X4484468Y-26317031D02*
X4493991Y-26336079D01*
X4493991Y-26336079D02*
X4503515Y-26374174D01*
X4503515Y-26374174D02*
X4503515Y-26421793D01*
X4503515Y-26421793D02*
X4493991Y-26459888D01*
X4493991Y-26459888D02*
X4484468Y-26478936D01*
X4484468Y-26478936D02*
X4474944Y-26488460D01*
X4474944Y-26488460D02*
X4455896Y-26497984D01*
X4455896Y-26497984D02*
X4436848Y-26497984D01*
X4436848Y-26497984D02*
X4417801Y-26488460D01*
X4417801Y-26488460D02*
X4408277Y-26478936D01*
X4408277Y-26478936D02*
X4398753Y-26459888D01*
X4398753Y-26459888D02*
X4389229Y-26421793D01*
X4389229Y-26421793D02*
X4389229Y-26374174D01*
X4389229Y-26374174D02*
X4398753Y-26336079D01*
X4398753Y-26336079D02*
X4408277Y-26317031D01*
X4408277Y-26317031D02*
X4417801Y-26307508D01*
X4417801Y-26307508D02*
X4436848Y-26297984D01*
X4570182Y-26297984D02*
X4693991Y-26297984D01*
X4693991Y-26297984D02*
X4627325Y-26374174D01*
X4627325Y-26374174D02*
X4655896Y-26374174D01*
X4655896Y-26374174D02*
X4674944Y-26383698D01*
X4674944Y-26383698D02*
X4684468Y-26393222D01*
X4684468Y-26393222D02*
X4693991Y-26412269D01*
X4693991Y-26412269D02*
X4693991Y-26459888D01*
X4693991Y-26459888D02*
X4684468Y-26478936D01*
X4684468Y-26478936D02*
X4674944Y-26488460D01*
X4674944Y-26488460D02*
X4655896Y-26497984D01*
X4655896Y-26497984D02*
X4598753Y-26497984D01*
X4598753Y-26497984D02*
X4579706Y-26488460D01*
X4579706Y-26488460D02*
X4570182Y-26478936D01*
X4884468Y-26497984D02*
X4770182Y-26497984D01*
X4827325Y-26497984D02*
X4827325Y-26297984D01*
X4827325Y-26297984D02*
X4808277Y-26326555D01*
X4808277Y-26326555D02*
X4789229Y-26345603D01*
X4789229Y-26345603D02*
X4770182Y-26355127D01*
X5065420Y-26297984D02*
X4970182Y-26297984D01*
X4970182Y-26297984D02*
X4960658Y-26393222D01*
X4960658Y-26393222D02*
X4970182Y-26383698D01*
X4970182Y-26383698D02*
X4989229Y-26374174D01*
X4989229Y-26374174D02*
X5036849Y-26374174D01*
X5036849Y-26374174D02*
X5055896Y-26383698D01*
X5055896Y-26383698D02*
X5065420Y-26393222D01*
X5065420Y-26393222D02*
X5074944Y-26412269D01*
X5074944Y-26412269D02*
X5074944Y-26459888D01*
X5074944Y-26459888D02*
X5065420Y-26478936D01*
X5065420Y-26478936D02*
X5055896Y-26488460D01*
X5055896Y-26488460D02*
X5036849Y-26497984D01*
X5036849Y-26497984D02*
X4989229Y-26497984D01*
X4989229Y-26497984D02*
X4970182Y-26488460D01*
X4970182Y-26488460D02*
X4960658Y-26478936D01*
X5151134Y-26297984D02*
X5151134Y-26336079D01*
X5227325Y-26297984D02*
X5227325Y-26336079D01*
X5522563Y-26574174D02*
X5513039Y-26564650D01*
X5513039Y-26564650D02*
X5493991Y-26536079D01*
X5493991Y-26536079D02*
X5484468Y-26517031D01*
X5484468Y-26517031D02*
X5474944Y-26488460D01*
X5474944Y-26488460D02*
X5465420Y-26440841D01*
X5465420Y-26440841D02*
X5465420Y-26402746D01*
X5465420Y-26402746D02*
X5474944Y-26355127D01*
X5474944Y-26355127D02*
X5484468Y-26326555D01*
X5484468Y-26326555D02*
X5493991Y-26307508D01*
X5493991Y-26307508D02*
X5513039Y-26278936D01*
X5513039Y-26278936D02*
X5522563Y-26269412D01*
X5693991Y-26297984D02*
X5598753Y-26297984D01*
X5598753Y-26297984D02*
X5589230Y-26393222D01*
X5589230Y-26393222D02*
X5598753Y-26383698D01*
X5598753Y-26383698D02*
X5617801Y-26374174D01*
X5617801Y-26374174D02*
X5665420Y-26374174D01*
X5665420Y-26374174D02*
X5684468Y-26383698D01*
X5684468Y-26383698D02*
X5693991Y-26393222D01*
X5693991Y-26393222D02*
X5703515Y-26412269D01*
X5703515Y-26412269D02*
X5703515Y-26459888D01*
X5703515Y-26459888D02*
X5693991Y-26478936D01*
X5693991Y-26478936D02*
X5684468Y-26488460D01*
X5684468Y-26488460D02*
X5665420Y-26497984D01*
X5665420Y-26497984D02*
X5617801Y-26497984D01*
X5617801Y-26497984D02*
X5598753Y-26488460D01*
X5598753Y-26488460D02*
X5589230Y-26478936D01*
X5874944Y-26297984D02*
X5836848Y-26297984D01*
X5836848Y-26297984D02*
X5817801Y-26307508D01*
X5817801Y-26307508D02*
X5808277Y-26317031D01*
X5808277Y-26317031D02*
X5789229Y-26345603D01*
X5789229Y-26345603D02*
X5779706Y-26383698D01*
X5779706Y-26383698D02*
X5779706Y-26459888D01*
X5779706Y-26459888D02*
X5789229Y-26478936D01*
X5789229Y-26478936D02*
X5798753Y-26488460D01*
X5798753Y-26488460D02*
X5817801Y-26497984D01*
X5817801Y-26497984D02*
X5855896Y-26497984D01*
X5855896Y-26497984D02*
X5874944Y-26488460D01*
X5874944Y-26488460D02*
X5884468Y-26478936D01*
X5884468Y-26478936D02*
X5893991Y-26459888D01*
X5893991Y-26459888D02*
X5893991Y-26412269D01*
X5893991Y-26412269D02*
X5884468Y-26393222D01*
X5884468Y-26393222D02*
X5874944Y-26383698D01*
X5874944Y-26383698D02*
X5855896Y-26374174D01*
X5855896Y-26374174D02*
X5817801Y-26374174D01*
X5817801Y-26374174D02*
X5798753Y-26383698D01*
X5798753Y-26383698D02*
X5789229Y-26393222D01*
X5789229Y-26393222D02*
X5779706Y-26412269D01*
X6132087Y-26497984D02*
X6132087Y-26297984D01*
X6217801Y-26497984D02*
X6217801Y-26393222D01*
X6217801Y-26393222D02*
X6208277Y-26374174D01*
X6208277Y-26374174D02*
X6189230Y-26364650D01*
X6189230Y-26364650D02*
X6160658Y-26364650D01*
X6160658Y-26364650D02*
X6141610Y-26374174D01*
X6141610Y-26374174D02*
X6132087Y-26383698D01*
X6341610Y-26497984D02*
X6322563Y-26488460D01*
X6322563Y-26488460D02*
X6313039Y-26478936D01*
X6313039Y-26478936D02*
X6303515Y-26459888D01*
X6303515Y-26459888D02*
X6303515Y-26402746D01*
X6303515Y-26402746D02*
X6313039Y-26383698D01*
X6313039Y-26383698D02*
X6322563Y-26374174D01*
X6322563Y-26374174D02*
X6341610Y-26364650D01*
X6341610Y-26364650D02*
X6370182Y-26364650D01*
X6370182Y-26364650D02*
X6389230Y-26374174D01*
X6389230Y-26374174D02*
X6398753Y-26383698D01*
X6398753Y-26383698D02*
X6408277Y-26402746D01*
X6408277Y-26402746D02*
X6408277Y-26459888D01*
X6408277Y-26459888D02*
X6398753Y-26478936D01*
X6398753Y-26478936D02*
X6389230Y-26488460D01*
X6389230Y-26488460D02*
X6370182Y-26497984D01*
X6370182Y-26497984D02*
X6341610Y-26497984D01*
X6522563Y-26497984D02*
X6503515Y-26488460D01*
X6503515Y-26488460D02*
X6493991Y-26469412D01*
X6493991Y-26469412D02*
X6493991Y-26297984D01*
X6674944Y-26488460D02*
X6655896Y-26497984D01*
X6655896Y-26497984D02*
X6617801Y-26497984D01*
X6617801Y-26497984D02*
X6598753Y-26488460D01*
X6598753Y-26488460D02*
X6589230Y-26469412D01*
X6589230Y-26469412D02*
X6589230Y-26393222D01*
X6589230Y-26393222D02*
X6598753Y-26374174D01*
X6598753Y-26374174D02*
X6617801Y-26364650D01*
X6617801Y-26364650D02*
X6655896Y-26364650D01*
X6655896Y-26364650D02*
X6674944Y-26374174D01*
X6674944Y-26374174D02*
X6684468Y-26393222D01*
X6684468Y-26393222D02*
X6684468Y-26412269D01*
X6684468Y-26412269D02*
X6589230Y-26431317D01*
X6760658Y-26488460D02*
X6779706Y-26497984D01*
X6779706Y-26497984D02*
X6817801Y-26497984D01*
X6817801Y-26497984D02*
X6836849Y-26488460D01*
X6836849Y-26488460D02*
X6846372Y-26469412D01*
X6846372Y-26469412D02*
X6846372Y-26459888D01*
X6846372Y-26459888D02*
X6836849Y-26440841D01*
X6836849Y-26440841D02*
X6817801Y-26431317D01*
X6817801Y-26431317D02*
X6789230Y-26431317D01*
X6789230Y-26431317D02*
X6770182Y-26421793D01*
X6770182Y-26421793D02*
X6760658Y-26402746D01*
X6760658Y-26402746D02*
X6760658Y-26393222D01*
X6760658Y-26393222D02*
X6770182Y-26374174D01*
X6770182Y-26374174D02*
X6789230Y-26364650D01*
X6789230Y-26364650D02*
X6817801Y-26364650D01*
X6817801Y-26364650D02*
X6836849Y-26374174D01*
X6913039Y-26574174D02*
X6922563Y-26564650D01*
X6922563Y-26564650D02*
X6941611Y-26536079D01*
X6941611Y-26536079D02*
X6951134Y-26517031D01*
X6951134Y-26517031D02*
X6960658Y-26488460D01*
X6960658Y-26488460D02*
X6970182Y-26440841D01*
X6970182Y-26440841D02*
X6970182Y-26402746D01*
X6970182Y-26402746D02*
X6960658Y-26355127D01*
X6960658Y-26355127D02*
X6951134Y-26326555D01*
X6951134Y-26326555D02*
X6941611Y-26307508D01*
X6941611Y-26307508D02*
X6922563Y-26278936D01*
X6922563Y-26278936D02*
X6913039Y-26269412D01*
D12*
X1903050Y-26626050D02*
X1903050Y-26714950D01*
X1858600Y-26670500D02*
X1947500Y-26670500D01*
D11*
X2246372Y-26561984D02*
X2265420Y-26561984D01*
X2265420Y-26561984D02*
X2284467Y-26571508D01*
X2284467Y-26571508D02*
X2293991Y-26581031D01*
X2293991Y-26581031D02*
X2303515Y-26600079D01*
X2303515Y-26600079D02*
X2313039Y-26638174D01*
X2313039Y-26638174D02*
X2313039Y-26685793D01*
X2313039Y-26685793D02*
X2303515Y-26723888D01*
X2303515Y-26723888D02*
X2293991Y-26742936D01*
X2293991Y-26742936D02*
X2284467Y-26752460D01*
X2284467Y-26752460D02*
X2265420Y-26761984D01*
X2265420Y-26761984D02*
X2246372Y-26761984D01*
X2246372Y-26761984D02*
X2227324Y-26752460D01*
X2227324Y-26752460D02*
X2217801Y-26742936D01*
X2217801Y-26742936D02*
X2208277Y-26723888D01*
X2208277Y-26723888D02*
X2198753Y-26685793D01*
X2198753Y-26685793D02*
X2198753Y-26638174D01*
X2198753Y-26638174D02*
X2208277Y-26600079D01*
X2208277Y-26600079D02*
X2217801Y-26581031D01*
X2217801Y-26581031D02*
X2227324Y-26571508D01*
X2227324Y-26571508D02*
X2246372Y-26561984D01*
X2398753Y-26742936D02*
X2408277Y-26752460D01*
X2408277Y-26752460D02*
X2398753Y-26761984D01*
X2398753Y-26761984D02*
X2389229Y-26752460D01*
X2389229Y-26752460D02*
X2398753Y-26742936D01*
X2398753Y-26742936D02*
X2398753Y-26761984D01*
X2522563Y-26647698D02*
X2503515Y-26638174D01*
X2503515Y-26638174D02*
X2493991Y-26628650D01*
X2493991Y-26628650D02*
X2484467Y-26609603D01*
X2484467Y-26609603D02*
X2484467Y-26600079D01*
X2484467Y-26600079D02*
X2493991Y-26581031D01*
X2493991Y-26581031D02*
X2503515Y-26571508D01*
X2503515Y-26571508D02*
X2522563Y-26561984D01*
X2522563Y-26561984D02*
X2560658Y-26561984D01*
X2560658Y-26561984D02*
X2579705Y-26571508D01*
X2579705Y-26571508D02*
X2589229Y-26581031D01*
X2589229Y-26581031D02*
X2598753Y-26600079D01*
X2598753Y-26600079D02*
X2598753Y-26609603D01*
X2598753Y-26609603D02*
X2589229Y-26628650D01*
X2589229Y-26628650D02*
X2579705Y-26638174D01*
X2579705Y-26638174D02*
X2560658Y-26647698D01*
X2560658Y-26647698D02*
X2522563Y-26647698D01*
X2522563Y-26647698D02*
X2503515Y-26657222D01*
X2503515Y-26657222D02*
X2493991Y-26666746D01*
X2493991Y-26666746D02*
X2484467Y-26685793D01*
X2484467Y-26685793D02*
X2484467Y-26723888D01*
X2484467Y-26723888D02*
X2493991Y-26742936D01*
X2493991Y-26742936D02*
X2503515Y-26752460D01*
X2503515Y-26752460D02*
X2522563Y-26761984D01*
X2522563Y-26761984D02*
X2560658Y-26761984D01*
X2560658Y-26761984D02*
X2579705Y-26752460D01*
X2579705Y-26752460D02*
X2589229Y-26742936D01*
X2589229Y-26742936D02*
X2598753Y-26723888D01*
X2598753Y-26723888D02*
X2598753Y-26685793D01*
X2598753Y-26685793D02*
X2589229Y-26666746D01*
X2589229Y-26666746D02*
X2579705Y-26657222D01*
X2579705Y-26657222D02*
X2560658Y-26647698D01*
X2713039Y-26647698D02*
X2693991Y-26638174D01*
X2693991Y-26638174D02*
X2684467Y-26628650D01*
X2684467Y-26628650D02*
X2674944Y-26609603D01*
X2674944Y-26609603D02*
X2674944Y-26600079D01*
X2674944Y-26600079D02*
X2684467Y-26581031D01*
X2684467Y-26581031D02*
X2693991Y-26571508D01*
X2693991Y-26571508D02*
X2713039Y-26561984D01*
X2713039Y-26561984D02*
X2751134Y-26561984D01*
X2751134Y-26561984D02*
X2770182Y-26571508D01*
X2770182Y-26571508D02*
X2779705Y-26581031D01*
X2779705Y-26581031D02*
X2789229Y-26600079D01*
X2789229Y-26600079D02*
X2789229Y-26609603D01*
X2789229Y-26609603D02*
X2779705Y-26628650D01*
X2779705Y-26628650D02*
X2770182Y-26638174D01*
X2770182Y-26638174D02*
X2751134Y-26647698D01*
X2751134Y-26647698D02*
X2713039Y-26647698D01*
X2713039Y-26647698D02*
X2693991Y-26657222D01*
X2693991Y-26657222D02*
X2684467Y-26666746D01*
X2684467Y-26666746D02*
X2674944Y-26685793D01*
X2674944Y-26685793D02*
X2674944Y-26723888D01*
X2674944Y-26723888D02*
X2684467Y-26742936D01*
X2684467Y-26742936D02*
X2693991Y-26752460D01*
X2693991Y-26752460D02*
X2713039Y-26761984D01*
X2713039Y-26761984D02*
X2751134Y-26761984D01*
X2751134Y-26761984D02*
X2770182Y-26752460D01*
X2770182Y-26752460D02*
X2779705Y-26742936D01*
X2779705Y-26742936D02*
X2789229Y-26723888D01*
X2789229Y-26723888D02*
X2789229Y-26685793D01*
X2789229Y-26685793D02*
X2779705Y-26666746D01*
X2779705Y-26666746D02*
X2770182Y-26657222D01*
X2770182Y-26657222D02*
X2751134Y-26647698D01*
X2884467Y-26761984D02*
X2922562Y-26761984D01*
X2922562Y-26761984D02*
X2941610Y-26752460D01*
X2941610Y-26752460D02*
X2951134Y-26742936D01*
X2951134Y-26742936D02*
X2970182Y-26714365D01*
X2970182Y-26714365D02*
X2979705Y-26676269D01*
X2979705Y-26676269D02*
X2979705Y-26600079D01*
X2979705Y-26600079D02*
X2970182Y-26581031D01*
X2970182Y-26581031D02*
X2960658Y-26571508D01*
X2960658Y-26571508D02*
X2941610Y-26561984D01*
X2941610Y-26561984D02*
X2903515Y-26561984D01*
X2903515Y-26561984D02*
X2884467Y-26571508D01*
X2884467Y-26571508D02*
X2874943Y-26581031D01*
X2874943Y-26581031D02*
X2865420Y-26600079D01*
X2865420Y-26600079D02*
X2865420Y-26647698D01*
X2865420Y-26647698D02*
X2874943Y-26666746D01*
X2874943Y-26666746D02*
X2884467Y-26676269D01*
X2884467Y-26676269D02*
X2903515Y-26685793D01*
X2903515Y-26685793D02*
X2941610Y-26685793D01*
X2941610Y-26685793D02*
X2960658Y-26676269D01*
X2960658Y-26676269D02*
X2970182Y-26666746D01*
X2970182Y-26666746D02*
X2979705Y-26647698D01*
X3065420Y-26761984D02*
X3065420Y-26628650D01*
X3065420Y-26647698D02*
X3074943Y-26638174D01*
X3074943Y-26638174D02*
X3093991Y-26628650D01*
X3093991Y-26628650D02*
X3122563Y-26628650D01*
X3122563Y-26628650D02*
X3141610Y-26638174D01*
X3141610Y-26638174D02*
X3151134Y-26657222D01*
X3151134Y-26657222D02*
X3151134Y-26761984D01*
X3151134Y-26657222D02*
X3160658Y-26638174D01*
X3160658Y-26638174D02*
X3179705Y-26628650D01*
X3179705Y-26628650D02*
X3208277Y-26628650D01*
X3208277Y-26628650D02*
X3227324Y-26638174D01*
X3227324Y-26638174D02*
X3236848Y-26657222D01*
X3236848Y-26657222D02*
X3236848Y-26761984D01*
X3332086Y-26761984D02*
X3332086Y-26628650D01*
X3332086Y-26647698D02*
X3341610Y-26638174D01*
X3341610Y-26638174D02*
X3360658Y-26628650D01*
X3360658Y-26628650D02*
X3389229Y-26628650D01*
X3389229Y-26628650D02*
X3408277Y-26638174D01*
X3408277Y-26638174D02*
X3417801Y-26657222D01*
X3417801Y-26657222D02*
X3417801Y-26761984D01*
X3417801Y-26657222D02*
X3427324Y-26638174D01*
X3427324Y-26638174D02*
X3446372Y-26628650D01*
X3446372Y-26628650D02*
X3474943Y-26628650D01*
X3474943Y-26628650D02*
X3493991Y-26638174D01*
X3493991Y-26638174D02*
X3503515Y-26657222D01*
X3503515Y-26657222D02*
X3503515Y-26761984D01*
X3893991Y-26552460D02*
X3722563Y-26809603D01*
X4151134Y-26561984D02*
X4170182Y-26561984D01*
X4170182Y-26561984D02*
X4189229Y-26571508D01*
X4189229Y-26571508D02*
X4198753Y-26581031D01*
X4198753Y-26581031D02*
X4208277Y-26600079D01*
X4208277Y-26600079D02*
X4217801Y-26638174D01*
X4217801Y-26638174D02*
X4217801Y-26685793D01*
X4217801Y-26685793D02*
X4208277Y-26723888D01*
X4208277Y-26723888D02*
X4198753Y-26742936D01*
X4198753Y-26742936D02*
X4189229Y-26752460D01*
X4189229Y-26752460D02*
X4170182Y-26761984D01*
X4170182Y-26761984D02*
X4151134Y-26761984D01*
X4151134Y-26761984D02*
X4132086Y-26752460D01*
X4132086Y-26752460D02*
X4122563Y-26742936D01*
X4122563Y-26742936D02*
X4113039Y-26723888D01*
X4113039Y-26723888D02*
X4103515Y-26685793D01*
X4103515Y-26685793D02*
X4103515Y-26638174D01*
X4103515Y-26638174D02*
X4113039Y-26600079D01*
X4113039Y-26600079D02*
X4122563Y-26581031D01*
X4122563Y-26581031D02*
X4132086Y-26571508D01*
X4132086Y-26571508D02*
X4151134Y-26561984D01*
X4303515Y-26742936D02*
X4313039Y-26752460D01*
X4313039Y-26752460D02*
X4303515Y-26761984D01*
X4303515Y-26761984D02*
X4293991Y-26752460D01*
X4293991Y-26752460D02*
X4303515Y-26742936D01*
X4303515Y-26742936D02*
X4303515Y-26761984D01*
X4436848Y-26561984D02*
X4455896Y-26561984D01*
X4455896Y-26561984D02*
X4474944Y-26571508D01*
X4474944Y-26571508D02*
X4484468Y-26581031D01*
X4484468Y-26581031D02*
X4493991Y-26600079D01*
X4493991Y-26600079D02*
X4503515Y-26638174D01*
X4503515Y-26638174D02*
X4503515Y-26685793D01*
X4503515Y-26685793D02*
X4493991Y-26723888D01*
X4493991Y-26723888D02*
X4484468Y-26742936D01*
X4484468Y-26742936D02*
X4474944Y-26752460D01*
X4474944Y-26752460D02*
X4455896Y-26761984D01*
X4455896Y-26761984D02*
X4436848Y-26761984D01*
X4436848Y-26761984D02*
X4417801Y-26752460D01*
X4417801Y-26752460D02*
X4408277Y-26742936D01*
X4408277Y-26742936D02*
X4398753Y-26723888D01*
X4398753Y-26723888D02*
X4389229Y-26685793D01*
X4389229Y-26685793D02*
X4389229Y-26638174D01*
X4389229Y-26638174D02*
X4398753Y-26600079D01*
X4398753Y-26600079D02*
X4408277Y-26581031D01*
X4408277Y-26581031D02*
X4417801Y-26571508D01*
X4417801Y-26571508D02*
X4436848Y-26561984D01*
X4570182Y-26561984D02*
X4693991Y-26561984D01*
X4693991Y-26561984D02*
X4627325Y-26638174D01*
X4627325Y-26638174D02*
X4655896Y-26638174D01*
X4655896Y-26638174D02*
X4674944Y-26647698D01*
X4674944Y-26647698D02*
X4684468Y-26657222D01*
X4684468Y-26657222D02*
X4693991Y-26676269D01*
X4693991Y-26676269D02*
X4693991Y-26723888D01*
X4693991Y-26723888D02*
X4684468Y-26742936D01*
X4684468Y-26742936D02*
X4674944Y-26752460D01*
X4674944Y-26752460D02*
X4655896Y-26761984D01*
X4655896Y-26761984D02*
X4598753Y-26761984D01*
X4598753Y-26761984D02*
X4579706Y-26752460D01*
X4579706Y-26752460D02*
X4570182Y-26742936D01*
X4874944Y-26561984D02*
X4779706Y-26561984D01*
X4779706Y-26561984D02*
X4770182Y-26657222D01*
X4770182Y-26657222D02*
X4779706Y-26647698D01*
X4779706Y-26647698D02*
X4798753Y-26638174D01*
X4798753Y-26638174D02*
X4846372Y-26638174D01*
X4846372Y-26638174D02*
X4865420Y-26647698D01*
X4865420Y-26647698D02*
X4874944Y-26657222D01*
X4874944Y-26657222D02*
X4884468Y-26676269D01*
X4884468Y-26676269D02*
X4884468Y-26723888D01*
X4884468Y-26723888D02*
X4874944Y-26742936D01*
X4874944Y-26742936D02*
X4865420Y-26752460D01*
X4865420Y-26752460D02*
X4846372Y-26761984D01*
X4846372Y-26761984D02*
X4798753Y-26761984D01*
X4798753Y-26761984D02*
X4779706Y-26752460D01*
X4779706Y-26752460D02*
X4770182Y-26742936D01*
X5008277Y-26561984D02*
X5027325Y-26561984D01*
X5027325Y-26561984D02*
X5046372Y-26571508D01*
X5046372Y-26571508D02*
X5055896Y-26581031D01*
X5055896Y-26581031D02*
X5065420Y-26600079D01*
X5065420Y-26600079D02*
X5074944Y-26638174D01*
X5074944Y-26638174D02*
X5074944Y-26685793D01*
X5074944Y-26685793D02*
X5065420Y-26723888D01*
X5065420Y-26723888D02*
X5055896Y-26742936D01*
X5055896Y-26742936D02*
X5046372Y-26752460D01*
X5046372Y-26752460D02*
X5027325Y-26761984D01*
X5027325Y-26761984D02*
X5008277Y-26761984D01*
X5008277Y-26761984D02*
X4989229Y-26752460D01*
X4989229Y-26752460D02*
X4979706Y-26742936D01*
X4979706Y-26742936D02*
X4970182Y-26723888D01*
X4970182Y-26723888D02*
X4960658Y-26685793D01*
X4960658Y-26685793D02*
X4960658Y-26638174D01*
X4960658Y-26638174D02*
X4970182Y-26600079D01*
X4970182Y-26600079D02*
X4979706Y-26581031D01*
X4979706Y-26581031D02*
X4989229Y-26571508D01*
X4989229Y-26571508D02*
X5008277Y-26561984D01*
X5151134Y-26561984D02*
X5151134Y-26600079D01*
X5227325Y-26561984D02*
X5227325Y-26600079D01*
X5522563Y-26838174D02*
X5513039Y-26828650D01*
X5513039Y-26828650D02*
X5493991Y-26800079D01*
X5493991Y-26800079D02*
X5484468Y-26781031D01*
X5484468Y-26781031D02*
X5474944Y-26752460D01*
X5474944Y-26752460D02*
X5465420Y-26704841D01*
X5465420Y-26704841D02*
X5465420Y-26666746D01*
X5465420Y-26666746D02*
X5474944Y-26619127D01*
X5474944Y-26619127D02*
X5484468Y-26590555D01*
X5484468Y-26590555D02*
X5493991Y-26571508D01*
X5493991Y-26571508D02*
X5513039Y-26542936D01*
X5513039Y-26542936D02*
X5522563Y-26533412D01*
X5703515Y-26761984D02*
X5589230Y-26761984D01*
X5646372Y-26761984D02*
X5646372Y-26561984D01*
X5646372Y-26561984D02*
X5627325Y-26590555D01*
X5627325Y-26590555D02*
X5608277Y-26609603D01*
X5608277Y-26609603D02*
X5589230Y-26619127D01*
X5874944Y-26628650D02*
X5874944Y-26761984D01*
X5827325Y-26552460D02*
X5779706Y-26695317D01*
X5779706Y-26695317D02*
X5903515Y-26695317D01*
X6132087Y-26761984D02*
X6132087Y-26561984D01*
X6217801Y-26761984D02*
X6217801Y-26657222D01*
X6217801Y-26657222D02*
X6208277Y-26638174D01*
X6208277Y-26638174D02*
X6189230Y-26628650D01*
X6189230Y-26628650D02*
X6160658Y-26628650D01*
X6160658Y-26628650D02*
X6141610Y-26638174D01*
X6141610Y-26638174D02*
X6132087Y-26647698D01*
X6341610Y-26761984D02*
X6322563Y-26752460D01*
X6322563Y-26752460D02*
X6313039Y-26742936D01*
X6313039Y-26742936D02*
X6303515Y-26723888D01*
X6303515Y-26723888D02*
X6303515Y-26666746D01*
X6303515Y-26666746D02*
X6313039Y-26647698D01*
X6313039Y-26647698D02*
X6322563Y-26638174D01*
X6322563Y-26638174D02*
X6341610Y-26628650D01*
X6341610Y-26628650D02*
X6370182Y-26628650D01*
X6370182Y-26628650D02*
X6389230Y-26638174D01*
X6389230Y-26638174D02*
X6398753Y-26647698D01*
X6398753Y-26647698D02*
X6408277Y-26666746D01*
X6408277Y-26666746D02*
X6408277Y-26723888D01*
X6408277Y-26723888D02*
X6398753Y-26742936D01*
X6398753Y-26742936D02*
X6389230Y-26752460D01*
X6389230Y-26752460D02*
X6370182Y-26761984D01*
X6370182Y-26761984D02*
X6341610Y-26761984D01*
X6522563Y-26761984D02*
X6503515Y-26752460D01*
X6503515Y-26752460D02*
X6493991Y-26733412D01*
X6493991Y-26733412D02*
X6493991Y-26561984D01*
X6674944Y-26752460D02*
X6655896Y-26761984D01*
X6655896Y-26761984D02*
X6617801Y-26761984D01*
X6617801Y-26761984D02*
X6598753Y-26752460D01*
X6598753Y-26752460D02*
X6589230Y-26733412D01*
X6589230Y-26733412D02*
X6589230Y-26657222D01*
X6589230Y-26657222D02*
X6598753Y-26638174D01*
X6598753Y-26638174D02*
X6617801Y-26628650D01*
X6617801Y-26628650D02*
X6655896Y-26628650D01*
X6655896Y-26628650D02*
X6674944Y-26638174D01*
X6674944Y-26638174D02*
X6684468Y-26657222D01*
X6684468Y-26657222D02*
X6684468Y-26676269D01*
X6684468Y-26676269D02*
X6589230Y-26695317D01*
X6760658Y-26752460D02*
X6779706Y-26761984D01*
X6779706Y-26761984D02*
X6817801Y-26761984D01*
X6817801Y-26761984D02*
X6836849Y-26752460D01*
X6836849Y-26752460D02*
X6846372Y-26733412D01*
X6846372Y-26733412D02*
X6846372Y-26723888D01*
X6846372Y-26723888D02*
X6836849Y-26704841D01*
X6836849Y-26704841D02*
X6817801Y-26695317D01*
X6817801Y-26695317D02*
X6789230Y-26695317D01*
X6789230Y-26695317D02*
X6770182Y-26685793D01*
X6770182Y-26685793D02*
X6760658Y-26666746D01*
X6760658Y-26666746D02*
X6760658Y-26657222D01*
X6760658Y-26657222D02*
X6770182Y-26638174D01*
X6770182Y-26638174D02*
X6789230Y-26628650D01*
X6789230Y-26628650D02*
X6817801Y-26628650D01*
X6817801Y-26628650D02*
X6836849Y-26638174D01*
X6913039Y-26838174D02*
X6922563Y-26828650D01*
X6922563Y-26828650D02*
X6941611Y-26800079D01*
X6941611Y-26800079D02*
X6951134Y-26781031D01*
X6951134Y-26781031D02*
X6960658Y-26752460D01*
X6960658Y-26752460D02*
X6970182Y-26704841D01*
X6970182Y-26704841D02*
X6970182Y-26666746D01*
X6970182Y-26666746D02*
X6960658Y-26619127D01*
X6960658Y-26619127D02*
X6951134Y-26590555D01*
X6951134Y-26590555D02*
X6941611Y-26571508D01*
X6941611Y-26571508D02*
X6922563Y-26542936D01*
X6922563Y-26542936D02*
X6913039Y-26533412D01*
D12*
X1932856Y-26969856D02*
X1932856Y-26899144D01*
X1862144Y-26899144D01*
X1862144Y-26969856D01*
X1932856Y-26969856D01*
D11*
X2313039Y-27025984D02*
X2198753Y-27025984D01*
X2255896Y-27025984D02*
X2255896Y-26825984D01*
X2255896Y-26825984D02*
X2236848Y-26854555D01*
X2236848Y-26854555D02*
X2217801Y-26873603D01*
X2217801Y-26873603D02*
X2198753Y-26883127D01*
X2398753Y-27006936D02*
X2408277Y-27016460D01*
X2408277Y-27016460D02*
X2398753Y-27025984D01*
X2398753Y-27025984D02*
X2389229Y-27016460D01*
X2389229Y-27016460D02*
X2398753Y-27006936D01*
X2398753Y-27006936D02*
X2398753Y-27025984D01*
X2532086Y-26825984D02*
X2551134Y-26825984D01*
X2551134Y-26825984D02*
X2570182Y-26835508D01*
X2570182Y-26835508D02*
X2579705Y-26845031D01*
X2579705Y-26845031D02*
X2589229Y-26864079D01*
X2589229Y-26864079D02*
X2598753Y-26902174D01*
X2598753Y-26902174D02*
X2598753Y-26949793D01*
X2598753Y-26949793D02*
X2589229Y-26987888D01*
X2589229Y-26987888D02*
X2579705Y-27006936D01*
X2579705Y-27006936D02*
X2570182Y-27016460D01*
X2570182Y-27016460D02*
X2551134Y-27025984D01*
X2551134Y-27025984D02*
X2532086Y-27025984D01*
X2532086Y-27025984D02*
X2513039Y-27016460D01*
X2513039Y-27016460D02*
X2503515Y-27006936D01*
X2503515Y-27006936D02*
X2493991Y-26987888D01*
X2493991Y-26987888D02*
X2484467Y-26949793D01*
X2484467Y-26949793D02*
X2484467Y-26902174D01*
X2484467Y-26902174D02*
X2493991Y-26864079D01*
X2493991Y-26864079D02*
X2503515Y-26845031D01*
X2503515Y-26845031D02*
X2513039Y-26835508D01*
X2513039Y-26835508D02*
X2532086Y-26825984D01*
X2722563Y-26825984D02*
X2741610Y-26825984D01*
X2741610Y-26825984D02*
X2760658Y-26835508D01*
X2760658Y-26835508D02*
X2770182Y-26845031D01*
X2770182Y-26845031D02*
X2779705Y-26864079D01*
X2779705Y-26864079D02*
X2789229Y-26902174D01*
X2789229Y-26902174D02*
X2789229Y-26949793D01*
X2789229Y-26949793D02*
X2779705Y-26987888D01*
X2779705Y-26987888D02*
X2770182Y-27006936D01*
X2770182Y-27006936D02*
X2760658Y-27016460D01*
X2760658Y-27016460D02*
X2741610Y-27025984D01*
X2741610Y-27025984D02*
X2722563Y-27025984D01*
X2722563Y-27025984D02*
X2703515Y-27016460D01*
X2703515Y-27016460D02*
X2693991Y-27006936D01*
X2693991Y-27006936D02*
X2684467Y-26987888D01*
X2684467Y-26987888D02*
X2674944Y-26949793D01*
X2674944Y-26949793D02*
X2674944Y-26902174D01*
X2674944Y-26902174D02*
X2684467Y-26864079D01*
X2684467Y-26864079D02*
X2693991Y-26845031D01*
X2693991Y-26845031D02*
X2703515Y-26835508D01*
X2703515Y-26835508D02*
X2722563Y-26825984D01*
X2913039Y-26825984D02*
X2932086Y-26825984D01*
X2932086Y-26825984D02*
X2951134Y-26835508D01*
X2951134Y-26835508D02*
X2960658Y-26845031D01*
X2960658Y-26845031D02*
X2970182Y-26864079D01*
X2970182Y-26864079D02*
X2979705Y-26902174D01*
X2979705Y-26902174D02*
X2979705Y-26949793D01*
X2979705Y-26949793D02*
X2970182Y-26987888D01*
X2970182Y-26987888D02*
X2960658Y-27006936D01*
X2960658Y-27006936D02*
X2951134Y-27016460D01*
X2951134Y-27016460D02*
X2932086Y-27025984D01*
X2932086Y-27025984D02*
X2913039Y-27025984D01*
X2913039Y-27025984D02*
X2893991Y-27016460D01*
X2893991Y-27016460D02*
X2884467Y-27006936D01*
X2884467Y-27006936D02*
X2874943Y-26987888D01*
X2874943Y-26987888D02*
X2865420Y-26949793D01*
X2865420Y-26949793D02*
X2865420Y-26902174D01*
X2865420Y-26902174D02*
X2874943Y-26864079D01*
X2874943Y-26864079D02*
X2884467Y-26845031D01*
X2884467Y-26845031D02*
X2893991Y-26835508D01*
X2893991Y-26835508D02*
X2913039Y-26825984D01*
X3065420Y-27025984D02*
X3065420Y-26892650D01*
X3065420Y-26911698D02*
X3074943Y-26902174D01*
X3074943Y-26902174D02*
X3093991Y-26892650D01*
X3093991Y-26892650D02*
X3122563Y-26892650D01*
X3122563Y-26892650D02*
X3141610Y-26902174D01*
X3141610Y-26902174D02*
X3151134Y-26921222D01*
X3151134Y-26921222D02*
X3151134Y-27025984D01*
X3151134Y-26921222D02*
X3160658Y-26902174D01*
X3160658Y-26902174D02*
X3179705Y-26892650D01*
X3179705Y-26892650D02*
X3208277Y-26892650D01*
X3208277Y-26892650D02*
X3227324Y-26902174D01*
X3227324Y-26902174D02*
X3236848Y-26921222D01*
X3236848Y-26921222D02*
X3236848Y-27025984D01*
X3332086Y-27025984D02*
X3332086Y-26892650D01*
X3332086Y-26911698D02*
X3341610Y-26902174D01*
X3341610Y-26902174D02*
X3360658Y-26892650D01*
X3360658Y-26892650D02*
X3389229Y-26892650D01*
X3389229Y-26892650D02*
X3408277Y-26902174D01*
X3408277Y-26902174D02*
X3417801Y-26921222D01*
X3417801Y-26921222D02*
X3417801Y-27025984D01*
X3417801Y-26921222D02*
X3427324Y-26902174D01*
X3427324Y-26902174D02*
X3446372Y-26892650D01*
X3446372Y-26892650D02*
X3474943Y-26892650D01*
X3474943Y-26892650D02*
X3493991Y-26902174D01*
X3493991Y-26902174D02*
X3503515Y-26921222D01*
X3503515Y-26921222D02*
X3503515Y-27025984D01*
X3893991Y-26816460D02*
X3722563Y-27073603D01*
X4151134Y-26825984D02*
X4170182Y-26825984D01*
X4170182Y-26825984D02*
X4189229Y-26835508D01*
X4189229Y-26835508D02*
X4198753Y-26845031D01*
X4198753Y-26845031D02*
X4208277Y-26864079D01*
X4208277Y-26864079D02*
X4217801Y-26902174D01*
X4217801Y-26902174D02*
X4217801Y-26949793D01*
X4217801Y-26949793D02*
X4208277Y-26987888D01*
X4208277Y-26987888D02*
X4198753Y-27006936D01*
X4198753Y-27006936D02*
X4189229Y-27016460D01*
X4189229Y-27016460D02*
X4170182Y-27025984D01*
X4170182Y-27025984D02*
X4151134Y-27025984D01*
X4151134Y-27025984D02*
X4132086Y-27016460D01*
X4132086Y-27016460D02*
X4122563Y-27006936D01*
X4122563Y-27006936D02*
X4113039Y-26987888D01*
X4113039Y-26987888D02*
X4103515Y-26949793D01*
X4103515Y-26949793D02*
X4103515Y-26902174D01*
X4103515Y-26902174D02*
X4113039Y-26864079D01*
X4113039Y-26864079D02*
X4122563Y-26845031D01*
X4122563Y-26845031D02*
X4132086Y-26835508D01*
X4132086Y-26835508D02*
X4151134Y-26825984D01*
X4303515Y-27006936D02*
X4313039Y-27016460D01*
X4313039Y-27016460D02*
X4303515Y-27025984D01*
X4303515Y-27025984D02*
X4293991Y-27016460D01*
X4293991Y-27016460D02*
X4303515Y-27006936D01*
X4303515Y-27006936D02*
X4303515Y-27025984D01*
X4436848Y-26825984D02*
X4455896Y-26825984D01*
X4455896Y-26825984D02*
X4474944Y-26835508D01*
X4474944Y-26835508D02*
X4484468Y-26845031D01*
X4484468Y-26845031D02*
X4493991Y-26864079D01*
X4493991Y-26864079D02*
X4503515Y-26902174D01*
X4503515Y-26902174D02*
X4503515Y-26949793D01*
X4503515Y-26949793D02*
X4493991Y-26987888D01*
X4493991Y-26987888D02*
X4484468Y-27006936D01*
X4484468Y-27006936D02*
X4474944Y-27016460D01*
X4474944Y-27016460D02*
X4455896Y-27025984D01*
X4455896Y-27025984D02*
X4436848Y-27025984D01*
X4436848Y-27025984D02*
X4417801Y-27016460D01*
X4417801Y-27016460D02*
X4408277Y-27006936D01*
X4408277Y-27006936D02*
X4398753Y-26987888D01*
X4398753Y-26987888D02*
X4389229Y-26949793D01*
X4389229Y-26949793D02*
X4389229Y-26902174D01*
X4389229Y-26902174D02*
X4398753Y-26864079D01*
X4398753Y-26864079D02*
X4408277Y-26845031D01*
X4408277Y-26845031D02*
X4417801Y-26835508D01*
X4417801Y-26835508D02*
X4436848Y-26825984D01*
X4570182Y-26825984D02*
X4693991Y-26825984D01*
X4693991Y-26825984D02*
X4627325Y-26902174D01*
X4627325Y-26902174D02*
X4655896Y-26902174D01*
X4655896Y-26902174D02*
X4674944Y-26911698D01*
X4674944Y-26911698D02*
X4684468Y-26921222D01*
X4684468Y-26921222D02*
X4693991Y-26940269D01*
X4693991Y-26940269D02*
X4693991Y-26987888D01*
X4693991Y-26987888D02*
X4684468Y-27006936D01*
X4684468Y-27006936D02*
X4674944Y-27016460D01*
X4674944Y-27016460D02*
X4655896Y-27025984D01*
X4655896Y-27025984D02*
X4598753Y-27025984D01*
X4598753Y-27025984D02*
X4579706Y-27016460D01*
X4579706Y-27016460D02*
X4570182Y-27006936D01*
X4789229Y-27025984D02*
X4827325Y-27025984D01*
X4827325Y-27025984D02*
X4846372Y-27016460D01*
X4846372Y-27016460D02*
X4855896Y-27006936D01*
X4855896Y-27006936D02*
X4874944Y-26978365D01*
X4874944Y-26978365D02*
X4884468Y-26940269D01*
X4884468Y-26940269D02*
X4884468Y-26864079D01*
X4884468Y-26864079D02*
X4874944Y-26845031D01*
X4874944Y-26845031D02*
X4865420Y-26835508D01*
X4865420Y-26835508D02*
X4846372Y-26825984D01*
X4846372Y-26825984D02*
X4808277Y-26825984D01*
X4808277Y-26825984D02*
X4789229Y-26835508D01*
X4789229Y-26835508D02*
X4779706Y-26845031D01*
X4779706Y-26845031D02*
X4770182Y-26864079D01*
X4770182Y-26864079D02*
X4770182Y-26911698D01*
X4770182Y-26911698D02*
X4779706Y-26930746D01*
X4779706Y-26930746D02*
X4789229Y-26940269D01*
X4789229Y-26940269D02*
X4808277Y-26949793D01*
X4808277Y-26949793D02*
X4846372Y-26949793D01*
X4846372Y-26949793D02*
X4865420Y-26940269D01*
X4865420Y-26940269D02*
X4874944Y-26930746D01*
X4874944Y-26930746D02*
X4884468Y-26911698D01*
X5055896Y-26892650D02*
X5055896Y-27025984D01*
X5008277Y-26816460D02*
X4960658Y-26959317D01*
X4960658Y-26959317D02*
X5084468Y-26959317D01*
X5151134Y-26825984D02*
X5151134Y-26864079D01*
X5227325Y-26825984D02*
X5227325Y-26864079D01*
X5522563Y-27102174D02*
X5513039Y-27092650D01*
X5513039Y-27092650D02*
X5493991Y-27064079D01*
X5493991Y-27064079D02*
X5484468Y-27045031D01*
X5484468Y-27045031D02*
X5474944Y-27016460D01*
X5474944Y-27016460D02*
X5465420Y-26968841D01*
X5465420Y-26968841D02*
X5465420Y-26930746D01*
X5465420Y-26930746D02*
X5474944Y-26883127D01*
X5474944Y-26883127D02*
X5484468Y-26854555D01*
X5484468Y-26854555D02*
X5493991Y-26835508D01*
X5493991Y-26835508D02*
X5513039Y-26806936D01*
X5513039Y-26806936D02*
X5522563Y-26797412D01*
X5703515Y-27025984D02*
X5589230Y-27025984D01*
X5646372Y-27025984D02*
X5646372Y-26825984D01*
X5646372Y-26825984D02*
X5627325Y-26854555D01*
X5627325Y-26854555D02*
X5608277Y-26873603D01*
X5608277Y-26873603D02*
X5589230Y-26883127D01*
X5874944Y-26892650D02*
X5874944Y-27025984D01*
X5827325Y-26816460D02*
X5779706Y-26959317D01*
X5779706Y-26959317D02*
X5903515Y-26959317D01*
X6132087Y-27025984D02*
X6132087Y-26825984D01*
X6217801Y-27025984D02*
X6217801Y-26921222D01*
X6217801Y-26921222D02*
X6208277Y-26902174D01*
X6208277Y-26902174D02*
X6189230Y-26892650D01*
X6189230Y-26892650D02*
X6160658Y-26892650D01*
X6160658Y-26892650D02*
X6141610Y-26902174D01*
X6141610Y-26902174D02*
X6132087Y-26911698D01*
X6341610Y-27025984D02*
X6322563Y-27016460D01*
X6322563Y-27016460D02*
X6313039Y-27006936D01*
X6313039Y-27006936D02*
X6303515Y-26987888D01*
X6303515Y-26987888D02*
X6303515Y-26930746D01*
X6303515Y-26930746D02*
X6313039Y-26911698D01*
X6313039Y-26911698D02*
X6322563Y-26902174D01*
X6322563Y-26902174D02*
X6341610Y-26892650D01*
X6341610Y-26892650D02*
X6370182Y-26892650D01*
X6370182Y-26892650D02*
X6389230Y-26902174D01*
X6389230Y-26902174D02*
X6398753Y-26911698D01*
X6398753Y-26911698D02*
X6408277Y-26930746D01*
X6408277Y-26930746D02*
X6408277Y-26987888D01*
X6408277Y-26987888D02*
X6398753Y-27006936D01*
X6398753Y-27006936D02*
X6389230Y-27016460D01*
X6389230Y-27016460D02*
X6370182Y-27025984D01*
X6370182Y-27025984D02*
X6341610Y-27025984D01*
X6522563Y-27025984D02*
X6503515Y-27016460D01*
X6503515Y-27016460D02*
X6493991Y-26997412D01*
X6493991Y-26997412D02*
X6493991Y-26825984D01*
X6674944Y-27016460D02*
X6655896Y-27025984D01*
X6655896Y-27025984D02*
X6617801Y-27025984D01*
X6617801Y-27025984D02*
X6598753Y-27016460D01*
X6598753Y-27016460D02*
X6589230Y-26997412D01*
X6589230Y-26997412D02*
X6589230Y-26921222D01*
X6589230Y-26921222D02*
X6598753Y-26902174D01*
X6598753Y-26902174D02*
X6617801Y-26892650D01*
X6617801Y-26892650D02*
X6655896Y-26892650D01*
X6655896Y-26892650D02*
X6674944Y-26902174D01*
X6674944Y-26902174D02*
X6684468Y-26921222D01*
X6684468Y-26921222D02*
X6684468Y-26940269D01*
X6684468Y-26940269D02*
X6589230Y-26959317D01*
X6760658Y-27016460D02*
X6779706Y-27025984D01*
X6779706Y-27025984D02*
X6817801Y-27025984D01*
X6817801Y-27025984D02*
X6836849Y-27016460D01*
X6836849Y-27016460D02*
X6846372Y-26997412D01*
X6846372Y-26997412D02*
X6846372Y-26987888D01*
X6846372Y-26987888D02*
X6836849Y-26968841D01*
X6836849Y-26968841D02*
X6817801Y-26959317D01*
X6817801Y-26959317D02*
X6789230Y-26959317D01*
X6789230Y-26959317D02*
X6770182Y-26949793D01*
X6770182Y-26949793D02*
X6760658Y-26930746D01*
X6760658Y-26930746D02*
X6760658Y-26921222D01*
X6760658Y-26921222D02*
X6770182Y-26902174D01*
X6770182Y-26902174D02*
X6789230Y-26892650D01*
X6789230Y-26892650D02*
X6817801Y-26892650D01*
X6817801Y-26892650D02*
X6836849Y-26902174D01*
X6913039Y-27102174D02*
X6922563Y-27092650D01*
X6922563Y-27092650D02*
X6941611Y-27064079D01*
X6941611Y-27064079D02*
X6951134Y-27045031D01*
X6951134Y-27045031D02*
X6960658Y-27016460D01*
X6960658Y-27016460D02*
X6970182Y-26968841D01*
X6970182Y-26968841D02*
X6970182Y-26930746D01*
X6970182Y-26930746D02*
X6960658Y-26883127D01*
X6960658Y-26883127D02*
X6951134Y-26854555D01*
X6951134Y-26854555D02*
X6941611Y-26835508D01*
X6941611Y-26835508D02*
X6922563Y-26806936D01*
X6922563Y-26806936D02*
X6913039Y-26797412D01*
D13*
X1892500Y-27253500D02*
X1947500Y-27198500D01*
X1892500Y-27143500D01*
X1837500Y-27198500D01*
X1892500Y-27253500D01*
D11*
X2313039Y-27289984D02*
X2198753Y-27289984D01*
X2255896Y-27289984D02*
X2255896Y-27089984D01*
X2255896Y-27089984D02*
X2236848Y-27118555D01*
X2236848Y-27118555D02*
X2217801Y-27137603D01*
X2217801Y-27137603D02*
X2198753Y-27147127D01*
X2398753Y-27270936D02*
X2408277Y-27280460D01*
X2408277Y-27280460D02*
X2398753Y-27289984D01*
X2398753Y-27289984D02*
X2389229Y-27280460D01*
X2389229Y-27280460D02*
X2398753Y-27270936D01*
X2398753Y-27270936D02*
X2398753Y-27289984D01*
X2598753Y-27289984D02*
X2484467Y-27289984D01*
X2541610Y-27289984D02*
X2541610Y-27089984D01*
X2541610Y-27089984D02*
X2522563Y-27118555D01*
X2522563Y-27118555D02*
X2503515Y-27137603D01*
X2503515Y-27137603D02*
X2484467Y-27147127D01*
X2722563Y-27089984D02*
X2741610Y-27089984D01*
X2741610Y-27089984D02*
X2760658Y-27099508D01*
X2760658Y-27099508D02*
X2770182Y-27109031D01*
X2770182Y-27109031D02*
X2779705Y-27128079D01*
X2779705Y-27128079D02*
X2789229Y-27166174D01*
X2789229Y-27166174D02*
X2789229Y-27213793D01*
X2789229Y-27213793D02*
X2779705Y-27251888D01*
X2779705Y-27251888D02*
X2770182Y-27270936D01*
X2770182Y-27270936D02*
X2760658Y-27280460D01*
X2760658Y-27280460D02*
X2741610Y-27289984D01*
X2741610Y-27289984D02*
X2722563Y-27289984D01*
X2722563Y-27289984D02*
X2703515Y-27280460D01*
X2703515Y-27280460D02*
X2693991Y-27270936D01*
X2693991Y-27270936D02*
X2684467Y-27251888D01*
X2684467Y-27251888D02*
X2674944Y-27213793D01*
X2674944Y-27213793D02*
X2674944Y-27166174D01*
X2674944Y-27166174D02*
X2684467Y-27128079D01*
X2684467Y-27128079D02*
X2693991Y-27109031D01*
X2693991Y-27109031D02*
X2703515Y-27099508D01*
X2703515Y-27099508D02*
X2722563Y-27089984D01*
X2913039Y-27089984D02*
X2932086Y-27089984D01*
X2932086Y-27089984D02*
X2951134Y-27099508D01*
X2951134Y-27099508D02*
X2960658Y-27109031D01*
X2960658Y-27109031D02*
X2970182Y-27128079D01*
X2970182Y-27128079D02*
X2979705Y-27166174D01*
X2979705Y-27166174D02*
X2979705Y-27213793D01*
X2979705Y-27213793D02*
X2970182Y-27251888D01*
X2970182Y-27251888D02*
X2960658Y-27270936D01*
X2960658Y-27270936D02*
X2951134Y-27280460D01*
X2951134Y-27280460D02*
X2932086Y-27289984D01*
X2932086Y-27289984D02*
X2913039Y-27289984D01*
X2913039Y-27289984D02*
X2893991Y-27280460D01*
X2893991Y-27280460D02*
X2884467Y-27270936D01*
X2884467Y-27270936D02*
X2874943Y-27251888D01*
X2874943Y-27251888D02*
X2865420Y-27213793D01*
X2865420Y-27213793D02*
X2865420Y-27166174D01*
X2865420Y-27166174D02*
X2874943Y-27128079D01*
X2874943Y-27128079D02*
X2884467Y-27109031D01*
X2884467Y-27109031D02*
X2893991Y-27099508D01*
X2893991Y-27099508D02*
X2913039Y-27089984D01*
X3065420Y-27289984D02*
X3065420Y-27156650D01*
X3065420Y-27175698D02*
X3074943Y-27166174D01*
X3074943Y-27166174D02*
X3093991Y-27156650D01*
X3093991Y-27156650D02*
X3122563Y-27156650D01*
X3122563Y-27156650D02*
X3141610Y-27166174D01*
X3141610Y-27166174D02*
X3151134Y-27185222D01*
X3151134Y-27185222D02*
X3151134Y-27289984D01*
X3151134Y-27185222D02*
X3160658Y-27166174D01*
X3160658Y-27166174D02*
X3179705Y-27156650D01*
X3179705Y-27156650D02*
X3208277Y-27156650D01*
X3208277Y-27156650D02*
X3227324Y-27166174D01*
X3227324Y-27166174D02*
X3236848Y-27185222D01*
X3236848Y-27185222D02*
X3236848Y-27289984D01*
X3332086Y-27289984D02*
X3332086Y-27156650D01*
X3332086Y-27175698D02*
X3341610Y-27166174D01*
X3341610Y-27166174D02*
X3360658Y-27156650D01*
X3360658Y-27156650D02*
X3389229Y-27156650D01*
X3389229Y-27156650D02*
X3408277Y-27166174D01*
X3408277Y-27166174D02*
X3417801Y-27185222D01*
X3417801Y-27185222D02*
X3417801Y-27289984D01*
X3417801Y-27185222D02*
X3427324Y-27166174D01*
X3427324Y-27166174D02*
X3446372Y-27156650D01*
X3446372Y-27156650D02*
X3474943Y-27156650D01*
X3474943Y-27156650D02*
X3493991Y-27166174D01*
X3493991Y-27166174D02*
X3503515Y-27185222D01*
X3503515Y-27185222D02*
X3503515Y-27289984D01*
X3893991Y-27080460D02*
X3722563Y-27337603D01*
X4151134Y-27089984D02*
X4170182Y-27089984D01*
X4170182Y-27089984D02*
X4189229Y-27099508D01*
X4189229Y-27099508D02*
X4198753Y-27109031D01*
X4198753Y-27109031D02*
X4208277Y-27128079D01*
X4208277Y-27128079D02*
X4217801Y-27166174D01*
X4217801Y-27166174D02*
X4217801Y-27213793D01*
X4217801Y-27213793D02*
X4208277Y-27251888D01*
X4208277Y-27251888D02*
X4198753Y-27270936D01*
X4198753Y-27270936D02*
X4189229Y-27280460D01*
X4189229Y-27280460D02*
X4170182Y-27289984D01*
X4170182Y-27289984D02*
X4151134Y-27289984D01*
X4151134Y-27289984D02*
X4132086Y-27280460D01*
X4132086Y-27280460D02*
X4122563Y-27270936D01*
X4122563Y-27270936D02*
X4113039Y-27251888D01*
X4113039Y-27251888D02*
X4103515Y-27213793D01*
X4103515Y-27213793D02*
X4103515Y-27166174D01*
X4103515Y-27166174D02*
X4113039Y-27128079D01*
X4113039Y-27128079D02*
X4122563Y-27109031D01*
X4122563Y-27109031D02*
X4132086Y-27099508D01*
X4132086Y-27099508D02*
X4151134Y-27089984D01*
X4303515Y-27270936D02*
X4313039Y-27280460D01*
X4313039Y-27280460D02*
X4303515Y-27289984D01*
X4303515Y-27289984D02*
X4293991Y-27280460D01*
X4293991Y-27280460D02*
X4303515Y-27270936D01*
X4303515Y-27270936D02*
X4303515Y-27289984D01*
X4436848Y-27089984D02*
X4455896Y-27089984D01*
X4455896Y-27089984D02*
X4474944Y-27099508D01*
X4474944Y-27099508D02*
X4484468Y-27109031D01*
X4484468Y-27109031D02*
X4493991Y-27128079D01*
X4493991Y-27128079D02*
X4503515Y-27166174D01*
X4503515Y-27166174D02*
X4503515Y-27213793D01*
X4503515Y-27213793D02*
X4493991Y-27251888D01*
X4493991Y-27251888D02*
X4484468Y-27270936D01*
X4484468Y-27270936D02*
X4474944Y-27280460D01*
X4474944Y-27280460D02*
X4455896Y-27289984D01*
X4455896Y-27289984D02*
X4436848Y-27289984D01*
X4436848Y-27289984D02*
X4417801Y-27280460D01*
X4417801Y-27280460D02*
X4408277Y-27270936D01*
X4408277Y-27270936D02*
X4398753Y-27251888D01*
X4398753Y-27251888D02*
X4389229Y-27213793D01*
X4389229Y-27213793D02*
X4389229Y-27166174D01*
X4389229Y-27166174D02*
X4398753Y-27128079D01*
X4398753Y-27128079D02*
X4408277Y-27109031D01*
X4408277Y-27109031D02*
X4417801Y-27099508D01*
X4417801Y-27099508D02*
X4436848Y-27089984D01*
X4674944Y-27156650D02*
X4674944Y-27289984D01*
X4627325Y-27080460D02*
X4579706Y-27223317D01*
X4579706Y-27223317D02*
X4703515Y-27223317D01*
X4760658Y-27089984D02*
X4884468Y-27089984D01*
X4884468Y-27089984D02*
X4817801Y-27166174D01*
X4817801Y-27166174D02*
X4846372Y-27166174D01*
X4846372Y-27166174D02*
X4865420Y-27175698D01*
X4865420Y-27175698D02*
X4874944Y-27185222D01*
X4874944Y-27185222D02*
X4884468Y-27204269D01*
X4884468Y-27204269D02*
X4884468Y-27251888D01*
X4884468Y-27251888D02*
X4874944Y-27270936D01*
X4874944Y-27270936D02*
X4865420Y-27280460D01*
X4865420Y-27280460D02*
X4846372Y-27289984D01*
X4846372Y-27289984D02*
X4789229Y-27289984D01*
X4789229Y-27289984D02*
X4770182Y-27280460D01*
X4770182Y-27280460D02*
X4760658Y-27270936D01*
X4951134Y-27089984D02*
X5074944Y-27089984D01*
X5074944Y-27089984D02*
X5008277Y-27166174D01*
X5008277Y-27166174D02*
X5036849Y-27166174D01*
X5036849Y-27166174D02*
X5055896Y-27175698D01*
X5055896Y-27175698D02*
X5065420Y-27185222D01*
X5065420Y-27185222D02*
X5074944Y-27204269D01*
X5074944Y-27204269D02*
X5074944Y-27251888D01*
X5074944Y-27251888D02*
X5065420Y-27270936D01*
X5065420Y-27270936D02*
X5055896Y-27280460D01*
X5055896Y-27280460D02*
X5036849Y-27289984D01*
X5036849Y-27289984D02*
X4979706Y-27289984D01*
X4979706Y-27289984D02*
X4960658Y-27280460D01*
X4960658Y-27280460D02*
X4951134Y-27270936D01*
X5151134Y-27089984D02*
X5151134Y-27128079D01*
X5227325Y-27089984D02*
X5227325Y-27128079D01*
X5522563Y-27366174D02*
X5513039Y-27356650D01*
X5513039Y-27356650D02*
X5493991Y-27328079D01*
X5493991Y-27328079D02*
X5484468Y-27309031D01*
X5484468Y-27309031D02*
X5474944Y-27280460D01*
X5474944Y-27280460D02*
X5465420Y-27232841D01*
X5465420Y-27232841D02*
X5465420Y-27194746D01*
X5465420Y-27194746D02*
X5474944Y-27147127D01*
X5474944Y-27147127D02*
X5484468Y-27118555D01*
X5484468Y-27118555D02*
X5493991Y-27099508D01*
X5493991Y-27099508D02*
X5513039Y-27070936D01*
X5513039Y-27070936D02*
X5522563Y-27061412D01*
X5589230Y-27109031D02*
X5598753Y-27099508D01*
X5598753Y-27099508D02*
X5617801Y-27089984D01*
X5617801Y-27089984D02*
X5665420Y-27089984D01*
X5665420Y-27089984D02*
X5684468Y-27099508D01*
X5684468Y-27099508D02*
X5693991Y-27109031D01*
X5693991Y-27109031D02*
X5703515Y-27128079D01*
X5703515Y-27128079D02*
X5703515Y-27147127D01*
X5703515Y-27147127D02*
X5693991Y-27175698D01*
X5693991Y-27175698D02*
X5579706Y-27289984D01*
X5579706Y-27289984D02*
X5703515Y-27289984D01*
X5893991Y-27289984D02*
X5779706Y-27289984D01*
X5836848Y-27289984D02*
X5836848Y-27089984D01*
X5836848Y-27089984D02*
X5817801Y-27118555D01*
X5817801Y-27118555D02*
X5798753Y-27137603D01*
X5798753Y-27137603D02*
X5779706Y-27147127D01*
X6008277Y-27175698D02*
X5989229Y-27166174D01*
X5989229Y-27166174D02*
X5979706Y-27156650D01*
X5979706Y-27156650D02*
X5970182Y-27137603D01*
X5970182Y-27137603D02*
X5970182Y-27128079D01*
X5970182Y-27128079D02*
X5979706Y-27109031D01*
X5979706Y-27109031D02*
X5989229Y-27099508D01*
X5989229Y-27099508D02*
X6008277Y-27089984D01*
X6008277Y-27089984D02*
X6046372Y-27089984D01*
X6046372Y-27089984D02*
X6065420Y-27099508D01*
X6065420Y-27099508D02*
X6074944Y-27109031D01*
X6074944Y-27109031D02*
X6084468Y-27128079D01*
X6084468Y-27128079D02*
X6084468Y-27137603D01*
X6084468Y-27137603D02*
X6074944Y-27156650D01*
X6074944Y-27156650D02*
X6065420Y-27166174D01*
X6065420Y-27166174D02*
X6046372Y-27175698D01*
X6046372Y-27175698D02*
X6008277Y-27175698D01*
X6008277Y-27175698D02*
X5989229Y-27185222D01*
X5989229Y-27185222D02*
X5979706Y-27194746D01*
X5979706Y-27194746D02*
X5970182Y-27213793D01*
X5970182Y-27213793D02*
X5970182Y-27251888D01*
X5970182Y-27251888D02*
X5979706Y-27270936D01*
X5979706Y-27270936D02*
X5989229Y-27280460D01*
X5989229Y-27280460D02*
X6008277Y-27289984D01*
X6008277Y-27289984D02*
X6046372Y-27289984D01*
X6046372Y-27289984D02*
X6065420Y-27280460D01*
X6065420Y-27280460D02*
X6074944Y-27270936D01*
X6074944Y-27270936D02*
X6084468Y-27251888D01*
X6084468Y-27251888D02*
X6084468Y-27213793D01*
X6084468Y-27213793D02*
X6074944Y-27194746D01*
X6074944Y-27194746D02*
X6065420Y-27185222D01*
X6065420Y-27185222D02*
X6046372Y-27175698D01*
X6322563Y-27289984D02*
X6322563Y-27089984D01*
X6408277Y-27289984D02*
X6408277Y-27185222D01*
X6408277Y-27185222D02*
X6398753Y-27166174D01*
X6398753Y-27166174D02*
X6379706Y-27156650D01*
X6379706Y-27156650D02*
X6351134Y-27156650D01*
X6351134Y-27156650D02*
X6332087Y-27166174D01*
X6332087Y-27166174D02*
X6322563Y-27175698D01*
X6532087Y-27289984D02*
X6513039Y-27280460D01*
X6513039Y-27280460D02*
X6503515Y-27270936D01*
X6503515Y-27270936D02*
X6493991Y-27251888D01*
X6493991Y-27251888D02*
X6493991Y-27194746D01*
X6493991Y-27194746D02*
X6503515Y-27175698D01*
X6503515Y-27175698D02*
X6513039Y-27166174D01*
X6513039Y-27166174D02*
X6532087Y-27156650D01*
X6532087Y-27156650D02*
X6560658Y-27156650D01*
X6560658Y-27156650D02*
X6579706Y-27166174D01*
X6579706Y-27166174D02*
X6589230Y-27175698D01*
X6589230Y-27175698D02*
X6598753Y-27194746D01*
X6598753Y-27194746D02*
X6598753Y-27251888D01*
X6598753Y-27251888D02*
X6589230Y-27270936D01*
X6589230Y-27270936D02*
X6579706Y-27280460D01*
X6579706Y-27280460D02*
X6560658Y-27289984D01*
X6560658Y-27289984D02*
X6532087Y-27289984D01*
X6713039Y-27289984D02*
X6693991Y-27280460D01*
X6693991Y-27280460D02*
X6684468Y-27261412D01*
X6684468Y-27261412D02*
X6684468Y-27089984D01*
X6865420Y-27280460D02*
X6846372Y-27289984D01*
X6846372Y-27289984D02*
X6808277Y-27289984D01*
X6808277Y-27289984D02*
X6789230Y-27280460D01*
X6789230Y-27280460D02*
X6779706Y-27261412D01*
X6779706Y-27261412D02*
X6779706Y-27185222D01*
X6779706Y-27185222D02*
X6789230Y-27166174D01*
X6789230Y-27166174D02*
X6808277Y-27156650D01*
X6808277Y-27156650D02*
X6846372Y-27156650D01*
X6846372Y-27156650D02*
X6865420Y-27166174D01*
X6865420Y-27166174D02*
X6874944Y-27185222D01*
X6874944Y-27185222D02*
X6874944Y-27204269D01*
X6874944Y-27204269D02*
X6779706Y-27223317D01*
X6951134Y-27280460D02*
X6970182Y-27289984D01*
X6970182Y-27289984D02*
X7008277Y-27289984D01*
X7008277Y-27289984D02*
X7027325Y-27280460D01*
X7027325Y-27280460D02*
X7036849Y-27261412D01*
X7036849Y-27261412D02*
X7036849Y-27251888D01*
X7036849Y-27251888D02*
X7027325Y-27232841D01*
X7027325Y-27232841D02*
X7008277Y-27223317D01*
X7008277Y-27223317D02*
X6979706Y-27223317D01*
X6979706Y-27223317D02*
X6960658Y-27213793D01*
X6960658Y-27213793D02*
X6951134Y-27194746D01*
X6951134Y-27194746D02*
X6951134Y-27185222D01*
X6951134Y-27185222D02*
X6960658Y-27166174D01*
X6960658Y-27166174D02*
X6979706Y-27156650D01*
X6979706Y-27156650D02*
X7008277Y-27156650D01*
X7008277Y-27156650D02*
X7027325Y-27166174D01*
X7103515Y-27366174D02*
X7113039Y-27356650D01*
X7113039Y-27356650D02*
X7132087Y-27328079D01*
X7132087Y-27328079D02*
X7141611Y-27309031D01*
X7141611Y-27309031D02*
X7151134Y-27280460D01*
X7151134Y-27280460D02*
X7160658Y-27232841D01*
X7160658Y-27232841D02*
X7160658Y-27194746D01*
X7160658Y-27194746D02*
X7151134Y-27147127D01*
X7151134Y-27147127D02*
X7141611Y-27118555D01*
X7141611Y-27118555D02*
X7132087Y-27099508D01*
X7132087Y-27099508D02*
X7113039Y-27070936D01*
X7113039Y-27070936D02*
X7103515Y-27061412D01*
D14*
X1797500Y-27387500D02*
X1947500Y-27537500D01*
X1947500Y-27387500D02*
X1797500Y-27537500D01*
X1947500Y-27462500D02*
G75*
G02*
X1797500Y-27462500I-75000J0D01*
G01*
X1797500Y-27462500D02*
G75*
G02*
X1947500Y-27462500I75000J0D01*
G01*
D11*
X2313039Y-27553984D02*
X2198753Y-27553984D01*
X2255896Y-27553984D02*
X2255896Y-27353984D01*
X2255896Y-27353984D02*
X2236848Y-27382555D01*
X2236848Y-27382555D02*
X2217801Y-27401603D01*
X2217801Y-27401603D02*
X2198753Y-27411127D01*
X2398753Y-27534936D02*
X2408277Y-27544460D01*
X2408277Y-27544460D02*
X2398753Y-27553984D01*
X2398753Y-27553984D02*
X2389229Y-27544460D01*
X2389229Y-27544460D02*
X2398753Y-27534936D01*
X2398753Y-27534936D02*
X2398753Y-27553984D01*
X2589229Y-27353984D02*
X2493991Y-27353984D01*
X2493991Y-27353984D02*
X2484467Y-27449222D01*
X2484467Y-27449222D02*
X2493991Y-27439698D01*
X2493991Y-27439698D02*
X2513039Y-27430174D01*
X2513039Y-27430174D02*
X2560658Y-27430174D01*
X2560658Y-27430174D02*
X2579705Y-27439698D01*
X2579705Y-27439698D02*
X2589229Y-27449222D01*
X2589229Y-27449222D02*
X2598753Y-27468269D01*
X2598753Y-27468269D02*
X2598753Y-27515888D01*
X2598753Y-27515888D02*
X2589229Y-27534936D01*
X2589229Y-27534936D02*
X2579705Y-27544460D01*
X2579705Y-27544460D02*
X2560658Y-27553984D01*
X2560658Y-27553984D02*
X2513039Y-27553984D01*
X2513039Y-27553984D02*
X2493991Y-27544460D01*
X2493991Y-27544460D02*
X2484467Y-27534936D01*
X2722563Y-27353984D02*
X2741610Y-27353984D01*
X2741610Y-27353984D02*
X2760658Y-27363508D01*
X2760658Y-27363508D02*
X2770182Y-27373031D01*
X2770182Y-27373031D02*
X2779705Y-27392079D01*
X2779705Y-27392079D02*
X2789229Y-27430174D01*
X2789229Y-27430174D02*
X2789229Y-27477793D01*
X2789229Y-27477793D02*
X2779705Y-27515888D01*
X2779705Y-27515888D02*
X2770182Y-27534936D01*
X2770182Y-27534936D02*
X2760658Y-27544460D01*
X2760658Y-27544460D02*
X2741610Y-27553984D01*
X2741610Y-27553984D02*
X2722563Y-27553984D01*
X2722563Y-27553984D02*
X2703515Y-27544460D01*
X2703515Y-27544460D02*
X2693991Y-27534936D01*
X2693991Y-27534936D02*
X2684467Y-27515888D01*
X2684467Y-27515888D02*
X2674944Y-27477793D01*
X2674944Y-27477793D02*
X2674944Y-27430174D01*
X2674944Y-27430174D02*
X2684467Y-27392079D01*
X2684467Y-27392079D02*
X2693991Y-27373031D01*
X2693991Y-27373031D02*
X2703515Y-27363508D01*
X2703515Y-27363508D02*
X2722563Y-27353984D01*
X2913039Y-27353984D02*
X2932086Y-27353984D01*
X2932086Y-27353984D02*
X2951134Y-27363508D01*
X2951134Y-27363508D02*
X2960658Y-27373031D01*
X2960658Y-27373031D02*
X2970182Y-27392079D01*
X2970182Y-27392079D02*
X2979705Y-27430174D01*
X2979705Y-27430174D02*
X2979705Y-27477793D01*
X2979705Y-27477793D02*
X2970182Y-27515888D01*
X2970182Y-27515888D02*
X2960658Y-27534936D01*
X2960658Y-27534936D02*
X2951134Y-27544460D01*
X2951134Y-27544460D02*
X2932086Y-27553984D01*
X2932086Y-27553984D02*
X2913039Y-27553984D01*
X2913039Y-27553984D02*
X2893991Y-27544460D01*
X2893991Y-27544460D02*
X2884467Y-27534936D01*
X2884467Y-27534936D02*
X2874943Y-27515888D01*
X2874943Y-27515888D02*
X2865420Y-27477793D01*
X2865420Y-27477793D02*
X2865420Y-27430174D01*
X2865420Y-27430174D02*
X2874943Y-27392079D01*
X2874943Y-27392079D02*
X2884467Y-27373031D01*
X2884467Y-27373031D02*
X2893991Y-27363508D01*
X2893991Y-27363508D02*
X2913039Y-27353984D01*
X3065420Y-27553984D02*
X3065420Y-27420650D01*
X3065420Y-27439698D02*
X3074943Y-27430174D01*
X3074943Y-27430174D02*
X3093991Y-27420650D01*
X3093991Y-27420650D02*
X3122563Y-27420650D01*
X3122563Y-27420650D02*
X3141610Y-27430174D01*
X3141610Y-27430174D02*
X3151134Y-27449222D01*
X3151134Y-27449222D02*
X3151134Y-27553984D01*
X3151134Y-27449222D02*
X3160658Y-27430174D01*
X3160658Y-27430174D02*
X3179705Y-27420650D01*
X3179705Y-27420650D02*
X3208277Y-27420650D01*
X3208277Y-27420650D02*
X3227324Y-27430174D01*
X3227324Y-27430174D02*
X3236848Y-27449222D01*
X3236848Y-27449222D02*
X3236848Y-27553984D01*
X3332086Y-27553984D02*
X3332086Y-27420650D01*
X3332086Y-27439698D02*
X3341610Y-27430174D01*
X3341610Y-27430174D02*
X3360658Y-27420650D01*
X3360658Y-27420650D02*
X3389229Y-27420650D01*
X3389229Y-27420650D02*
X3408277Y-27430174D01*
X3408277Y-27430174D02*
X3417801Y-27449222D01*
X3417801Y-27449222D02*
X3417801Y-27553984D01*
X3417801Y-27449222D02*
X3427324Y-27430174D01*
X3427324Y-27430174D02*
X3446372Y-27420650D01*
X3446372Y-27420650D02*
X3474943Y-27420650D01*
X3474943Y-27420650D02*
X3493991Y-27430174D01*
X3493991Y-27430174D02*
X3503515Y-27449222D01*
X3503515Y-27449222D02*
X3503515Y-27553984D01*
X3893991Y-27344460D02*
X3722563Y-27601603D01*
X4151134Y-27353984D02*
X4170182Y-27353984D01*
X4170182Y-27353984D02*
X4189229Y-27363508D01*
X4189229Y-27363508D02*
X4198753Y-27373031D01*
X4198753Y-27373031D02*
X4208277Y-27392079D01*
X4208277Y-27392079D02*
X4217801Y-27430174D01*
X4217801Y-27430174D02*
X4217801Y-27477793D01*
X4217801Y-27477793D02*
X4208277Y-27515888D01*
X4208277Y-27515888D02*
X4198753Y-27534936D01*
X4198753Y-27534936D02*
X4189229Y-27544460D01*
X4189229Y-27544460D02*
X4170182Y-27553984D01*
X4170182Y-27553984D02*
X4151134Y-27553984D01*
X4151134Y-27553984D02*
X4132086Y-27544460D01*
X4132086Y-27544460D02*
X4122563Y-27534936D01*
X4122563Y-27534936D02*
X4113039Y-27515888D01*
X4113039Y-27515888D02*
X4103515Y-27477793D01*
X4103515Y-27477793D02*
X4103515Y-27430174D01*
X4103515Y-27430174D02*
X4113039Y-27392079D01*
X4113039Y-27392079D02*
X4122563Y-27373031D01*
X4122563Y-27373031D02*
X4132086Y-27363508D01*
X4132086Y-27363508D02*
X4151134Y-27353984D01*
X4303515Y-27534936D02*
X4313039Y-27544460D01*
X4313039Y-27544460D02*
X4303515Y-27553984D01*
X4303515Y-27553984D02*
X4293991Y-27544460D01*
X4293991Y-27544460D02*
X4303515Y-27534936D01*
X4303515Y-27534936D02*
X4303515Y-27553984D01*
X4436848Y-27353984D02*
X4455896Y-27353984D01*
X4455896Y-27353984D02*
X4474944Y-27363508D01*
X4474944Y-27363508D02*
X4484468Y-27373031D01*
X4484468Y-27373031D02*
X4493991Y-27392079D01*
X4493991Y-27392079D02*
X4503515Y-27430174D01*
X4503515Y-27430174D02*
X4503515Y-27477793D01*
X4503515Y-27477793D02*
X4493991Y-27515888D01*
X4493991Y-27515888D02*
X4484468Y-27534936D01*
X4484468Y-27534936D02*
X4474944Y-27544460D01*
X4474944Y-27544460D02*
X4455896Y-27553984D01*
X4455896Y-27553984D02*
X4436848Y-27553984D01*
X4436848Y-27553984D02*
X4417801Y-27544460D01*
X4417801Y-27544460D02*
X4408277Y-27534936D01*
X4408277Y-27534936D02*
X4398753Y-27515888D01*
X4398753Y-27515888D02*
X4389229Y-27477793D01*
X4389229Y-27477793D02*
X4389229Y-27430174D01*
X4389229Y-27430174D02*
X4398753Y-27392079D01*
X4398753Y-27392079D02*
X4408277Y-27373031D01*
X4408277Y-27373031D02*
X4417801Y-27363508D01*
X4417801Y-27363508D02*
X4436848Y-27353984D01*
X4684468Y-27353984D02*
X4589229Y-27353984D01*
X4589229Y-27353984D02*
X4579706Y-27449222D01*
X4579706Y-27449222D02*
X4589229Y-27439698D01*
X4589229Y-27439698D02*
X4608277Y-27430174D01*
X4608277Y-27430174D02*
X4655896Y-27430174D01*
X4655896Y-27430174D02*
X4674944Y-27439698D01*
X4674944Y-27439698D02*
X4684468Y-27449222D01*
X4684468Y-27449222D02*
X4693991Y-27468269D01*
X4693991Y-27468269D02*
X4693991Y-27515888D01*
X4693991Y-27515888D02*
X4684468Y-27534936D01*
X4684468Y-27534936D02*
X4674944Y-27544460D01*
X4674944Y-27544460D02*
X4655896Y-27553984D01*
X4655896Y-27553984D02*
X4608277Y-27553984D01*
X4608277Y-27553984D02*
X4589229Y-27544460D01*
X4589229Y-27544460D02*
X4579706Y-27534936D01*
X4789229Y-27553984D02*
X4827325Y-27553984D01*
X4827325Y-27553984D02*
X4846372Y-27544460D01*
X4846372Y-27544460D02*
X4855896Y-27534936D01*
X4855896Y-27534936D02*
X4874944Y-27506365D01*
X4874944Y-27506365D02*
X4884468Y-27468269D01*
X4884468Y-27468269D02*
X4884468Y-27392079D01*
X4884468Y-27392079D02*
X4874944Y-27373031D01*
X4874944Y-27373031D02*
X4865420Y-27363508D01*
X4865420Y-27363508D02*
X4846372Y-27353984D01*
X4846372Y-27353984D02*
X4808277Y-27353984D01*
X4808277Y-27353984D02*
X4789229Y-27363508D01*
X4789229Y-27363508D02*
X4779706Y-27373031D01*
X4779706Y-27373031D02*
X4770182Y-27392079D01*
X4770182Y-27392079D02*
X4770182Y-27439698D01*
X4770182Y-27439698D02*
X4779706Y-27458746D01*
X4779706Y-27458746D02*
X4789229Y-27468269D01*
X4789229Y-27468269D02*
X4808277Y-27477793D01*
X4808277Y-27477793D02*
X4846372Y-27477793D01*
X4846372Y-27477793D02*
X4865420Y-27468269D01*
X4865420Y-27468269D02*
X4874944Y-27458746D01*
X4874944Y-27458746D02*
X4884468Y-27439698D01*
X5074944Y-27553984D02*
X4960658Y-27553984D01*
X5017801Y-27553984D02*
X5017801Y-27353984D01*
X5017801Y-27353984D02*
X4998753Y-27382555D01*
X4998753Y-27382555D02*
X4979706Y-27401603D01*
X4979706Y-27401603D02*
X4960658Y-27411127D01*
X5151134Y-27353984D02*
X5151134Y-27392079D01*
X5227325Y-27353984D02*
X5227325Y-27392079D01*
X5522563Y-27630174D02*
X5513039Y-27620650D01*
X5513039Y-27620650D02*
X5493991Y-27592079D01*
X5493991Y-27592079D02*
X5484468Y-27573031D01*
X5484468Y-27573031D02*
X5474944Y-27544460D01*
X5474944Y-27544460D02*
X5465420Y-27496841D01*
X5465420Y-27496841D02*
X5465420Y-27458746D01*
X5465420Y-27458746D02*
X5474944Y-27411127D01*
X5474944Y-27411127D02*
X5484468Y-27382555D01*
X5484468Y-27382555D02*
X5493991Y-27363508D01*
X5493991Y-27363508D02*
X5513039Y-27334936D01*
X5513039Y-27334936D02*
X5522563Y-27325412D01*
X5589230Y-27373031D02*
X5598753Y-27363508D01*
X5598753Y-27363508D02*
X5617801Y-27353984D01*
X5617801Y-27353984D02*
X5665420Y-27353984D01*
X5665420Y-27353984D02*
X5684468Y-27363508D01*
X5684468Y-27363508D02*
X5693991Y-27373031D01*
X5693991Y-27373031D02*
X5703515Y-27392079D01*
X5703515Y-27392079D02*
X5703515Y-27411127D01*
X5703515Y-27411127D02*
X5693991Y-27439698D01*
X5693991Y-27439698D02*
X5579706Y-27553984D01*
X5579706Y-27553984D02*
X5703515Y-27553984D01*
X5893991Y-27553984D02*
X5779706Y-27553984D01*
X5836848Y-27553984D02*
X5836848Y-27353984D01*
X5836848Y-27353984D02*
X5817801Y-27382555D01*
X5817801Y-27382555D02*
X5798753Y-27401603D01*
X5798753Y-27401603D02*
X5779706Y-27411127D01*
X6008277Y-27439698D02*
X5989229Y-27430174D01*
X5989229Y-27430174D02*
X5979706Y-27420650D01*
X5979706Y-27420650D02*
X5970182Y-27401603D01*
X5970182Y-27401603D02*
X5970182Y-27392079D01*
X5970182Y-27392079D02*
X5979706Y-27373031D01*
X5979706Y-27373031D02*
X5989229Y-27363508D01*
X5989229Y-27363508D02*
X6008277Y-27353984D01*
X6008277Y-27353984D02*
X6046372Y-27353984D01*
X6046372Y-27353984D02*
X6065420Y-27363508D01*
X6065420Y-27363508D02*
X6074944Y-27373031D01*
X6074944Y-27373031D02*
X6084468Y-27392079D01*
X6084468Y-27392079D02*
X6084468Y-27401603D01*
X6084468Y-27401603D02*
X6074944Y-27420650D01*
X6074944Y-27420650D02*
X6065420Y-27430174D01*
X6065420Y-27430174D02*
X6046372Y-27439698D01*
X6046372Y-27439698D02*
X6008277Y-27439698D01*
X6008277Y-27439698D02*
X5989229Y-27449222D01*
X5989229Y-27449222D02*
X5979706Y-27458746D01*
X5979706Y-27458746D02*
X5970182Y-27477793D01*
X5970182Y-27477793D02*
X5970182Y-27515888D01*
X5970182Y-27515888D02*
X5979706Y-27534936D01*
X5979706Y-27534936D02*
X5989229Y-27544460D01*
X5989229Y-27544460D02*
X6008277Y-27553984D01*
X6008277Y-27553984D02*
X6046372Y-27553984D01*
X6046372Y-27553984D02*
X6065420Y-27544460D01*
X6065420Y-27544460D02*
X6074944Y-27534936D01*
X6074944Y-27534936D02*
X6084468Y-27515888D01*
X6084468Y-27515888D02*
X6084468Y-27477793D01*
X6084468Y-27477793D02*
X6074944Y-27458746D01*
X6074944Y-27458746D02*
X6065420Y-27449222D01*
X6065420Y-27449222D02*
X6046372Y-27439698D01*
X6322563Y-27553984D02*
X6322563Y-27353984D01*
X6408277Y-27553984D02*
X6408277Y-27449222D01*
X6408277Y-27449222D02*
X6398753Y-27430174D01*
X6398753Y-27430174D02*
X6379706Y-27420650D01*
X6379706Y-27420650D02*
X6351134Y-27420650D01*
X6351134Y-27420650D02*
X6332087Y-27430174D01*
X6332087Y-27430174D02*
X6322563Y-27439698D01*
X6532087Y-27553984D02*
X6513039Y-27544460D01*
X6513039Y-27544460D02*
X6503515Y-27534936D01*
X6503515Y-27534936D02*
X6493991Y-27515888D01*
X6493991Y-27515888D02*
X6493991Y-27458746D01*
X6493991Y-27458746D02*
X6503515Y-27439698D01*
X6503515Y-27439698D02*
X6513039Y-27430174D01*
X6513039Y-27430174D02*
X6532087Y-27420650D01*
X6532087Y-27420650D02*
X6560658Y-27420650D01*
X6560658Y-27420650D02*
X6579706Y-27430174D01*
X6579706Y-27430174D02*
X6589230Y-27439698D01*
X6589230Y-27439698D02*
X6598753Y-27458746D01*
X6598753Y-27458746D02*
X6598753Y-27515888D01*
X6598753Y-27515888D02*
X6589230Y-27534936D01*
X6589230Y-27534936D02*
X6579706Y-27544460D01*
X6579706Y-27544460D02*
X6560658Y-27553984D01*
X6560658Y-27553984D02*
X6532087Y-27553984D01*
X6713039Y-27553984D02*
X6693991Y-27544460D01*
X6693991Y-27544460D02*
X6684468Y-27525412D01*
X6684468Y-27525412D02*
X6684468Y-27353984D01*
X6865420Y-27544460D02*
X6846372Y-27553984D01*
X6846372Y-27553984D02*
X6808277Y-27553984D01*
X6808277Y-27553984D02*
X6789230Y-27544460D01*
X6789230Y-27544460D02*
X6779706Y-27525412D01*
X6779706Y-27525412D02*
X6779706Y-27449222D01*
X6779706Y-27449222D02*
X6789230Y-27430174D01*
X6789230Y-27430174D02*
X6808277Y-27420650D01*
X6808277Y-27420650D02*
X6846372Y-27420650D01*
X6846372Y-27420650D02*
X6865420Y-27430174D01*
X6865420Y-27430174D02*
X6874944Y-27449222D01*
X6874944Y-27449222D02*
X6874944Y-27468269D01*
X6874944Y-27468269D02*
X6779706Y-27487317D01*
X6951134Y-27544460D02*
X6970182Y-27553984D01*
X6970182Y-27553984D02*
X7008277Y-27553984D01*
X7008277Y-27553984D02*
X7027325Y-27544460D01*
X7027325Y-27544460D02*
X7036849Y-27525412D01*
X7036849Y-27525412D02*
X7036849Y-27515888D01*
X7036849Y-27515888D02*
X7027325Y-27496841D01*
X7027325Y-27496841D02*
X7008277Y-27487317D01*
X7008277Y-27487317D02*
X6979706Y-27487317D01*
X6979706Y-27487317D02*
X6960658Y-27477793D01*
X6960658Y-27477793D02*
X6951134Y-27458746D01*
X6951134Y-27458746D02*
X6951134Y-27449222D01*
X6951134Y-27449222D02*
X6960658Y-27430174D01*
X6960658Y-27430174D02*
X6979706Y-27420650D01*
X6979706Y-27420650D02*
X7008277Y-27420650D01*
X7008277Y-27420650D02*
X7027325Y-27430174D01*
X7274944Y-27477793D02*
X7427325Y-27477793D01*
X7351134Y-27553984D02*
X7351134Y-27401603D01*
X7760658Y-27420650D02*
X7760658Y-27553984D01*
X7713039Y-27344460D02*
X7665420Y-27487317D01*
X7665420Y-27487317D02*
X7789230Y-27487317D01*
X8008277Y-27544460D02*
X8027325Y-27553984D01*
X8027325Y-27553984D02*
X8065420Y-27553984D01*
X8065420Y-27553984D02*
X8084468Y-27544460D01*
X8084468Y-27544460D02*
X8093992Y-27525412D01*
X8093992Y-27525412D02*
X8093992Y-27515888D01*
X8093992Y-27515888D02*
X8084468Y-27496841D01*
X8084468Y-27496841D02*
X8065420Y-27487317D01*
X8065420Y-27487317D02*
X8036849Y-27487317D01*
X8036849Y-27487317D02*
X8017801Y-27477793D01*
X8017801Y-27477793D02*
X8008277Y-27458746D01*
X8008277Y-27458746D02*
X8008277Y-27449222D01*
X8008277Y-27449222D02*
X8017801Y-27430174D01*
X8017801Y-27430174D02*
X8036849Y-27420650D01*
X8036849Y-27420650D02*
X8065420Y-27420650D01*
X8065420Y-27420650D02*
X8084468Y-27430174D01*
X8208277Y-27553984D02*
X8189230Y-27544460D01*
X8189230Y-27544460D02*
X8179706Y-27525412D01*
X8179706Y-27525412D02*
X8179706Y-27353984D01*
X8313039Y-27553984D02*
X8293992Y-27544460D01*
X8293992Y-27544460D02*
X8284468Y-27534936D01*
X8284468Y-27534936D02*
X8274944Y-27515888D01*
X8274944Y-27515888D02*
X8274944Y-27458746D01*
X8274944Y-27458746D02*
X8284468Y-27439698D01*
X8284468Y-27439698D02*
X8293992Y-27430174D01*
X8293992Y-27430174D02*
X8313039Y-27420650D01*
X8313039Y-27420650D02*
X8341611Y-27420650D01*
X8341611Y-27420650D02*
X8360658Y-27430174D01*
X8360658Y-27430174D02*
X8370182Y-27439698D01*
X8370182Y-27439698D02*
X8379706Y-27458746D01*
X8379706Y-27458746D02*
X8379706Y-27515888D01*
X8379706Y-27515888D02*
X8370182Y-27534936D01*
X8370182Y-27534936D02*
X8360658Y-27544460D01*
X8360658Y-27544460D02*
X8341611Y-27553984D01*
X8341611Y-27553984D02*
X8313039Y-27553984D01*
X8436849Y-27420650D02*
X8513039Y-27420650D01*
X8465420Y-27353984D02*
X8465420Y-27525412D01*
X8465420Y-27525412D02*
X8474944Y-27544460D01*
X8474944Y-27544460D02*
X8493992Y-27553984D01*
X8493992Y-27553984D02*
X8513039Y-27553984D01*
X8570182Y-27544460D02*
X8589230Y-27553984D01*
X8589230Y-27553984D02*
X8627325Y-27553984D01*
X8627325Y-27553984D02*
X8646373Y-27544460D01*
X8646373Y-27544460D02*
X8655897Y-27525412D01*
X8655897Y-27525412D02*
X8655897Y-27515888D01*
X8655897Y-27515888D02*
X8646373Y-27496841D01*
X8646373Y-27496841D02*
X8627325Y-27487317D01*
X8627325Y-27487317D02*
X8598754Y-27487317D01*
X8598754Y-27487317D02*
X8579706Y-27477793D01*
X8579706Y-27477793D02*
X8570182Y-27458746D01*
X8570182Y-27458746D02*
X8570182Y-27449222D01*
X8570182Y-27449222D02*
X8579706Y-27430174D01*
X8579706Y-27430174D02*
X8598754Y-27420650D01*
X8598754Y-27420650D02*
X8627325Y-27420650D01*
X8627325Y-27420650D02*
X8646373Y-27430174D01*
X8722563Y-27630174D02*
X8732087Y-27620650D01*
X8732087Y-27620650D02*
X8751135Y-27592079D01*
X8751135Y-27592079D02*
X8760658Y-27573031D01*
X8760658Y-27573031D02*
X8770182Y-27544460D01*
X8770182Y-27544460D02*
X8779706Y-27496841D01*
X8779706Y-27496841D02*
X8779706Y-27458746D01*
X8779706Y-27458746D02*
X8770182Y-27411127D01*
X8770182Y-27411127D02*
X8760658Y-27382555D01*
X8760658Y-27382555D02*
X8751135Y-27363508D01*
X8751135Y-27363508D02*
X8732087Y-27334936D01*
X8732087Y-27334936D02*
X8722563Y-27325412D01*
M02*
