%TF.GenerationSoftware,KiCad,Pcbnew,8.0.8*%
%TF.CreationDate,2025-11-12T22:54:25+00:00*%
%TF.ProjectId,Blueboard-Kicad,426c7565-626f-4617-9264-2d4b69636164,rev?*%
%TF.SameCoordinates,Original*%
%TF.FileFunction,Copper,L2,Bot*%
%TF.FilePolarity,Positive*%
%FSLAX46Y46*%
G04 Gerber Fmt 4.6, Leading zero omitted, Abs format (unit mm)*
G04 Created by KiCad (PCBNEW 8.0.8) date 2025-11-12 22:54:25*
%MOMM*%
%LPD*%
G01*
G04 APERTURE LIST*
%TA.AperFunction,ComponentPad*%
%ADD10C,2.200000*%
%TD*%
%TA.AperFunction,ComponentPad*%
%ADD11R,2.000000X2.000000*%
%TD*%
%TA.AperFunction,ComponentPad*%
%ADD12C,2.000000*%
%TD*%
%TA.AperFunction,ComponentPad*%
%ADD13R,3.200000X2.000000*%
%TD*%
%TA.AperFunction,ComponentPad*%
%ADD14R,1.700000X1.700000*%
%TD*%
%TA.AperFunction,ComponentPad*%
%ADD15O,1.700000X1.700000*%
%TD*%
%TA.AperFunction,ComponentPad*%
%ADD16R,1.600000X1.600000*%
%TD*%
%TA.AperFunction,ComponentPad*%
%ADD17O,1.600000X1.600000*%
%TD*%
%TA.AperFunction,ComponentPad*%
%ADD18C,1.524000*%
%TD*%
%TA.AperFunction,ComponentPad*%
%ADD19R,2.200000X2.200000*%
%TD*%
%TA.AperFunction,ComponentPad*%
%ADD20O,2.200000X2.200000*%
%TD*%
%TA.AperFunction,ViaPad*%
%ADD21C,0.600000*%
%TD*%
%TA.AperFunction,Conductor*%
%ADD22C,0.200000*%
%TD*%
G04 APERTURE END LIST*
D10*
%TO.P,SW53,1,1*%
%TO.N,C15*%
X324012500Y-174960000D03*
%TO.P,SW53,2,2*%
%TO.N,Net-(D75-A)*%
X317662500Y-177500000D03*
%TD*%
%TO.P,SW52,1,1*%
%TO.N,C14*%
X300200000Y-174960000D03*
%TO.P,SW52,2,2*%
%TO.N,Net-(D72-A)*%
X293850000Y-177500000D03*
%TD*%
%TO.P,SW98,1,1*%
%TO.N,C3*%
X88268750Y-232110000D03*
%TO.P,SW98,2,2*%
%TO.N,Net-(D16-A)*%
X81918750Y-234650000D03*
%TD*%
%TO.P,SW71,1,1*%
%TO.N,C11*%
X247812500Y-194010000D03*
%TO.P,SW71,2,2*%
%TO.N,Net-(D57-A)*%
X241462500Y-196550000D03*
%TD*%
%TO.P,SW58,1,1*%
%TO.N,C21*%
X433550000Y-174960000D03*
%TO.P,SW58,2,2*%
%TO.N,Net-(D99-A)*%
X427200000Y-177500000D03*
%TD*%
%TO.P,SW102,1,1*%
%TO.N,C11*%
X278768750Y-232110000D03*
%TO.P,SW102,2,2*%
%TO.N,Net-(D59-A)*%
X272418750Y-234650000D03*
%TD*%
%TO.P,SW100,1,1*%
%TO.N,C7*%
X183518750Y-232110000D03*
%TO.P,SW100,2,2*%
%TO.N,Net-(D38-A)*%
X177168750Y-234650000D03*
%TD*%
%TO.P,SW47,1,1*%
%TO.N,C9*%
X204950000Y-174960000D03*
%TO.P,SW47,2,2*%
%TO.N,Net-(D44-A)*%
X198600000Y-177500000D03*
%TD*%
%TO.P,SW61,1,1*%
%TO.N,C1*%
X38262500Y-194010000D03*
%TO.P,SW61,2,2*%
%TO.N,Net-(D4-A)*%
X31912500Y-196550000D03*
%TD*%
%TO.P,SW93,1,1*%
%TO.N,C21*%
X433550000Y-213060000D03*
%TO.P,SW93,2,2*%
%TO.N,Net-(D101-A)*%
X427200000Y-215600000D03*
%TD*%
%TO.P,SW30,1,1*%
%TO.N,C14*%
X290675000Y-155910000D03*
%TO.P,SW30,2,2*%
%TO.N,Net-(D66-A)*%
X284325000Y-158450000D03*
%TD*%
%TO.P,SW23,1,1*%
%TO.N,C7*%
X157325000Y-155910000D03*
%TO.P,SW23,2,2*%
%TO.N,Net-(D34-A)*%
X150975000Y-158450000D03*
%TD*%
D11*
%TO.P,ROT3,A,A*%
%TO.N,ENC1_B*%
X459500000Y-130000000D03*
D12*
%TO.P,ROT3,B,B*%
%TO.N,ENC1_A*%
X459500000Y-135000000D03*
%TO.P,ROT3,C,C*%
%TO.N,GND*%
X459500000Y-132500000D03*
D13*
%TO.P,ROT3,GND*%
X467000000Y-126900000D03*
X467000000Y-138100000D03*
D12*
%TO.P,ROT3,S1,S1*%
%TO.N,ENC1_SW*%
X474000000Y-135000000D03*
%TO.P,ROT3,S2,S2*%
%TO.N,GND*%
X474000000Y-130000000D03*
%TD*%
D10*
%TO.P,SW69,1,1*%
%TO.N,C9*%
X209712500Y-194010000D03*
%TO.P,SW69,2,2*%
%TO.N,Net-(D45-A)*%
X203362500Y-196550000D03*
%TD*%
%TO.P,SW37,1,1*%
%TO.N,C22*%
X452600000Y-155910000D03*
%TO.P,SW37,2,2*%
%TO.N,Net-(D102-A)*%
X446250000Y-158450000D03*
%TD*%
%TO.P,SW64,1,1*%
%TO.N,C4*%
X114462500Y-194010000D03*
%TO.P,SW64,2,2*%
%TO.N,Net-(D20-A)*%
X108112500Y-196550000D03*
%TD*%
%TO.P,SW65,1,1*%
%TO.N,C5*%
X133512500Y-194010000D03*
%TO.P,SW65,2,2*%
%TO.N,Net-(D26-A)*%
X127162500Y-196550000D03*
%TD*%
%TO.P,SW5,1,1*%
%TO.N,C7*%
X157325000Y-127335000D03*
%TO.P,SW5,2,2*%
%TO.N,Net-(D33-A)*%
X150975000Y-129875000D03*
%TD*%
%TO.P,SW105,1,1*%
%TO.N,C17*%
X352587500Y-232110000D03*
%TO.P,SW105,2,2*%
%TO.N,Net-(D85-A)*%
X346237500Y-234650000D03*
%TD*%
%TO.P,SW75,1,1*%
%TO.N,C20*%
X414500000Y-194010000D03*
%TO.P,SW75,2,2*%
%TO.N,Net-(D92-A)*%
X408150000Y-196550000D03*
%TD*%
%TO.P,SW82,1,1*%
%TO.N,C5*%
X143037500Y-213060000D03*
%TO.P,SW82,2,2*%
%TO.N,Net-(D27-A)*%
X136687500Y-215600000D03*
%TD*%
%TO.P,SW96,1,1*%
%TO.N,C1*%
X38262500Y-232110000D03*
%TO.P,SW96,2,2*%
%TO.N,Net-(D6-A)*%
X31912500Y-234650000D03*
%TD*%
%TO.P,SW85,1,1*%
%TO.N,C8*%
X200187500Y-213060000D03*
%TO.P,SW85,2,2*%
%TO.N,Net-(D42-A)*%
X193837500Y-215600000D03*
%TD*%
%TO.P,SW15,1,1*%
%TO.N,C18*%
X371637500Y-127335000D03*
%TO.P,SW15,2,2*%
%TO.N,Net-(D83-A)*%
X365287500Y-129875000D03*
%TD*%
%TO.P,SW86,1,1*%
%TO.N,C9*%
X219237500Y-213060000D03*
%TO.P,SW86,2,2*%
%TO.N,Net-(D46-A)*%
X212887500Y-215600000D03*
%TD*%
%TO.P,SW68,1,1*%
%TO.N,C8*%
X190662500Y-194010000D03*
%TO.P,SW68,2,2*%
%TO.N,Net-(D41-A)*%
X184312500Y-196550000D03*
%TD*%
%TO.P,SW87,1,1*%
%TO.N,C10*%
X238287500Y-213060000D03*
%TO.P,SW87,2,2*%
%TO.N,Net-(D52-A)*%
X231937500Y-215600000D03*
%TD*%
%TO.P,SW44,1,1*%
%TO.N,C6*%
X147800000Y-174960000D03*
%TO.P,SW44,2,2*%
%TO.N,Net-(D30-A)*%
X141450000Y-177500000D03*
%TD*%
%TO.P,SW88,1,1*%
%TO.N,C11*%
X257337500Y-213060000D03*
%TO.P,SW88,2,2*%
%TO.N,Net-(D58-A)*%
X250987500Y-215600000D03*
%TD*%
%TO.P,SW55,1,1*%
%TO.N,C18*%
X371637500Y-174960000D03*
%TO.P,SW55,2,2*%
%TO.N,Net-(D86-A)*%
X365287500Y-177500000D03*
%TD*%
%TO.P,SW83,1,1*%
%TO.N,C6*%
X162087500Y-213060000D03*
%TO.P,SW83,2,2*%
%TO.N,Net-(D32-A)*%
X155737500Y-215600000D03*
%TD*%
%TO.P,SW38,1,1*%
%TO.N,C23*%
X471650000Y-155910000D03*
%TO.P,SW38,2,2*%
%TO.N,Net-(D107-A)*%
X465300000Y-158450000D03*
%TD*%
%TO.P,SW13,1,1*%
%TO.N,C16*%
X328775000Y-127335000D03*
%TO.P,SW13,2,2*%
%TO.N,Net-(D79-A)*%
X322425000Y-129875000D03*
%TD*%
%TO.P,SW2,1,1*%
%TO.N,C4*%
X100175000Y-127335000D03*
%TO.P,SW2,2,2*%
%TO.N,Net-(D17-A)*%
X93825000Y-129875000D03*
%TD*%
%TO.P,SW107,1,1*%
%TO.N,C19*%
X390687500Y-232110000D03*
%TO.P,SW107,2,2*%
%TO.N,Net-(D93-A)*%
X384337500Y-234650000D03*
%TD*%
%TO.P,SW31,2,2*%
%TO.N,Net-(D74-A)*%
X312900000Y-158450000D03*
%TO.P,SW31,1,1*%
%TO.N,C15*%
X319250000Y-155910000D03*
%TD*%
%TO.P,SW11,1,1*%
%TO.N,C14*%
X290675000Y-127335000D03*
%TO.P,SW11,2,2*%
%TO.N,Net-(D77-A)*%
X284325000Y-129875000D03*
%TD*%
%TO.P,SW78,1,1*%
%TO.N,C1*%
X38262500Y-213060000D03*
%TO.P,SW78,2,2*%
%TO.N,Net-(D5-A)*%
X31912500Y-215600000D03*
%TD*%
%TO.P,SW73,1,1*%
%TO.N,C13*%
X285912500Y-194010000D03*
%TO.P,SW73,2,2*%
%TO.N,Net-(D69-A)*%
X279562500Y-196550000D03*
%TD*%
%TO.P,SW16,1,1*%
%TO.N,C19*%
X390687500Y-127335000D03*
%TO.P,SW16,2,2*%
%TO.N,Net-(D89-A)*%
X384337500Y-129875000D03*
%TD*%
%TO.P,SW29,1,1*%
%TO.N,C13*%
X271625000Y-155910000D03*
%TO.P,SW29,2,2*%
%TO.N,Net-(D67-A)*%
X265275000Y-158450000D03*
%TD*%
%TO.P,SW27,1,1*%
%TO.N,C11*%
X233525000Y-155910000D03*
%TO.P,SW27,2,2*%
%TO.N,Net-(D55-A)*%
X227175000Y-158450000D03*
%TD*%
%TO.P,SW90,1,1*%
%TO.N,C15*%
X312106250Y-213060000D03*
%TO.P,SW90,2,2*%
%TO.N,Net-(D70-A)*%
X305756250Y-215600000D03*
%TD*%
%TO.P,SW76,1,1*%
%TO.N,C21*%
X433550000Y-194010000D03*
%TO.P,SW76,2,2*%
%TO.N,Net-(D100-A)*%
X427200000Y-196550000D03*
%TD*%
%TO.P,SW22,1,1*%
%TO.N,C6*%
X138275000Y-155910000D03*
%TO.P,SW22,2,2*%
%TO.N,Net-(D29-A)*%
X131925000Y-158450000D03*
%TD*%
%TO.P,SW40,1,1*%
%TO.N,C2*%
X66837500Y-174960000D03*
%TO.P,SW40,2,2*%
%TO.N,Net-(D8-A)*%
X60487500Y-177500000D03*
%TD*%
%TO.P,SW34,1,1*%
%TO.N,C19*%
X390687500Y-155910000D03*
%TO.P,SW34,2,2*%
%TO.N,Net-(D90-A)*%
X384337500Y-158450000D03*
%TD*%
%TO.P,SW25,1,1*%
%TO.N,C9*%
X195425000Y-155910000D03*
%TO.P,SW25,2,2*%
%TO.N,Net-(D43-A)*%
X189075000Y-158450000D03*
%TD*%
%TO.P,SW66,1,1*%
%TO.N,C6*%
X152562500Y-194010000D03*
%TO.P,SW66,2,2*%
%TO.N,Net-(D31-A)*%
X146212500Y-196550000D03*
%TD*%
%TO.P,SW48,1,1*%
%TO.N,C10*%
X224000000Y-174960000D03*
%TO.P,SW48,2,2*%
%TO.N,Net-(D50-A)*%
X217650000Y-177500000D03*
%TD*%
%TO.P,SW14,1,1*%
%TO.N,C17*%
X352587500Y-127335000D03*
%TO.P,SW14,2,2*%
%TO.N,Net-(D80-A)*%
X346237500Y-129875000D03*
%TD*%
%TO.P,SW36,1,1*%
%TO.N,C21*%
X433550000Y-155910000D03*
%TO.P,SW36,2,2*%
%TO.N,Net-(D98-A)*%
X427200000Y-158450000D03*
%TD*%
%TO.P,SW79,1,1*%
%TO.N,C2*%
X73981250Y-213060000D03*
%TO.P,SW79,2,2*%
%TO.N,Net-(D10-A)*%
X67631250Y-215600000D03*
%TD*%
%TO.P,SW106,1,1*%
%TO.N,C18*%
X371637500Y-232110000D03*
%TO.P,SW106,2,2*%
%TO.N,Net-(D87-A)*%
X365287500Y-234650000D03*
%TD*%
D14*
%TO.P,J1,1,Pin_1*%
%TO.N,GND*%
X401385000Y-136080000D03*
D15*
%TO.P,J1,2,Pin_2*%
%TO.N,VCC*%
X401385000Y-133540000D03*
%TO.P,J1,3,Pin_3*%
%TO.N,SCL*%
X401385000Y-131000000D03*
%TO.P,J1,4,Pin_4*%
%TO.N,SDA*%
X401385000Y-128460000D03*
%TD*%
D11*
%TO.P,ROT2,A,A*%
%TO.N,ENC2_A*%
X454250000Y-135000000D03*
D12*
%TO.P,ROT2,B,B*%
%TO.N,ENC2_B*%
X454250000Y-130000000D03*
%TO.P,ROT2,C,C*%
%TO.N,GND*%
X454250000Y-132500000D03*
D13*
%TO.P,ROT2,GND*%
X446750000Y-138100000D03*
X446750000Y-126900000D03*
D12*
%TO.P,ROT2,S1,S1*%
%TO.N,ENC2_SW*%
X439750000Y-130000000D03*
%TO.P,ROT2,S2,S2*%
%TO.N,GND*%
X439750000Y-135000000D03*
%TD*%
D10*
%TO.P,SW17,1,1*%
%TO.N,C1*%
X38262500Y-155910000D03*
%TO.P,SW17,2,2*%
%TO.N,Net-(D1-A)*%
X31912500Y-158450000D03*
%TD*%
%TO.P,SW57,1,1*%
%TO.N,C20*%
X414500000Y-174960000D03*
%TO.P,SW57,2,2*%
%TO.N,Net-(D95-A)*%
X408150000Y-177500000D03*
%TD*%
%TO.P,SW97,1,1*%
%TO.N,C2*%
X64456250Y-232110000D03*
%TO.P,SW97,2,2*%
%TO.N,Net-(D11-A)*%
X58106250Y-234650000D03*
%TD*%
%TO.P,SW99,1,1*%
%TO.N,C4*%
X112081250Y-232110000D03*
%TO.P,SW99,2,2*%
%TO.N,Net-(D22-A)*%
X105731250Y-234650000D03*
%TD*%
%TO.P,SW32,1,1*%
%TO.N,C17*%
X352587500Y-155910000D03*
%TO.P,SW32,2,2*%
%TO.N,Net-(D81-A)*%
X346237500Y-158450000D03*
%TD*%
%TO.P,SW28,1,1*%
%TO.N,C12*%
X252575000Y-155910000D03*
%TO.P,SW28,2,2*%
%TO.N,Net-(D61-A)*%
X246225000Y-158450000D03*
%TD*%
%TO.P,SW24,1,1*%
%TO.N,C8*%
X176375000Y-155910000D03*
%TO.P,SW24,2,2*%
%TO.N,Net-(D39-A)*%
X170025000Y-158450000D03*
%TD*%
%TO.P,SW92,1,1*%
%TO.N,C20*%
X414500000Y-213060000D03*
%TO.P,SW92,2,2*%
%TO.N,Net-(D97-A)*%
X408150000Y-215600000D03*
%TD*%
D16*
%TO.P,U4,1,GPB0*%
%TO.N,C1*%
X489380000Y-150100000D03*
D17*
%TO.P,U4,2,GPB1*%
%TO.N,C2*%
X489380000Y-152640000D03*
%TO.P,U4,3,GPB2*%
%TO.N,C3*%
X489380000Y-155180000D03*
%TO.P,U4,4,GPB3*%
%TO.N,C4*%
X489380000Y-157720000D03*
%TO.P,U4,5,GPB4*%
%TO.N,C5*%
X489380000Y-160260000D03*
%TO.P,U4,6,GPB5*%
%TO.N,C6*%
X489380000Y-162800000D03*
%TO.P,U4,7,GPB6*%
%TO.N,C7*%
X489380000Y-165340000D03*
%TO.P,U4,8,GPB7*%
%TO.N,C8*%
X489380000Y-167880000D03*
%TO.P,U4,9,VDD*%
%TO.N,VCC*%
X489380000Y-170420000D03*
%TO.P,U4,10,VSS*%
%TO.N,GND*%
X489380000Y-172960000D03*
%TO.P,U4,11,NC*%
%TO.N,unconnected-(U4-NC-Pad11)*%
X489380000Y-175500000D03*
%TO.P,U4,12,SCK*%
%TO.N,SCL*%
X489380000Y-178040000D03*
%TO.P,U4,13,SDA*%
%TO.N,SDA*%
X489380000Y-180580000D03*
%TO.P,U4,14,NC*%
%TO.N,unconnected-(U4-NC-Pad14)*%
X489380000Y-183120000D03*
%TO.P,U4,15,A0*%
%TO.N,GND*%
X497000000Y-183120000D03*
%TO.P,U4,16,A1*%
X497000000Y-180580000D03*
%TO.P,U4,17,A2*%
X497000000Y-178040000D03*
%TO.P,U4,18,~{RESET}*%
%TO.N,VCC*%
X497000000Y-175500000D03*
%TO.P,U4,19,INTB*%
%TO.N,unconnected-(U4-INTB-Pad19)*%
X497000000Y-172960000D03*
%TO.P,U4,20,INTA*%
%TO.N,unconnected-(U4-INTA-Pad20)*%
X497000000Y-170420000D03*
%TO.P,U4,21,GPA0*%
%TO.N,C9*%
X497000000Y-167880000D03*
%TO.P,U4,22,GPA1*%
%TO.N,C10*%
X497000000Y-165340000D03*
%TO.P,U4,23,GPA2*%
%TO.N,C11*%
X497000000Y-162800000D03*
%TO.P,U4,24,GPA3*%
%TO.N,C12*%
X497000000Y-160260000D03*
%TO.P,U4,25,GPA4*%
%TO.N,C13*%
X497000000Y-157720000D03*
%TO.P,U4,26,GPA5*%
%TO.N,C14*%
X497000000Y-155180000D03*
%TO.P,U4,27,GPA6*%
%TO.N,C15*%
X497000000Y-152640000D03*
%TO.P,U4,28,GPA7*%
%TO.N,C16*%
X497000000Y-150100000D03*
%TD*%
D10*
%TO.P,SW46,1,1*%
%TO.N,C8*%
X185900000Y-174960000D03*
%TO.P,SW46,2,2*%
%TO.N,Net-(D40-A)*%
X179550000Y-177500000D03*
%TD*%
%TO.P,SW7,1,1*%
%TO.N,C10*%
X204950000Y-127335000D03*
%TO.P,SW7,2,2*%
%TO.N,Net-(D48-A)*%
X198600000Y-129875000D03*
%TD*%
%TO.P,SW6,1,1*%
%TO.N,C9*%
X185900000Y-127335000D03*
%TO.P,SW6,2,2*%
%TO.N,Net-(D47-A)*%
X179550000Y-129875000D03*
%TD*%
%TO.P,SW42,1,1*%
%TO.N,C4*%
X109700000Y-174960000D03*
%TO.P,SW42,2,2*%
%TO.N,Net-(D19-A)*%
X103350000Y-177500000D03*
%TD*%
%TO.P,SW62,1,1*%
%TO.N,C2*%
X69218750Y-194010000D03*
%TO.P,SW62,2,2*%
%TO.N,Net-(D9-A)*%
X62868750Y-196550000D03*
%TD*%
%TO.P,SW72,1,1*%
%TO.N,C12*%
X266862500Y-194010000D03*
%TO.P,SW72,2,2*%
%TO.N,Net-(D63-A)*%
X260512500Y-196550000D03*
%TD*%
%TO.P,SW20,1,1*%
%TO.N,C4*%
X100175000Y-155910000D03*
%TO.P,SW20,2,2*%
%TO.N,Net-(D18-A)*%
X93825000Y-158450000D03*
%TD*%
%TO.P,SW91,1,1*%
%TO.N,C18*%
X371637500Y-213060000D03*
%TO.P,SW91,2,2*%
%TO.N,Net-(D88-A)*%
X365287500Y-215600000D03*
%TD*%
%TO.P,SW41,1,1*%
%TO.N,C3*%
X90650000Y-174960000D03*
%TO.P,SW41,2,2*%
%TO.N,Net-(D13-A)*%
X84300000Y-177500000D03*
%TD*%
%TO.P,SW35,1,1*%
%TO.N,C20*%
X414500000Y-155910000D03*
%TO.P,SW35,2,2*%
%TO.N,Net-(D94-A)*%
X408150000Y-158450000D03*
%TD*%
%TO.P,SW67,1,1*%
%TO.N,C7*%
X171612500Y-194010000D03*
%TO.P,SW67,2,2*%
%TO.N,Net-(D36-A)*%
X165262500Y-196550000D03*
%TD*%
%TO.P,SW95,2,2*%
%TO.N,Net-(D110-A)*%
X465300000Y-225125000D03*
%TO.P,SW95,1,1*%
%TO.N,C23*%
X471650000Y-222585000D03*
%TD*%
%TO.P,SW9,1,1*%
%TO.N,C12*%
X243050000Y-127335000D03*
%TO.P,SW9,2,2*%
%TO.N,Net-(D60-A)*%
X236700000Y-129875000D03*
%TD*%
%TO.P,SW33,1,1*%
%TO.N,C18*%
X371637500Y-155910000D03*
%TO.P,SW33,2,2*%
%TO.N,Net-(D84-A)*%
X365287500Y-158450000D03*
%TD*%
%TO.P,SW70,1,1*%
%TO.N,C10*%
X228762500Y-194010000D03*
%TO.P,SW70,2,2*%
%TO.N,Net-(D51-A)*%
X222412500Y-196550000D03*
%TD*%
%TO.P,SW63,1,1*%
%TO.N,C3*%
X95412500Y-194010000D03*
%TO.P,SW63,2,2*%
%TO.N,Net-(D14-A)*%
X89062500Y-196550000D03*
%TD*%
D16*
%TO.P,U3,1,GPB0*%
%TO.N,C17*%
X497120000Y-219360000D03*
D17*
%TO.P,U3,2,GPB1*%
%TO.N,C18*%
X497120000Y-216820000D03*
%TO.P,U3,3,GPB2*%
%TO.N,C19*%
X497120000Y-214280000D03*
%TO.P,U3,4,GPB3*%
%TO.N,C20*%
X497120000Y-211740000D03*
%TO.P,U3,5,GPB4*%
%TO.N,C21*%
X497120000Y-209200000D03*
%TO.P,U3,6,GPB5*%
%TO.N,C22*%
X497120000Y-206660000D03*
%TO.P,U3,7,GPB6*%
%TO.N,C23*%
X497120000Y-204120000D03*
%TO.P,U3,8,GPB7*%
%TO.N,unconnected-(U3-GPB7-Pad8)*%
X497120000Y-201580000D03*
%TO.P,U3,9,VDD*%
%TO.N,VCC*%
X497120000Y-199040000D03*
%TO.P,U3,10,VSS*%
%TO.N,GND*%
X497120000Y-196500000D03*
%TO.P,U3,11,NC*%
%TO.N,unconnected-(U3-NC-Pad11)*%
X497120000Y-193960000D03*
%TO.P,U3,12,SCK*%
%TO.N,SCL*%
X497120000Y-191420000D03*
%TO.P,U3,13,SDA*%
%TO.N,SDA*%
X497120000Y-188880000D03*
%TO.P,U3,14,NC*%
%TO.N,unconnected-(U3-NC-Pad14)*%
X497120000Y-186340000D03*
%TO.P,U3,15,A0*%
%TO.N,VCC*%
X489500000Y-186340000D03*
%TO.P,U3,16,A1*%
%TO.N,GND*%
X489500000Y-188880000D03*
%TO.P,U3,17,A2*%
X489500000Y-191420000D03*
%TO.P,U3,18,~{RESET}*%
%TO.N,VCC*%
X489500000Y-193960000D03*
%TO.P,U3,19,INTB*%
%TO.N,unconnected-(U3-INTB-Pad19)*%
X489500000Y-196500000D03*
%TO.P,U3,20,INTA*%
%TO.N,unconnected-(U3-INTA-Pad20)*%
X489500000Y-199040000D03*
%TO.P,U3,21,GPA0*%
%TO.N,R1*%
X489500000Y-201580000D03*
%TO.P,U3,22,GPA1*%
%TO.N,R2*%
X489500000Y-204120000D03*
%TO.P,U3,23,GPA2*%
%TO.N,R3*%
X489500000Y-206660000D03*
%TO.P,U3,24,GPA3*%
%TO.N,R4*%
X489500000Y-209200000D03*
%TO.P,U3,25,GPA4*%
%TO.N,R5*%
X489500000Y-211740000D03*
%TO.P,U3,26,GPA5*%
%TO.N,R6*%
X489500000Y-214280000D03*
%TO.P,U3,27,GPA6*%
%TO.N,unconnected-(U3-GPA6-Pad27)*%
X489500000Y-216820000D03*
%TO.P,U3,28,GPA7*%
%TO.N,unconnected-(U3-GPA7-Pad28)*%
X489500000Y-219360000D03*
%TD*%
D10*
%TO.P,SW60,1,1*%
%TO.N,C23*%
X471650000Y-184485000D03*
%TO.P,SW60,2,2*%
%TO.N,Net-(D108-A)*%
X465300000Y-187025000D03*
%TD*%
%TO.P,SW51,1,1*%
%TO.N,C13*%
X281150000Y-174960000D03*
%TO.P,SW51,2,2*%
%TO.N,Net-(D68-A)*%
X274800000Y-177500000D03*
%TD*%
%TO.P,SW56,1,1*%
%TO.N,C19*%
X390687500Y-174960000D03*
%TO.P,SW56,2,2*%
%TO.N,Net-(D91-A)*%
X384337500Y-177500000D03*
%TD*%
%TO.P,SW80,1,1*%
%TO.N,C3*%
X104937500Y-213060000D03*
%TO.P,SW80,2,2*%
%TO.N,Net-(D15-A)*%
X98587500Y-215600000D03*
%TD*%
%TO.P,SW104,1,1*%
%TO.N,C15*%
X326393750Y-232110000D03*
%TO.P,SW104,2,2*%
%TO.N,Net-(D71-A)*%
X320043750Y-234650000D03*
%TD*%
%TO.P,SW89,1,1*%
%TO.N,C13*%
X276387500Y-213060000D03*
%TO.P,SW89,2,2*%
%TO.N,Net-(D64-A)*%
X270037500Y-215600000D03*
%TD*%
%TO.P,SW74,1,1*%
%TO.N,C15*%
X316868750Y-194010000D03*
%TO.P,SW74,2,2*%
%TO.N,Net-(D78-A)*%
X310518750Y-196550000D03*
%TD*%
%TO.P,SW94,1,1*%
%TO.N,C22*%
X452600000Y-213060000D03*
%TO.P,SW94,2,2*%
%TO.N,Net-(D105-A)*%
X446250000Y-215600000D03*
%TD*%
%TO.P,SW77,1,1*%
%TO.N,C22*%
X452600000Y-194010000D03*
%TO.P,SW77,2,2*%
%TO.N,Net-(D104-A)*%
X446250000Y-196550000D03*
%TD*%
%TO.P,SW39,1,1*%
%TO.N,C1*%
X38262500Y-174960000D03*
%TO.P,SW39,2,2*%
%TO.N,Net-(D3-A)*%
X31912500Y-177500000D03*
%TD*%
%TO.P,SW108,1,1*%
%TO.N,C20*%
X424025000Y-232110000D03*
%TO.P,SW108,2,2*%
%TO.N,Net-(D96-A)*%
X417675000Y-234650000D03*
%TD*%
%TO.P,SW84,1,1*%
%TO.N,C7*%
X181137500Y-213060000D03*
%TO.P,SW84,2,2*%
%TO.N,Net-(D37-A)*%
X174787500Y-215600000D03*
%TD*%
%TO.P,SW59,1,1*%
%TO.N,C22*%
X452600000Y-174960000D03*
%TO.P,SW59,2,2*%
%TO.N,Net-(D103-A)*%
X446250000Y-177500000D03*
%TD*%
%TO.P,SW21,1,1*%
%TO.N,C5*%
X119225000Y-155910000D03*
%TO.P,SW21,2,2*%
%TO.N,Net-(D24-A)*%
X112875000Y-158450000D03*
%TD*%
%TO.P,SW49,1,1*%
%TO.N,C11*%
X243050000Y-174960000D03*
%TO.P,SW49,2,2*%
%TO.N,Net-(D56-A)*%
X236700000Y-177500000D03*
%TD*%
%TO.P,SW103,1,1*%
%TO.N,C13*%
X302581250Y-232110000D03*
%TO.P,SW103,2,2*%
%TO.N,Net-(D65-A)*%
X296231250Y-234650000D03*
%TD*%
%TO.P,SW81,1,1*%
%TO.N,C4*%
X123987500Y-213060000D03*
%TO.P,SW81,2,2*%
%TO.N,Net-(D21-A)*%
X117637500Y-215600000D03*
%TD*%
%TO.P,SW109,1,1*%
%TO.N,C22*%
X452600000Y-232110000D03*
%TO.P,SW109,2,2*%
%TO.N,Net-(D106-A)*%
X446250000Y-234650000D03*
%TD*%
%TO.P,SW4,1,1*%
%TO.N,C6*%
X138275000Y-127335000D03*
%TO.P,SW4,2,2*%
%TO.N,Net-(D28-A)*%
X131925000Y-129875000D03*
%TD*%
%TO.P,SW26,1,1*%
%TO.N,C10*%
X214475000Y-155910000D03*
%TO.P,SW26,2,2*%
%TO.N,Net-(D49-A)*%
X208125000Y-158450000D03*
%TD*%
%TO.P,SW45,1,1*%
%TO.N,C7*%
X166850000Y-174960000D03*
%TO.P,SW45,2,2*%
%TO.N,Net-(D35-A)*%
X160500000Y-177500000D03*
%TD*%
%TO.P,SW19,1,1*%
%TO.N,C3*%
X81125000Y-155910000D03*
%TO.P,SW19,2,2*%
%TO.N,Net-(D12-A)*%
X74775000Y-158450000D03*
%TD*%
%TO.P,SW101,1,1*%
%TO.N,C10*%
X254956250Y-232110000D03*
%TO.P,SW101,2,2*%
%TO.N,Net-(D53-A)*%
X248606250Y-234650000D03*
%TD*%
%TO.P,SW54,1,1*%
%TO.N,C17*%
X352587500Y-174960000D03*
%TO.P,SW54,2,2*%
%TO.N,Net-(D82-A)*%
X346237500Y-177500000D03*
%TD*%
%TO.P,SW12,1,1*%
%TO.N,C15*%
X309725000Y-127335000D03*
%TO.P,SW12,2,2*%
%TO.N,Net-(D73-A)*%
X303375000Y-129875000D03*
%TD*%
D18*
%TO.P,U1,14,VBUS*%
%TO.N,unconnected-(U1-VBUS-Pad14)_1*%
X497000000Y-127880000D03*
%TO.P,U1,13,GND*%
%TO.N,GND*%
X497000000Y-130420000D03*
%TO.P,U1,12,VCC_3V3*%
%TO.N,VCC*%
X497000000Y-132960000D03*
%TO.P,U1,11,GPIO10/D10/MOSI*%
%TO.N,ENC2_B*%
X497000000Y-135500000D03*
%TO.P,U1,10,GPIO9/D9/MISO*%
%TO.N,ENC2_A*%
X497000000Y-138040000D03*
%TO.P,U1,9,GPIO8/D8/SCK*%
%TO.N,ENC1_B*%
X497000000Y-140580000D03*
%TO.P,U1,8,GPIO20/D7/RX*%
%TO.N,ENC1_A*%
X497000000Y-143120000D03*
%TO.P,U1,7,GPIO21/D6/TX*%
%TO.N,unconnected-(U1-GPIO21{slash}D6{slash}TX-Pad7)_1*%
X481760000Y-143120000D03*
%TO.P,U1,6,GPIO7/D5/SCL*%
%TO.N,SCL*%
X481760000Y-140580000D03*
%TO.P,U1,5,GPIO6/D4/SDA*%
%TO.N,SDA*%
X481760000Y-138040000D03*
%TO.P,U1,4,GPIO5/A3/D3*%
%TO.N,unconnected-(U1-GPIO5{slash}A3{slash}D3-Pad4)_1*%
X481760000Y-135500000D03*
%TO.P,U1,3,GPIO4/A2/D2*%
%TO.N,unconnected-(U1-GPIO4{slash}A2{slash}D2-Pad3)*%
X481760000Y-132960000D03*
%TO.P,U1,2,GPIO3/A1/D1*%
%TO.N,ENC1_SW*%
X481760000Y-130420000D03*
%TO.P,U1,1,GPIO2/A0/D0*%
%TO.N,ENC2_SW*%
X481760000Y-127880000D03*
%TD*%
D10*
%TO.P,SW1,1,1*%
%TO.N,C2*%
X62075000Y-127335000D03*
%TO.P,SW1,2,2*%
%TO.N,Net-(D2-A)*%
X55725000Y-129875000D03*
%TD*%
%TO.P,SW43,1,1*%
%TO.N,C5*%
X128750000Y-174960000D03*
%TO.P,SW43,2,2*%
%TO.N,Net-(D25-A)*%
X122400000Y-177500000D03*
%TD*%
%TO.P,SW8,1,1*%
%TO.N,C11*%
X224000000Y-127335000D03*
%TO.P,SW8,2,2*%
%TO.N,Net-(D54-A)*%
X217650000Y-129875000D03*
%TD*%
%TO.P,SW10,1,1*%
%TO.N,C13*%
X271625000Y-127335000D03*
%TO.P,SW10,2,2*%
%TO.N,Net-(D76-A)*%
X265275000Y-129875000D03*
%TD*%
%TO.P,SW50,1,1*%
%TO.N,C12*%
X262100000Y-174960000D03*
%TO.P,SW50,2,2*%
%TO.N,Net-(D62-A)*%
X255750000Y-177500000D03*
%TD*%
D19*
%TO.P,D37,1,K*%
%TO.N,R5*%
X182447500Y-223560000D03*
D20*
%TO.P,D37,2,A*%
%TO.N,Net-(D37-A)*%
X174827500Y-223560000D03*
%TD*%
D19*
%TO.P,D41,1,K*%
%TO.N,R4*%
X191972500Y-204510000D03*
D20*
%TO.P,D41,2,A*%
%TO.N,Net-(D41-A)*%
X184352500Y-204510000D03*
%TD*%
D19*
%TO.P,D28,1,K*%
%TO.N,R1*%
X139585000Y-137835000D03*
D20*
%TO.P,D28,2,A*%
%TO.N,Net-(D28-A)*%
X131965000Y-137835000D03*
%TD*%
D19*
%TO.P,D68,1,K*%
%TO.N,R3*%
X282460000Y-185460000D03*
D20*
%TO.P,D68,2,A*%
%TO.N,Net-(D68-A)*%
X274840000Y-185460000D03*
%TD*%
D19*
%TO.P,D53,1,K*%
%TO.N,R6*%
X256266250Y-242610000D03*
D20*
%TO.P,D53,2,A*%
%TO.N,Net-(D53-A)*%
X248646250Y-242610000D03*
%TD*%
D19*
%TO.P,D100,1,K*%
%TO.N,R4*%
X434860000Y-204510000D03*
D20*
%TO.P,D100,2,A*%
%TO.N,Net-(D100-A)*%
X427240000Y-204510000D03*
%TD*%
D19*
%TO.P,D98,1,K*%
%TO.N,R2*%
X434860000Y-166410000D03*
D20*
%TO.P,D98,2,A*%
%TO.N,Net-(D98-A)*%
X427240000Y-166410000D03*
%TD*%
D19*
%TO.P,D76,1,K*%
%TO.N,R1*%
X272935000Y-137835000D03*
D20*
%TO.P,D76,2,A*%
%TO.N,Net-(D76-A)*%
X265315000Y-137835000D03*
%TD*%
D19*
%TO.P,D99,1,K*%
%TO.N,R3*%
X434860000Y-185460000D03*
D20*
%TO.P,D99,2,A*%
%TO.N,Net-(D99-A)*%
X427240000Y-185460000D03*
%TD*%
D19*
%TO.P,D39,1,K*%
%TO.N,R2*%
X177685000Y-166410000D03*
D20*
%TO.P,D39,2,A*%
%TO.N,Net-(D39-A)*%
X170065000Y-166410000D03*
%TD*%
D19*
%TO.P,D86,1,K*%
%TO.N,R3*%
X372947500Y-185460000D03*
D20*
%TO.P,D86,2,A*%
%TO.N,Net-(D86-A)*%
X365327500Y-185460000D03*
%TD*%
D19*
%TO.P,D31,1,K*%
%TO.N,R4*%
X153872500Y-204510000D03*
D20*
%TO.P,D31,2,A*%
%TO.N,Net-(D31-A)*%
X146252500Y-204510000D03*
%TD*%
D19*
%TO.P,D49,1,K*%
%TO.N,R2*%
X215785000Y-166410000D03*
D20*
%TO.P,D49,2,A*%
%TO.N,Net-(D49-A)*%
X208165000Y-166410000D03*
%TD*%
D19*
%TO.P,D44,1,K*%
%TO.N,R3*%
X206260000Y-185460000D03*
D20*
%TO.P,D44,2,A*%
%TO.N,Net-(D44-A)*%
X198640000Y-185460000D03*
%TD*%
D19*
%TO.P,D47,1,K*%
%TO.N,R1*%
X187210000Y-137835000D03*
D20*
%TO.P,D47,2,A*%
%TO.N,Net-(D47-A)*%
X179590000Y-137835000D03*
%TD*%
D19*
%TO.P,D35,1,K*%
%TO.N,R3*%
X168160000Y-185460000D03*
D20*
%TO.P,D35,2,A*%
%TO.N,Net-(D35-A)*%
X160540000Y-185460000D03*
%TD*%
D19*
%TO.P,D40,1,K*%
%TO.N,R3*%
X187210000Y-185460000D03*
D20*
%TO.P,D40,2,A*%
%TO.N,Net-(D40-A)*%
X179590000Y-185460000D03*
%TD*%
D19*
%TO.P,D60,1,K*%
%TO.N,R1*%
X244360000Y-137835000D03*
D20*
%TO.P,D60,2,A*%
%TO.N,Net-(D60-A)*%
X236740000Y-137835000D03*
%TD*%
D19*
%TO.P,D23,1,K*%
%TO.N,R1*%
X120535000Y-137835000D03*
D20*
%TO.P,D23,2,A*%
%TO.N,Net-(D23-A)*%
X112915000Y-137835000D03*
%TD*%
D19*
%TO.P,D104,1,K*%
%TO.N,R4*%
X453910000Y-204510000D03*
D20*
%TO.P,D104,2,A*%
%TO.N,Net-(D104-A)*%
X446290000Y-204510000D03*
%TD*%
D19*
%TO.P,D43,1,K*%
%TO.N,R2*%
X196735000Y-166410000D03*
D20*
%TO.P,D43,2,A*%
%TO.N,Net-(D43-A)*%
X189115000Y-166410000D03*
%TD*%
D19*
%TO.P,D63,1,K*%
%TO.N,R4*%
X268172500Y-204510000D03*
D20*
%TO.P,D63,2,A*%
%TO.N,Net-(D63-A)*%
X260552500Y-204510000D03*
%TD*%
D19*
%TO.P,D8,1,K*%
%TO.N,R3*%
X68147500Y-185460000D03*
D20*
%TO.P,D8,2,A*%
%TO.N,Net-(D8-A)*%
X60527500Y-185460000D03*
%TD*%
D19*
%TO.P,D78,1,K*%
%TO.N,R4*%
X318178750Y-204510000D03*
D20*
%TO.P,D78,2,A*%
%TO.N,Net-(D78-A)*%
X310558750Y-204510000D03*
%TD*%
D19*
%TO.P,D16,1,K*%
%TO.N,R6*%
X89578750Y-242610000D03*
D20*
%TO.P,D16,2,A*%
%TO.N,Net-(D16-A)*%
X81958750Y-242610000D03*
%TD*%
D19*
%TO.P,D88,1,K*%
%TO.N,R5*%
X372947500Y-223560000D03*
D20*
%TO.P,D88,2,A*%
%TO.N,Net-(D88-A)*%
X365327500Y-223560000D03*
%TD*%
D19*
%TO.P,D33,1,K*%
%TO.N,R1*%
X158635000Y-137835000D03*
D20*
%TO.P,D33,2,A*%
%TO.N,Net-(D33-A)*%
X151015000Y-137835000D03*
%TD*%
D19*
%TO.P,D102,1,K*%
%TO.N,R2*%
X453910000Y-166410000D03*
D20*
%TO.P,D102,2,A*%
%TO.N,Net-(D102-A)*%
X446290000Y-166410000D03*
%TD*%
D19*
%TO.P,D21,1,K*%
%TO.N,R5*%
X125297500Y-223560000D03*
D20*
%TO.P,D21,2,A*%
%TO.N,Net-(D21-A)*%
X117677500Y-223560000D03*
%TD*%
D19*
%TO.P,D82,1,K*%
%TO.N,R3*%
X353897500Y-185460000D03*
D20*
%TO.P,D82,2,A*%
%TO.N,Net-(D82-A)*%
X346277500Y-185460000D03*
%TD*%
D19*
%TO.P,D72,1,K*%
%TO.N,R3*%
X301510000Y-185460000D03*
D20*
%TO.P,D72,2,A*%
%TO.N,Net-(D72-A)*%
X293890000Y-185460000D03*
%TD*%
D19*
%TO.P,D24,1,K*%
%TO.N,R2*%
X120535000Y-166410000D03*
D20*
%TO.P,D24,2,A*%
%TO.N,Net-(D24-A)*%
X112915000Y-166410000D03*
%TD*%
D19*
%TO.P,D55,1,K*%
%TO.N,R2*%
X234835000Y-166410000D03*
D20*
%TO.P,D55,2,A*%
%TO.N,Net-(D55-A)*%
X227215000Y-166410000D03*
%TD*%
D19*
%TO.P,D42,1,K*%
%TO.N,R5*%
X201497500Y-223560000D03*
D20*
%TO.P,D42,2,A*%
%TO.N,Net-(D42-A)*%
X193877500Y-223560000D03*
%TD*%
D19*
%TO.P,D87,1,K*%
%TO.N,R6*%
X372947500Y-242610000D03*
D20*
%TO.P,D87,2,A*%
%TO.N,Net-(D87-A)*%
X365327500Y-242610000D03*
%TD*%
D19*
%TO.P,D101,1,K*%
%TO.N,R5*%
X434860000Y-223560000D03*
D20*
%TO.P,D101,2,A*%
%TO.N,Net-(D101-A)*%
X427240000Y-223560000D03*
%TD*%
D19*
%TO.P,D48,1,K*%
%TO.N,R1*%
X206260000Y-137835000D03*
D20*
%TO.P,D48,2,A*%
%TO.N,Net-(D48-A)*%
X198640000Y-137835000D03*
%TD*%
D19*
%TO.P,D108,1,K*%
%TO.N,R3*%
X472960000Y-194985000D03*
D20*
%TO.P,D108,2,A*%
%TO.N,Net-(D108-A)*%
X465340000Y-194985000D03*
%TD*%
D19*
%TO.P,D58,1,K*%
%TO.N,R5*%
X258647500Y-223560000D03*
D20*
%TO.P,D58,2,A*%
%TO.N,Net-(D58-A)*%
X251027500Y-223560000D03*
%TD*%
D19*
%TO.P,D12,1,K*%
%TO.N,R2*%
X82435000Y-166410000D03*
D20*
%TO.P,D12,2,A*%
%TO.N,Net-(D12-A)*%
X74815000Y-166410000D03*
%TD*%
D19*
%TO.P,D38,1,K*%
%TO.N,R6*%
X184828750Y-242610000D03*
D20*
%TO.P,D38,2,A*%
%TO.N,Net-(D38-A)*%
X177208750Y-242610000D03*
%TD*%
D19*
%TO.P,D7,1,K*%
%TO.N,R2*%
X63385000Y-166410000D03*
D20*
%TO.P,D7,2,A*%
%TO.N,Net-(D7-A)*%
X55765000Y-166410000D03*
%TD*%
D19*
%TO.P,D105,1,K*%
%TO.N,R5*%
X453910000Y-223560000D03*
D20*
%TO.P,D105,2,A*%
%TO.N,Net-(D105-A)*%
X446290000Y-223560000D03*
%TD*%
D19*
%TO.P,D73,1,K*%
%TO.N,R1*%
X311035000Y-137835000D03*
D20*
%TO.P,D73,2,A*%
%TO.N,Net-(D73-A)*%
X303415000Y-137835000D03*
%TD*%
D19*
%TO.P,D6,1,K*%
%TO.N,R6*%
X39572500Y-242610000D03*
D20*
%TO.P,D6,2,A*%
%TO.N,Net-(D6-A)*%
X31952500Y-242610000D03*
%TD*%
D19*
%TO.P,D91,1,K*%
%TO.N,R3*%
X391997500Y-185460000D03*
D20*
%TO.P,D91,2,A*%
%TO.N,Net-(D91-A)*%
X384377500Y-185460000D03*
%TD*%
D19*
%TO.P,D103,1,K*%
%TO.N,R3*%
X453910000Y-185460000D03*
D20*
%TO.P,D103,2,A*%
%TO.N,Net-(D103-A)*%
X446290000Y-185460000D03*
%TD*%
D19*
%TO.P,D75,1,K*%
%TO.N,R3*%
X325322500Y-185460000D03*
D20*
%TO.P,D75,2,A*%
%TO.N,Net-(D75-A)*%
X317702500Y-185460000D03*
%TD*%
D19*
%TO.P,D22,1,K*%
%TO.N,R6*%
X113391250Y-242610000D03*
D20*
%TO.P,D22,2,A*%
%TO.N,Net-(D22-A)*%
X105771250Y-242610000D03*
%TD*%
D19*
%TO.P,D83,1,K*%
%TO.N,R1*%
X372947500Y-137835000D03*
D20*
%TO.P,D83,2,A*%
%TO.N,Net-(D83-A)*%
X365327500Y-137835000D03*
%TD*%
D19*
%TO.P,D27,1,K*%
%TO.N,R5*%
X144347500Y-223560000D03*
D20*
%TO.P,D27,2,A*%
%TO.N,Net-(D27-A)*%
X136727500Y-223560000D03*
%TD*%
D19*
%TO.P,D17,1,K*%
%TO.N,R1*%
X101485000Y-137835000D03*
D20*
%TO.P,D17,2,A*%
%TO.N,Net-(D17-A)*%
X93865000Y-137835000D03*
%TD*%
D19*
%TO.P,D19,1,K*%
%TO.N,R3*%
X111010000Y-185460000D03*
D20*
%TO.P,D19,2,A*%
%TO.N,Net-(D19-A)*%
X103390000Y-185460000D03*
%TD*%
D19*
%TO.P,D25,1,K*%
%TO.N,R3*%
X130060000Y-185460000D03*
D20*
%TO.P,D25,2,A*%
%TO.N,Net-(D25-A)*%
X122440000Y-185460000D03*
%TD*%
D19*
%TO.P,D96,1,K*%
%TO.N,R6*%
X425335000Y-242610000D03*
D20*
%TO.P,D96,2,A*%
%TO.N,Net-(D96-A)*%
X417715000Y-242610000D03*
%TD*%
D19*
%TO.P,D97,1,K*%
%TO.N,R5*%
X415810000Y-223560000D03*
D20*
%TO.P,D97,2,A*%
%TO.N,Net-(D97-A)*%
X408190000Y-223560000D03*
%TD*%
D19*
%TO.P,D71,1,K*%
%TO.N,R6*%
X327703750Y-242610000D03*
D20*
%TO.P,D71,2,A*%
%TO.N,Net-(D71-A)*%
X320083750Y-242610000D03*
%TD*%
D19*
%TO.P,D95,1,K*%
%TO.N,R3*%
X415810000Y-185460000D03*
D20*
%TO.P,D95,2,A*%
%TO.N,Net-(D95-A)*%
X408190000Y-185460000D03*
%TD*%
D19*
%TO.P,D13,1,K*%
%TO.N,R3*%
X91960000Y-185460000D03*
D20*
%TO.P,D13,2,A*%
%TO.N,Net-(D13-A)*%
X84340000Y-185460000D03*
%TD*%
D19*
%TO.P,D80,1,K*%
%TO.N,R1*%
X353897500Y-137835000D03*
D20*
%TO.P,D80,2,A*%
%TO.N,Net-(D80-A)*%
X346277500Y-137835000D03*
%TD*%
D19*
%TO.P,D110,1,K*%
%TO.N,R5*%
X472960000Y-233085000D03*
D20*
%TO.P,D110,2,A*%
%TO.N,Net-(D110-A)*%
X465340000Y-233085000D03*
%TD*%
D19*
%TO.P,D56,1,K*%
%TO.N,R3*%
X244360000Y-185460000D03*
D20*
%TO.P,D56,2,A*%
%TO.N,Net-(D56-A)*%
X236740000Y-185460000D03*
%TD*%
D19*
%TO.P,D85,1,K*%
%TO.N,R6*%
X353897500Y-242610000D03*
D20*
%TO.P,D85,2,A*%
%TO.N,Net-(D85-A)*%
X346277500Y-242610000D03*
%TD*%
D19*
%TO.P,D107,1,K*%
%TO.N,R2*%
X472960000Y-166410000D03*
D20*
%TO.P,D107,2,A*%
%TO.N,Net-(D107-A)*%
X465340000Y-166410000D03*
%TD*%
D19*
%TO.P,D90,1,K*%
%TO.N,R2*%
X391997500Y-166410000D03*
D20*
%TO.P,D90,2,A*%
%TO.N,Net-(D90-A)*%
X384377500Y-166410000D03*
%TD*%
D19*
%TO.P,D2,1,K*%
%TO.N,R1*%
X63385000Y-137835000D03*
D20*
%TO.P,D2,2,A*%
%TO.N,Net-(D2-A)*%
X55765000Y-137835000D03*
%TD*%
D19*
%TO.P,D15,1,K*%
%TO.N,R5*%
X106247500Y-223560000D03*
D20*
%TO.P,D15,2,A*%
%TO.N,Net-(D15-A)*%
X98627500Y-223560000D03*
%TD*%
D19*
%TO.P,D70,1,K*%
%TO.N,R5*%
X313416250Y-223560000D03*
D20*
%TO.P,D70,2,A*%
%TO.N,Net-(D70-A)*%
X305796250Y-223560000D03*
%TD*%
D19*
%TO.P,D57,1,K*%
%TO.N,R4*%
X249122500Y-204510000D03*
D20*
%TO.P,D57,2,A*%
%TO.N,Net-(D57-A)*%
X241502500Y-204510000D03*
%TD*%
D19*
%TO.P,D20,1,K*%
%TO.N,R4*%
X115772500Y-204510000D03*
D20*
%TO.P,D20,2,A*%
%TO.N,Net-(D20-A)*%
X108152500Y-204510000D03*
%TD*%
D19*
%TO.P,D30,1,K*%
%TO.N,R3*%
X149110000Y-185460000D03*
D20*
%TO.P,D30,2,A*%
%TO.N,Net-(D30-A)*%
X141490000Y-185460000D03*
%TD*%
D19*
%TO.P,D11,1,K*%
%TO.N,R6*%
X65766250Y-242610000D03*
D20*
%TO.P,D11,2,A*%
%TO.N,Net-(D11-A)*%
X58146250Y-242610000D03*
%TD*%
D19*
%TO.P,D84,1,K*%
%TO.N,R2*%
X372947500Y-166410000D03*
D20*
%TO.P,D84,2,A*%
%TO.N,Net-(D84-A)*%
X365327500Y-166410000D03*
%TD*%
D19*
%TO.P,D51,1,K*%
%TO.N,R4*%
X230072500Y-204510000D03*
D20*
%TO.P,D51,2,A*%
%TO.N,Net-(D51-A)*%
X222452500Y-204510000D03*
%TD*%
D19*
%TO.P,D29,1,K*%
%TO.N,R2*%
X139585000Y-166410000D03*
D20*
%TO.P,D29,2,A*%
%TO.N,Net-(D29-A)*%
X131965000Y-166410000D03*
%TD*%
D19*
%TO.P,D106,1,K*%
%TO.N,R6*%
X453910000Y-242610000D03*
D20*
%TO.P,D106,2,A*%
%TO.N,Net-(D106-A)*%
X446290000Y-242610000D03*
%TD*%
D19*
%TO.P,D32,1,K*%
%TO.N,R5*%
X163397500Y-223560000D03*
D20*
%TO.P,D32,2,A*%
%TO.N,Net-(D32-A)*%
X155777500Y-223560000D03*
%TD*%
D19*
%TO.P,D79,1,K*%
%TO.N,R1*%
X330085000Y-137835000D03*
D20*
%TO.P,D79,2,A*%
%TO.N,Net-(D79-A)*%
X322465000Y-137835000D03*
%TD*%
D19*
%TO.P,D46,1,K*%
%TO.N,R5*%
X220547500Y-223560000D03*
D20*
%TO.P,D46,2,A*%
%TO.N,Net-(D46-A)*%
X212927500Y-223560000D03*
%TD*%
%TO.P,D3,2,A*%
%TO.N,Net-(D3-A)*%
X31952500Y-185460000D03*
D19*
%TO.P,D3,1,K*%
%TO.N,R3*%
X39572500Y-185460000D03*
%TD*%
%TO.P,D14,1,K*%
%TO.N,R4*%
X96722500Y-204510000D03*
D20*
%TO.P,D14,2,A*%
%TO.N,Net-(D14-A)*%
X89102500Y-204510000D03*
%TD*%
D19*
%TO.P,D92,1,K*%
%TO.N,R4*%
X415810000Y-204510000D03*
D20*
%TO.P,D92,2,A*%
%TO.N,Net-(D92-A)*%
X408190000Y-204510000D03*
%TD*%
D19*
%TO.P,D18,1,K*%
%TO.N,R2*%
X101485000Y-166410000D03*
D20*
%TO.P,D18,2,A*%
%TO.N,Net-(D18-A)*%
X93865000Y-166410000D03*
%TD*%
D19*
%TO.P,D50,1,K*%
%TO.N,R3*%
X225310000Y-185460000D03*
D20*
%TO.P,D50,2,A*%
%TO.N,Net-(D50-A)*%
X217690000Y-185460000D03*
%TD*%
D19*
%TO.P,D81,1,K*%
%TO.N,R2*%
X353897500Y-166410000D03*
D20*
%TO.P,D81,2,A*%
%TO.N,Net-(D81-A)*%
X346277500Y-166410000D03*
%TD*%
D19*
%TO.P,D65,1,K*%
%TO.N,R6*%
X303891250Y-242610000D03*
D20*
%TO.P,D65,2,A*%
%TO.N,Net-(D65-A)*%
X296271250Y-242610000D03*
%TD*%
D19*
%TO.P,D5,1,K*%
%TO.N,R5*%
X39572500Y-223560000D03*
D20*
%TO.P,D5,2,A*%
%TO.N,Net-(D5-A)*%
X31952500Y-223560000D03*
%TD*%
D19*
%TO.P,D67,1,K*%
%TO.N,R2*%
X272935000Y-166410000D03*
D20*
%TO.P,D67,2,A*%
%TO.N,Net-(D67-A)*%
X265315000Y-166410000D03*
%TD*%
D19*
%TO.P,D61,1,K*%
%TO.N,R2*%
X253885000Y-166410000D03*
D20*
%TO.P,D61,2,A*%
%TO.N,Net-(D61-A)*%
X246265000Y-166410000D03*
%TD*%
D19*
%TO.P,D66,1,K*%
%TO.N,R2*%
X291985000Y-166410000D03*
D20*
%TO.P,D66,2,A*%
%TO.N,Net-(D66-A)*%
X284365000Y-166410000D03*
%TD*%
D19*
%TO.P,D52,1,K*%
%TO.N,R5*%
X239597500Y-223560000D03*
D20*
%TO.P,D52,2,A*%
%TO.N,Net-(D52-A)*%
X231977500Y-223560000D03*
%TD*%
D19*
%TO.P,D59,1,K*%
%TO.N,R6*%
X280078750Y-242610000D03*
D20*
%TO.P,D59,2,A*%
%TO.N,Net-(D59-A)*%
X272458750Y-242610000D03*
%TD*%
D19*
%TO.P,D93,1,K*%
%TO.N,R6*%
X391997500Y-242610000D03*
D20*
%TO.P,D93,2,A*%
%TO.N,Net-(D93-A)*%
X384377500Y-242610000D03*
%TD*%
D19*
%TO.P,D77,1,K*%
%TO.N,R1*%
X291985000Y-137835000D03*
D20*
%TO.P,D77,2,A*%
%TO.N,Net-(D77-A)*%
X284365000Y-137835000D03*
%TD*%
D19*
%TO.P,D26,1,K*%
%TO.N,R4*%
X134822500Y-204510000D03*
D20*
%TO.P,D26,2,A*%
%TO.N,Net-(D26-A)*%
X127202500Y-204510000D03*
%TD*%
D19*
%TO.P,D64,1,K*%
%TO.N,R5*%
X277697500Y-223560000D03*
D20*
%TO.P,D64,2,A*%
%TO.N,Net-(D64-A)*%
X270077500Y-223560000D03*
%TD*%
D19*
%TO.P,D74,1,K*%
%TO.N,R2*%
X320560000Y-166410000D03*
D20*
%TO.P,D74,2,A*%
%TO.N,Net-(D74-A)*%
X312940000Y-166410000D03*
%TD*%
D19*
%TO.P,D9,1,K*%
%TO.N,R4*%
X70528750Y-204510000D03*
D20*
%TO.P,D9,2,A*%
%TO.N,Net-(D9-A)*%
X62908750Y-204510000D03*
%TD*%
D19*
%TO.P,D45,1,K*%
%TO.N,R4*%
X211022500Y-204510000D03*
D20*
%TO.P,D45,2,A*%
%TO.N,Net-(D45-A)*%
X203402500Y-204510000D03*
%TD*%
D19*
%TO.P,D69,1,K*%
%TO.N,R4*%
X287222500Y-204510000D03*
D20*
%TO.P,D69,2,A*%
%TO.N,Net-(D69-A)*%
X279602500Y-204510000D03*
%TD*%
D19*
%TO.P,D89,1,K*%
%TO.N,R1*%
X391997500Y-137835000D03*
D20*
%TO.P,D89,2,A*%
%TO.N,Net-(D89-A)*%
X384377500Y-137835000D03*
%TD*%
D19*
%TO.P,D34,1,K*%
%TO.N,R2*%
X158635000Y-166410000D03*
D20*
%TO.P,D34,2,A*%
%TO.N,Net-(D34-A)*%
X151015000Y-166410000D03*
%TD*%
D19*
%TO.P,D36,1,K*%
%TO.N,R4*%
X172922500Y-204510000D03*
D20*
%TO.P,D36,2,A*%
%TO.N,Net-(D36-A)*%
X165302500Y-204510000D03*
%TD*%
D19*
%TO.P,D1,1,K*%
%TO.N,R2*%
X39572500Y-166410000D03*
D20*
%TO.P,D1,2,A*%
%TO.N,Net-(D1-A)*%
X31952500Y-166410000D03*
%TD*%
D19*
%TO.P,D62,1,K*%
%TO.N,R3*%
X263410000Y-185460000D03*
D20*
%TO.P,D62,2,A*%
%TO.N,Net-(D62-A)*%
X255790000Y-185460000D03*
%TD*%
D19*
%TO.P,D4,1,K*%
%TO.N,R4*%
X39572500Y-204510000D03*
D20*
%TO.P,D4,2,A*%
%TO.N,Net-(D4-A)*%
X31952500Y-204510000D03*
%TD*%
D19*
%TO.P,D94,1,K*%
%TO.N,R2*%
X415810000Y-166410000D03*
D20*
%TO.P,D94,2,A*%
%TO.N,Net-(D94-A)*%
X408190000Y-166410000D03*
%TD*%
D19*
%TO.P,D10,1,K*%
%TO.N,R5*%
X75291250Y-223560000D03*
D20*
%TO.P,D10,2,A*%
%TO.N,Net-(D10-A)*%
X67671250Y-223560000D03*
%TD*%
D10*
%TO.P,SW18,2,2*%
%TO.N,Net-(D7-A)*%
X55725000Y-158450000D03*
%TO.P,SW18,1,1*%
%TO.N,C2*%
X62075000Y-155910000D03*
%TD*%
%TO.P,SW3,1,1*%
%TO.N,C5*%
X119225000Y-127335000D03*
%TO.P,SW3,2,2*%
%TO.N,Net-(D23-A)*%
X112875000Y-129875000D03*
%TD*%
D19*
%TO.P,D54,1,K*%
%TO.N,R1*%
X225310000Y-137835000D03*
D20*
%TO.P,D54,2,A*%
%TO.N,Net-(D54-A)*%
X217690000Y-137835000D03*
%TD*%
D21*
%TO.N,C23*%
X432065687Y-145934313D03*
%TO.N,C22*%
X431500000Y-146500000D03*
%TO.N,C21*%
X426500000Y-147100000D03*
%TO.N,C20*%
X408903971Y-147596029D03*
%TO.N,C17*%
X506000000Y-147000000D03*
%TO.N,C18*%
X505000000Y-147000000D03*
%TO.N,C19*%
X504000000Y-147000000D03*
%TO.N,C20*%
X503000000Y-147000000D03*
%TO.N,C21*%
X502000000Y-147000000D03*
%TO.N,C22*%
X501000000Y-147000000D03*
%TO.N,C23*%
X500000000Y-147000000D03*
X500000000Y-201000000D03*
%TO.N,C22*%
X501000000Y-201000000D03*
%TO.N,C21*%
X502000000Y-201000000D03*
%TO.N,C20*%
X503000000Y-201000000D03*
%TO.N,C19*%
X504000000Y-201000000D03*
%TO.N,C18*%
X505000000Y-201000000D03*
%TO.N,C17*%
X505800003Y-201000000D03*
%TO.N,C3*%
X85000000Y-122500000D03*
%TO.N,C8*%
X171500000Y-125000000D03*
%TO.N,ENC1_B*%
X458000000Y-141500000D03*
%TO.N,ENC1_A*%
X459000000Y-141500000D03*
%TO.N,ENC1_B*%
X458000000Y-144500000D03*
%TO.N,ENC1_A*%
X460000000Y-146100000D03*
%TO.N,ENC2_B*%
X493500000Y-135500000D03*
%TO.N,ENC2_A*%
X493500000Y-138000000D03*
%TO.N,ENC1_B*%
X493500000Y-140500000D03*
%TO.N,ENC1_A*%
X493500000Y-143000000D03*
%TO.N,GND*%
X493000000Y-178500000D03*
%TO.N,VCC*%
X491500000Y-187000000D03*
%TO.N,GND*%
X493500000Y-186500000D03*
%TO.N,VCC*%
X492500000Y-185500000D03*
X494400000Y-175500000D03*
%TO.N,SCL*%
X491000000Y-176000000D03*
%TO.N,GND*%
X406500000Y-136000000D03*
%TD*%
D22*
%TO.N,C20*%
X409096029Y-147596029D02*
X414500000Y-153000000D01*
X408903971Y-147596029D02*
X409096029Y-147596029D01*
X414500000Y-153000000D02*
X414500000Y-155910000D01*
%TO.N,C23*%
X440075686Y-154510000D02*
X470250000Y-154510000D01*
X432100000Y-146534314D02*
X440075686Y-154510000D01*
X432100000Y-145968626D02*
X432100000Y-146534314D01*
X432065687Y-145934313D02*
X432100000Y-145968626D01*
X470250000Y-154510000D02*
X471650000Y-155910000D01*
%TO.N,C22*%
X440910000Y-155910000D02*
X452600000Y-155910000D01*
X431500000Y-146500000D02*
X440910000Y-155910000D01*
%TO.N,C21*%
X433550000Y-154150000D02*
X433550000Y-155910000D01*
X426500000Y-147100000D02*
X433550000Y-154150000D01*
%TO.N,C17*%
X506000000Y-166000000D02*
X506000000Y-147000000D01*
%TO.N,C18*%
X505000000Y-166000000D02*
X505000000Y-147000000D01*
%TO.N,C19*%
X504000000Y-147000000D02*
X504000000Y-201000000D01*
%TO.N,C20*%
X503000000Y-201000000D02*
X503000000Y-147000000D01*
%TO.N,C21*%
X502000000Y-201000000D02*
X502000000Y-147000000D01*
%TO.N,C22*%
X501000000Y-201000000D02*
X501000000Y-147000000D01*
%TO.N,C23*%
X500000000Y-166000000D02*
X500000000Y-147000000D01*
%TO.N,C18*%
X505000000Y-201000000D02*
X505000000Y-166000000D01*
%TO.N,C17*%
X506000000Y-200800003D02*
X506000000Y-166000000D01*
X505800003Y-201000000D02*
X506000000Y-200800003D01*
%TO.N,C23*%
X500000000Y-201000000D02*
X500000000Y-166000000D01*
%TO.N,R4*%
X459200000Y-209200000D02*
X454510000Y-204510000D01*
X489500000Y-209200000D02*
X459200000Y-209200000D01*
X454510000Y-204510000D02*
X453910000Y-204510000D01*
%TO.N,C1*%
X433000000Y-141000000D02*
X410434314Y-118434315D01*
X38262500Y-120762500D02*
X38262500Y-155910000D01*
X438700000Y-146700000D02*
X433000000Y-141000000D01*
X488400000Y-147834314D02*
X487265686Y-146700000D01*
X40825000Y-118200000D02*
X38262500Y-120762500D01*
X410200000Y-118200000D02*
X40825000Y-118200000D01*
X488400000Y-149120000D02*
X488400000Y-147834314D01*
X410434314Y-118434315D02*
X410200000Y-118200000D01*
X487265686Y-146700000D02*
X438700000Y-146700000D01*
X489380000Y-150100000D02*
X488400000Y-149120000D01*
%TO.N,R1*%
X65220000Y-136000000D02*
X99650000Y-136000000D01*
X99650000Y-136000000D02*
X101485000Y-137835000D01*
X63385000Y-137835000D02*
X65220000Y-136000000D01*
%TO.N,C2*%
X70810000Y-118600000D02*
X62075000Y-127335000D01*
X410034314Y-118600000D02*
X70810000Y-118600000D01*
X487100000Y-147100000D02*
X438534314Y-147100000D01*
X438534314Y-147100000D02*
X410034314Y-118600000D01*
X488000000Y-151260000D02*
X488000000Y-148000000D01*
X489380000Y-152640000D02*
X488000000Y-151260000D01*
X488000000Y-148000000D02*
X487100000Y-147100000D01*
%TO.N,C3*%
X88500000Y-119000000D02*
X85000000Y-122500000D01*
X409868629Y-119000000D02*
X88500000Y-119000000D01*
X438368629Y-147500000D02*
X409868629Y-119000000D01*
X487600000Y-153100000D02*
X487600000Y-148165686D01*
X488000000Y-153500000D02*
X487600000Y-153100000D01*
X488000000Y-153900000D02*
X488000000Y-153500000D01*
X489280000Y-155180000D02*
X488000000Y-153900000D01*
X487600000Y-148165686D02*
X486934314Y-147500000D01*
X486934314Y-147500000D02*
X438368629Y-147500000D01*
X489380000Y-155180000D02*
X489280000Y-155180000D01*
%TO.N,C4*%
X409702943Y-119400000D02*
X108110000Y-119400000D01*
X108110000Y-119400000D02*
X100175000Y-127335000D01*
X486768628Y-147900000D02*
X438202943Y-147900000D01*
X438202943Y-147900000D02*
X409702943Y-119400000D01*
X487200000Y-155540000D02*
X487200000Y-148331372D01*
X489380000Y-157720000D02*
X487200000Y-155540000D01*
X487200000Y-148331372D02*
X486768628Y-147900000D01*
%TO.N,C5*%
X409537258Y-119800000D02*
X433000000Y-143262742D01*
X126760000Y-119800000D02*
X409537258Y-119800000D01*
X119225000Y-127335000D02*
X126760000Y-119800000D01*
%TO.N,C6*%
X437871571Y-148700000D02*
X409371571Y-120200000D01*
X409371571Y-120200000D02*
X145410000Y-120200000D01*
X486400000Y-149100000D02*
X486000000Y-148700000D01*
X145410000Y-120200000D02*
X138275000Y-127335000D01*
X486400000Y-159820000D02*
X486400000Y-149100000D01*
X486000000Y-148700000D02*
X437871571Y-148700000D01*
X489380000Y-162800000D02*
X486400000Y-159820000D01*
%TO.N,C7*%
X164060000Y-120600000D02*
X157325000Y-127335000D01*
X409165686Y-120600000D02*
X164060000Y-120600000D01*
X437665686Y-149100000D02*
X409165686Y-120600000D01*
X437705885Y-149100000D02*
X437665686Y-149100000D01*
%TO.N,C8*%
X175500000Y-121000000D02*
X171500000Y-125000000D01*
X409000000Y-121000000D02*
X393500000Y-121000000D01*
X393500000Y-121000000D02*
X175500000Y-121000000D01*
X432500000Y-144500000D02*
X409000000Y-121000000D01*
X437500000Y-149500000D02*
X432500000Y-144500000D01*
X485500000Y-150000000D02*
X485000000Y-149500000D01*
X485500000Y-164000000D02*
X485500000Y-150000000D01*
X489380000Y-167880000D02*
X485500000Y-164000000D01*
X485000000Y-149500000D02*
X437500000Y-149500000D01*
%TO.N,C7*%
X485600000Y-149100000D02*
X437705885Y-149100000D01*
X486000000Y-149500000D02*
X485600000Y-149100000D01*
X486000000Y-161960000D02*
X486000000Y-149500000D01*
X489380000Y-165340000D02*
X486000000Y-161960000D01*
%TO.N,C5*%
X438037257Y-148300000D02*
X433000000Y-143262742D01*
X486602942Y-148300000D02*
X438037257Y-148300000D01*
X486800000Y-157680000D02*
X486800000Y-148497058D01*
X489380000Y-160260000D02*
X486800000Y-157680000D01*
X486800000Y-148497058D02*
X486602942Y-148300000D01*
%TO.N,R6*%
X452510000Y-244010000D02*
X453910000Y-242610000D01*
X445710101Y-244010000D02*
X452510000Y-244010000D01*
X444310101Y-242610000D02*
X445710101Y-244010000D01*
X425335000Y-242610000D02*
X444310101Y-242610000D01*
X423445000Y-244500000D02*
X425335000Y-242610000D01*
X415735101Y-242610000D02*
X417625101Y-244500000D01*
X417625101Y-244500000D02*
X423445000Y-244500000D01*
X391997500Y-242610000D02*
X415735101Y-242610000D01*
X375337500Y-245000000D02*
X389607500Y-245000000D01*
X372947500Y-242610000D02*
X375337500Y-245000000D01*
X389607500Y-245000000D02*
X391997500Y-242610000D01*
X371547500Y-244010000D02*
X372947500Y-242610000D01*
X355197500Y-242610000D02*
X356597500Y-244010000D01*
X353897500Y-242610000D02*
X355197500Y-242610000D01*
X356597500Y-244010000D02*
X371547500Y-244010000D01*
X329103750Y-244010000D02*
X352497500Y-244010000D01*
X352497500Y-244010000D02*
X353897500Y-242610000D01*
X327703750Y-242610000D02*
X329103750Y-244010000D01*
X324313750Y-246000000D02*
X327703750Y-242610000D01*
X307281250Y-246000000D02*
X324313750Y-246000000D01*
X303891250Y-242610000D02*
X307281250Y-246000000D01*
X302491250Y-244010000D02*
X303891250Y-242610000D01*
X281478750Y-244010000D02*
X302491250Y-244010000D01*
X280078750Y-242610000D02*
X281478750Y-244010000D01*
X278188750Y-244500000D02*
X280078750Y-242610000D01*
X258156250Y-244500000D02*
X278188750Y-244500000D01*
X256266250Y-242610000D02*
X258156250Y-244500000D01*
X254866250Y-241210000D02*
X256266250Y-242610000D01*
X186228750Y-241210000D02*
X254866250Y-241210000D01*
X184828750Y-242610000D02*
X186228750Y-241210000D01*
X183428750Y-241210000D02*
X184828750Y-242610000D01*
X114791250Y-241210000D02*
X183428750Y-241210000D01*
X113391250Y-242610000D02*
X114791250Y-241210000D01*
X111991250Y-241210000D02*
X113391250Y-242610000D01*
X91510000Y-241210000D02*
X111991250Y-241210000D01*
X90110000Y-242610000D02*
X91510000Y-241210000D01*
X89578750Y-242610000D02*
X90110000Y-242610000D01*
X88178750Y-244010000D02*
X89578750Y-242610000D01*
X67166250Y-244010000D02*
X88178750Y-244010000D01*
X65766250Y-242610000D02*
X67166250Y-244010000D01*
X64366250Y-244010000D02*
X65766250Y-242610000D01*
X39572500Y-242610000D02*
X40972500Y-244010000D01*
X40972500Y-244010000D02*
X64366250Y-244010000D01*
%TO.N,R5*%
X65691351Y-223560000D02*
X39572500Y-223560000D01*
X67091351Y-224960000D02*
X65691351Y-223560000D01*
X73891250Y-224960000D02*
X67091351Y-224960000D01*
X75291250Y-223560000D02*
X73891250Y-224960000D01*
X96647601Y-223560000D02*
X75291250Y-223560000D01*
X104847500Y-224960000D02*
X98047601Y-224960000D01*
X106247500Y-223560000D02*
X104847500Y-224960000D01*
X98047601Y-224960000D02*
X96647601Y-223560000D01*
X123897500Y-224960000D02*
X107647500Y-224960000D01*
X107647500Y-224960000D02*
X106247500Y-223560000D01*
X125297500Y-223560000D02*
X123897500Y-224960000D01*
X142947500Y-224960000D02*
X126697500Y-224960000D01*
X144347500Y-223560000D02*
X142947500Y-224960000D01*
X126697500Y-224960000D02*
X125297500Y-223560000D01*
X145747500Y-224960000D02*
X144347500Y-223560000D01*
X161997500Y-224960000D02*
X145747500Y-224960000D01*
X163397500Y-223560000D02*
X161997500Y-224960000D01*
X164797500Y-224960000D02*
X163397500Y-223560000D01*
X181047500Y-224960000D02*
X164797500Y-224960000D01*
X182447500Y-223560000D02*
X181047500Y-224960000D01*
X183847500Y-224960000D02*
X182447500Y-223560000D01*
X200097500Y-224960000D02*
X183847500Y-224960000D01*
X201497500Y-223560000D02*
X200097500Y-224960000D01*
X202897500Y-224960000D02*
X201497500Y-223560000D01*
X219147500Y-224960000D02*
X202897500Y-224960000D01*
X220547500Y-223560000D02*
X219147500Y-224960000D01*
X221947500Y-224960000D02*
X220547500Y-223560000D01*
X238197500Y-224960000D02*
X221947500Y-224960000D01*
X239597500Y-223560000D02*
X238197500Y-224960000D01*
X240997500Y-224960000D02*
X239597500Y-223560000D01*
X257247500Y-224960000D02*
X240997500Y-224960000D01*
X258647500Y-223560000D02*
X257247500Y-224960000D01*
X260047500Y-224960000D02*
X258647500Y-223560000D01*
X276297500Y-224960000D02*
X260047500Y-224960000D01*
X277697500Y-223560000D02*
X276297500Y-224960000D01*
X312016250Y-222160000D02*
X279097500Y-222160000D01*
X279097500Y-222160000D02*
X277697500Y-223560000D01*
X313416250Y-223560000D02*
X312016250Y-222160000D01*
X314816250Y-222160000D02*
X313416250Y-223560000D01*
X372947500Y-223560000D02*
X371547500Y-222160000D01*
X371547500Y-222160000D02*
X314816250Y-222160000D01*
X374347500Y-224960000D02*
X372947500Y-223560000D01*
X414410000Y-224960000D02*
X374347500Y-224960000D01*
X415810000Y-223560000D02*
X414410000Y-224960000D01*
X417210000Y-224960000D02*
X415810000Y-223560000D01*
X433460000Y-224960000D02*
X417210000Y-224960000D01*
X434860000Y-223560000D02*
X433460000Y-224960000D01*
X452510000Y-224960000D02*
X436260000Y-224960000D01*
X436260000Y-224960000D02*
X434860000Y-223560000D01*
X453910000Y-223560000D02*
X452510000Y-224960000D01*
X471560000Y-231685000D02*
X462035000Y-231685000D01*
X462035000Y-231685000D02*
X453910000Y-223560000D01*
X472960000Y-233085000D02*
X471560000Y-231685000D01*
%TO.N,R4*%
X436260000Y-205910000D02*
X452510000Y-205910000D01*
X434860000Y-204510000D02*
X436260000Y-205910000D01*
X452510000Y-205910000D02*
X453910000Y-204510000D01*
X417210000Y-205910000D02*
X433460000Y-205910000D01*
X433460000Y-205910000D02*
X434860000Y-204510000D01*
X415810000Y-204510000D02*
X417210000Y-205910000D01*
X319578750Y-203110000D02*
X414410000Y-203110000D01*
X414410000Y-203110000D02*
X415810000Y-204510000D01*
X318178750Y-204510000D02*
X319578750Y-203110000D01*
X316778750Y-205910000D02*
X318178750Y-204510000D01*
X309978851Y-205910000D02*
X316778750Y-205910000D01*
X308578851Y-204510000D02*
X309978851Y-205910000D01*
X287222500Y-204510000D02*
X308578851Y-204510000D01*
X285822500Y-205910000D02*
X287222500Y-204510000D01*
X269572500Y-205910000D02*
X285822500Y-205910000D01*
X268172500Y-204510000D02*
X269572500Y-205910000D01*
X266772500Y-203110000D02*
X268172500Y-204510000D01*
X250522500Y-203110000D02*
X266772500Y-203110000D01*
X249122500Y-204510000D02*
X250522500Y-203110000D01*
X231472500Y-205910000D02*
X247722500Y-205910000D01*
X230072500Y-204510000D02*
X231472500Y-205910000D01*
X247722500Y-205910000D02*
X249122500Y-204510000D01*
X212422500Y-203110000D02*
X228672500Y-203110000D01*
X228672500Y-203110000D02*
X230072500Y-204510000D01*
X211022500Y-204510000D02*
X212422500Y-203110000D01*
X193462500Y-206000000D02*
X209532500Y-206000000D01*
X209532500Y-206000000D02*
X211022500Y-204510000D01*
X191972500Y-204510000D02*
X193462500Y-206000000D01*
X174322500Y-203110000D02*
X190572500Y-203110000D01*
X172922500Y-204510000D02*
X174322500Y-203110000D01*
X190572500Y-203110000D02*
X191972500Y-204510000D01*
X156862500Y-207500000D02*
X169932500Y-207500000D01*
X153872500Y-204510000D02*
X156862500Y-207500000D01*
X169932500Y-207500000D02*
X172922500Y-204510000D01*
X152472500Y-203110000D02*
X153872500Y-204510000D01*
X136222500Y-203110000D02*
X152472500Y-203110000D01*
X134822500Y-204510000D02*
X136222500Y-203110000D01*
X133422500Y-205910000D02*
X134822500Y-204510000D01*
X115772500Y-204510000D02*
X117172500Y-205910000D01*
X117172500Y-205910000D02*
X133422500Y-205910000D01*
X114372500Y-205910000D02*
X115772500Y-204510000D01*
X96722500Y-204510000D02*
X98122500Y-205910000D01*
X98122500Y-205910000D02*
X114372500Y-205910000D01*
X71828750Y-204510000D02*
X73318750Y-206000000D01*
X70528750Y-204510000D02*
X71828750Y-204510000D01*
X73318750Y-206000000D02*
X95232500Y-206000000D01*
X95232500Y-206000000D02*
X96722500Y-204510000D01*
X69128750Y-205910000D02*
X70528750Y-204510000D01*
X40972500Y-205910000D02*
X69128750Y-205910000D01*
X39572500Y-204510000D02*
X40972500Y-205910000D01*
%TO.N,R3*%
X40972500Y-186860000D02*
X39572500Y-185460000D01*
X66747500Y-186860000D02*
X40972500Y-186860000D01*
X68147500Y-185460000D02*
X66747500Y-186860000D01*
X69547500Y-186860000D02*
X68147500Y-185460000D01*
X90560000Y-186860000D02*
X69547500Y-186860000D01*
X91960000Y-185460000D02*
X90560000Y-186860000D01*
X93360000Y-186860000D02*
X91960000Y-185460000D01*
X109610000Y-186860000D02*
X93360000Y-186860000D01*
X111010000Y-185460000D02*
X109610000Y-186860000D01*
X112410000Y-186860000D02*
X111010000Y-185460000D01*
X128660000Y-186860000D02*
X112410000Y-186860000D01*
X130060000Y-185460000D02*
X128660000Y-186860000D01*
X131460000Y-186860000D02*
X130060000Y-185460000D01*
X147710000Y-186860000D02*
X131460000Y-186860000D01*
X149110000Y-185460000D02*
X147710000Y-186860000D01*
X150510000Y-186860000D02*
X149110000Y-185460000D01*
X166760000Y-186860000D02*
X150510000Y-186860000D01*
X168160000Y-185460000D02*
X166760000Y-186860000D01*
X185810000Y-186860000D02*
X169560000Y-186860000D01*
X187210000Y-185460000D02*
X185810000Y-186860000D01*
X169560000Y-186860000D02*
X168160000Y-185460000D01*
X188610000Y-186860000D02*
X187210000Y-185460000D01*
X204860000Y-186860000D02*
X188610000Y-186860000D01*
X206260000Y-185460000D02*
X204860000Y-186860000D01*
X223910000Y-186860000D02*
X207660000Y-186860000D01*
X225310000Y-185460000D02*
X223910000Y-186860000D01*
X207660000Y-186860000D02*
X206260000Y-185460000D01*
X226710000Y-186860000D02*
X225310000Y-185460000D01*
X242960000Y-186860000D02*
X226710000Y-186860000D01*
X244360000Y-185460000D02*
X242960000Y-186860000D01*
X245760000Y-186860000D02*
X244360000Y-185460000D01*
X262010000Y-186860000D02*
X245760000Y-186860000D01*
X263410000Y-185460000D02*
X262010000Y-186860000D01*
X264810000Y-186860000D02*
X263410000Y-185460000D01*
X281060000Y-186860000D02*
X264810000Y-186860000D01*
X282460000Y-185460000D02*
X281060000Y-186860000D01*
X283860000Y-186860000D02*
X282460000Y-185460000D01*
X301510000Y-185460000D02*
X300110000Y-186860000D01*
X300110000Y-186860000D02*
X283860000Y-186860000D01*
X302910000Y-186860000D02*
X301510000Y-185460000D01*
X323922500Y-186860000D02*
X302910000Y-186860000D01*
X325322500Y-185460000D02*
X323922500Y-186860000D01*
X352497500Y-186860000D02*
X326722500Y-186860000D01*
X326722500Y-186860000D02*
X325322500Y-185460000D01*
X353897500Y-185460000D02*
X352497500Y-186860000D01*
X374347500Y-186860000D02*
X372947500Y-185460000D01*
X390597500Y-186860000D02*
X374347500Y-186860000D01*
X391997500Y-185460000D02*
X390597500Y-186860000D01*
X393397500Y-186860000D02*
X391997500Y-185460000D01*
X414410000Y-186860000D02*
X393397500Y-186860000D01*
X415810000Y-185460000D02*
X414410000Y-186860000D01*
X417210000Y-186860000D02*
X415810000Y-185460000D01*
X433460000Y-186860000D02*
X417210000Y-186860000D01*
X434860000Y-185460000D02*
X433460000Y-186860000D01*
X452510000Y-186860000D02*
X436260000Y-186860000D01*
X436260000Y-186860000D02*
X434860000Y-185460000D01*
X453910000Y-185460000D02*
X452510000Y-186860000D01*
X460365000Y-191915000D02*
X453910000Y-185460000D01*
X469890000Y-191915000D02*
X460365000Y-191915000D01*
X472960000Y-194985000D02*
X469890000Y-191915000D01*
%TO.N,R2*%
X471560000Y-165010000D02*
X472960000Y-166410000D01*
X455310000Y-165010000D02*
X471560000Y-165010000D01*
X453910000Y-166410000D02*
X455310000Y-165010000D01*
X452510000Y-167810000D02*
X453910000Y-166410000D01*
X436260000Y-167810000D02*
X452510000Y-167810000D01*
X434860000Y-166410000D02*
X436260000Y-167810000D01*
X433460000Y-165010000D02*
X434860000Y-166410000D01*
X417210000Y-165010000D02*
X433460000Y-165010000D01*
X415810000Y-166410000D02*
X417210000Y-165010000D01*
X414410000Y-165010000D02*
X415810000Y-166410000D01*
X393397500Y-165010000D02*
X414410000Y-165010000D01*
X391997500Y-166410000D02*
X393397500Y-165010000D01*
X374347500Y-165010000D02*
X390597500Y-165010000D01*
X390597500Y-165010000D02*
X391997500Y-166410000D01*
X372947500Y-166410000D02*
X374347500Y-165010000D01*
X371547500Y-165010000D02*
X372947500Y-166410000D01*
X355297500Y-165010000D02*
X371547500Y-165010000D01*
X353897500Y-166410000D02*
X355297500Y-165010000D01*
X352497500Y-165010000D02*
X353897500Y-166410000D01*
X321960000Y-165010000D02*
X352497500Y-165010000D01*
X320560000Y-166410000D02*
X321960000Y-165010000D01*
X312360101Y-167810000D02*
X319160000Y-167810000D01*
X291985000Y-166410000D02*
X310960101Y-166410000D01*
X310960101Y-166410000D02*
X312360101Y-167810000D01*
X319160000Y-167810000D02*
X320560000Y-166410000D01*
X290585000Y-165010000D02*
X291985000Y-166410000D01*
X274335000Y-165010000D02*
X290585000Y-165010000D01*
X272935000Y-166410000D02*
X274335000Y-165010000D01*
X271345000Y-168000000D02*
X272935000Y-166410000D01*
X255475000Y-168000000D02*
X271345000Y-168000000D01*
X253885000Y-166410000D02*
X255475000Y-168000000D01*
X252295000Y-168000000D02*
X253885000Y-166410000D01*
X236425000Y-168000000D02*
X252295000Y-168000000D01*
X234835000Y-166410000D02*
X236425000Y-168000000D01*
X233435000Y-165010000D02*
X234835000Y-166410000D01*
X217185000Y-165010000D02*
X233435000Y-165010000D01*
X215785000Y-166410000D02*
X217185000Y-165010000D01*
X214195000Y-168000000D02*
X215785000Y-166410000D01*
X198325000Y-168000000D02*
X214195000Y-168000000D01*
X196735000Y-166410000D02*
X198325000Y-168000000D01*
X195335000Y-167810000D02*
X196735000Y-166410000D01*
X179085000Y-167810000D02*
X195335000Y-167810000D01*
X177685000Y-166410000D02*
X179085000Y-167810000D01*
X176285000Y-167810000D02*
X177685000Y-166410000D01*
X160035000Y-167810000D02*
X176285000Y-167810000D01*
X158635000Y-166410000D02*
X160035000Y-167810000D01*
X157045000Y-168000000D02*
X158635000Y-166410000D01*
X141175000Y-168000000D02*
X157045000Y-168000000D01*
X139585000Y-166410000D02*
X141175000Y-168000000D01*
X137995000Y-168000000D02*
X139585000Y-166410000D01*
X122125000Y-168000000D02*
X137995000Y-168000000D01*
X120535000Y-166410000D02*
X122125000Y-168000000D01*
X119135000Y-165010000D02*
X120535000Y-166410000D01*
X102885000Y-165010000D02*
X119135000Y-165010000D01*
X101485000Y-166410000D02*
X102885000Y-165010000D01*
X100085000Y-167810000D02*
X101485000Y-166410000D01*
X83835000Y-167810000D02*
X100085000Y-167810000D01*
X82435000Y-166410000D02*
X83835000Y-167810000D01*
X81035000Y-165010000D02*
X82435000Y-166410000D01*
X64785000Y-165010000D02*
X81035000Y-165010000D01*
X63385000Y-166410000D02*
X64785000Y-165010000D01*
X61985000Y-165010000D02*
X63385000Y-166410000D01*
X40972500Y-165010000D02*
X61985000Y-165010000D01*
X39572500Y-166410000D02*
X40972500Y-165010000D01*
%TO.N,R1*%
X390597500Y-139235000D02*
X391997500Y-137835000D01*
X374347500Y-139235000D02*
X390597500Y-139235000D01*
X372947500Y-137835000D02*
X374347500Y-139235000D01*
X371547500Y-139235000D02*
X372947500Y-137835000D01*
X353897500Y-137835000D02*
X355297500Y-139235000D01*
X355297500Y-139235000D02*
X371547500Y-139235000D01*
X350232500Y-141500000D02*
X353897500Y-137835000D01*
X333750000Y-141500000D02*
X350232500Y-141500000D01*
X330085000Y-137835000D02*
X333750000Y-141500000D01*
X328685000Y-136435000D02*
X330085000Y-137835000D01*
X312435000Y-136435000D02*
X328685000Y-136435000D01*
X311035000Y-137835000D02*
X312435000Y-136435000D01*
X293385000Y-139235000D02*
X309635000Y-139235000D01*
X309635000Y-139235000D02*
X311035000Y-137835000D01*
X291985000Y-137835000D02*
X293385000Y-139235000D01*
X290585000Y-136435000D02*
X291985000Y-137835000D01*
X274335000Y-136435000D02*
X290585000Y-136435000D01*
X272935000Y-137835000D02*
X274335000Y-136435000D01*
X245760000Y-136435000D02*
X271535000Y-136435000D01*
X271535000Y-136435000D02*
X272935000Y-137835000D01*
X244360000Y-137835000D02*
X245760000Y-136435000D01*
X242960000Y-139235000D02*
X244360000Y-137835000D01*
X226710000Y-139235000D02*
X242960000Y-139235000D01*
X225310000Y-137835000D02*
X226710000Y-139235000D01*
X223910000Y-139235000D02*
X225310000Y-137835000D01*
X207660000Y-139235000D02*
X223910000Y-139235000D01*
X206260000Y-137835000D02*
X207660000Y-139235000D01*
X204860000Y-136435000D02*
X206260000Y-137835000D01*
X188610000Y-136435000D02*
X204860000Y-136435000D01*
X187210000Y-137835000D02*
X188610000Y-136435000D01*
X185810000Y-136435000D02*
X187210000Y-137835000D01*
X158635000Y-137835000D02*
X160035000Y-136435000D01*
X160035000Y-136435000D02*
X185810000Y-136435000D01*
X157235000Y-136435000D02*
X158635000Y-137835000D01*
X140985000Y-136435000D02*
X157235000Y-136435000D01*
X139585000Y-137835000D02*
X140985000Y-136435000D01*
X138185000Y-136435000D02*
X139585000Y-137835000D01*
X120535000Y-137835000D02*
X121935000Y-136435000D01*
X121935000Y-136435000D02*
X138185000Y-136435000D01*
X119135000Y-136435000D02*
X120535000Y-137835000D01*
X102885000Y-136435000D02*
X119135000Y-136435000D01*
X101485000Y-137835000D02*
X102885000Y-136435000D01*
%TO.N,ENC1_B*%
X492500000Y-144131372D02*
X492500000Y-141500000D01*
X491131372Y-145500000D02*
X492500000Y-144131372D01*
X458000000Y-144500000D02*
X459000000Y-145500000D01*
X459000000Y-145500000D02*
X491131372Y-145500000D01*
X492500000Y-141500000D02*
X493500000Y-140500000D01*
X458000000Y-131500000D02*
X459500000Y-130000000D01*
X458000000Y-141500000D02*
X458000000Y-131500000D01*
%TO.N,ENC1_A*%
X459000000Y-135500000D02*
X459500000Y-135000000D01*
X459000000Y-141500000D02*
X459000000Y-135500000D01*
X493000000Y-143500000D02*
X493500000Y-143000000D01*
X493000000Y-144197058D02*
X493000000Y-143500000D01*
X460100000Y-146000000D02*
X491197058Y-146000000D01*
X491197058Y-146000000D02*
X493000000Y-144197058D01*
X460000000Y-146100000D02*
X460100000Y-146000000D01*
%TO.N,ENC2_B*%
X456500000Y-141000000D02*
X456500000Y-132250000D01*
X456500000Y-132250000D02*
X454250000Y-130000000D01*
X460000000Y-144500000D02*
X456500000Y-141000000D01*
X491500000Y-144000000D02*
X491000000Y-144500000D01*
X491000000Y-144500000D02*
X460000000Y-144500000D01*
X491500000Y-137500000D02*
X491500000Y-144000000D01*
X493500000Y-135500000D02*
X491500000Y-137500000D01*
%TO.N,ENC2_A*%
X456100000Y-136850000D02*
X454250000Y-135000000D01*
X459934314Y-145000000D02*
X456100000Y-141165686D01*
X456100000Y-141165686D02*
X456100000Y-136850000D01*
X492000000Y-139500000D02*
X492000000Y-144065686D01*
X492000000Y-144065686D02*
X491065686Y-145000000D01*
X491065686Y-145000000D02*
X459934314Y-145000000D01*
X493500000Y-138000000D02*
X492000000Y-139500000D01*
%TO.N,GND*%
X493000000Y-176580000D02*
X493000000Y-178500000D01*
X489380000Y-172960000D02*
X493000000Y-176580000D01*
%TO.N,VCC*%
X494500000Y-183500000D02*
X492500000Y-185500000D01*
X494500000Y-175600000D02*
X494500000Y-183500000D01*
X494400000Y-175500000D02*
X494500000Y-175600000D01*
X491500000Y-193420000D02*
X497120000Y-199040000D01*
X491500000Y-191960000D02*
X491500000Y-193420000D01*
X491500000Y-187000000D02*
X491500000Y-191960000D01*
X491500000Y-191960000D02*
X489500000Y-193960000D01*
%TO.N,GND*%
X493620000Y-186500000D02*
X493500000Y-186500000D01*
X497000000Y-183120000D02*
X493620000Y-186500000D01*
%TO.N,VCC*%
X494500000Y-165300000D02*
X494600000Y-165200000D01*
X494500000Y-175400000D02*
X494500000Y-165300000D01*
X494400000Y-175500000D02*
X494500000Y-175400000D01*
X494600000Y-165200000D02*
X493650000Y-166150000D01*
X496560105Y-129358000D02*
X494600000Y-131318105D01*
X497439895Y-129358000D02*
X496560105Y-129358000D01*
X498062000Y-129980105D02*
X497439895Y-129358000D01*
X498062000Y-131898000D02*
X498062000Y-129980105D01*
X494600000Y-131318105D02*
X494600000Y-165200000D01*
X497000000Y-132960000D02*
X498062000Y-131898000D01*
X493650000Y-166150000D02*
X489380000Y-170420000D01*
%TO.N,GND*%
X489500000Y-188880000D02*
X489500000Y-191420000D01*
X497000000Y-183120000D02*
X497000000Y-180580000D01*
X497000000Y-178040000D02*
X497000000Y-180580000D01*
X495000000Y-176040000D02*
X497000000Y-178040000D01*
X495000000Y-132420000D02*
X495000000Y-176040000D01*
X497000000Y-130420000D02*
X495000000Y-132420000D01*
%TO.N,SCL*%
X491000000Y-185300000D02*
X497120000Y-191420000D01*
X491000000Y-176000000D02*
X491000000Y-185300000D01*
%TO.N,GND*%
X406420000Y-136080000D02*
X406500000Y-136000000D01*
X401385000Y-136080000D02*
X406420000Y-136080000D01*
%TD*%
M02*
