M48
; DRILL file {KiCad 8.0.8} date 2025-11-12T22:54:28+0000
; FORMAT={-:-/ absolute / inch / decimal}
; #@! TF.CreationDate,2025-11-12T22:54:28+00:00
; #@! TF.GenerationSoftware,Kicad,Pcbnew,8.0.8
; #@! TF.FileFunction,NonPlated,1,2,NPTH
FMAT,2
INCH
; #@! TA.AperFunction,NonPlated,NPTH,ComponentDrill
T1C0.0630
; #@! TA.AperFunction,NonPlated,NPTH,ComponentDrill
T2C0.0669
; #@! TA.AperFunction,NonPlated,NPTH,ComponentDrill
T3C0.0827
; #@! TA.AperFunction,NonPlated,NPTH,ComponentDrill
T4C0.1201
; #@! TA.AperFunction,NonPlated,NPTH,ComponentDrill
T5C0.1260
; #@! TA.AperFunction,NonPlated,NPTH,ComponentDrill
T6C0.1575
%
G90
G05
T2
X1.2064Y-6.3382
X1.2064Y-7.0882
X1.2064Y-7.8382
X1.2064Y-8.5882
X1.2064Y-9.3382
X1.6064Y-6.3382
X1.6064Y-7.0882
X1.6064Y-7.8382
X1.6064Y-8.5882
X1.6064Y-9.3382
X2.1439Y-5.2132
X2.1439Y-6.3382
X2.2376Y-9.3382
X2.3314Y-7.0882
X2.4251Y-7.8382
X2.5439Y-5.2132
X2.5439Y-6.3382
X2.6126Y-8.5882
X2.6376Y-9.3382
X2.7314Y-7.0882
X2.8251Y-7.8382
X2.8939Y-6.3382
X3.0126Y-8.5882
X3.1751Y-9.3382
X3.2689Y-7.0882
X3.2939Y-6.3382
X3.4564Y-7.8382
X3.5751Y-9.3382
X3.6439Y-5.2132
X3.6439Y-6.3382
X3.6689Y-7.0882
X3.8314Y-8.5882
X3.8564Y-7.8382
X4.0189Y-7.0882
X4.0439Y-5.2132
X4.0439Y-6.3382
X4.1126Y-9.3382
X4.2064Y-7.8382
X4.2314Y-8.5882
X4.3939Y-5.2132
X4.3939Y-6.3382
X4.4189Y-7.0882
X4.5126Y-9.3382
X4.5814Y-8.5882
X4.6064Y-7.8382
X4.7689Y-7.0882
X4.7939Y-5.2132
X4.7939Y-6.3382
X4.9564Y-7.8382
X4.9814Y-8.5882
X5.1439Y-5.2132
X5.1439Y-6.3382
X5.1689Y-7.0882
X5.3314Y-8.5882
X5.3564Y-7.8382
X5.5189Y-7.0882
X5.5439Y-5.2132
X5.5439Y-6.3382
X5.7064Y-7.8382
X5.7314Y-8.5882
X5.8939Y-5.2132
X5.8939Y-6.3382
X5.9189Y-7.0882
X6.0814Y-8.5882
X6.1064Y-7.8382
X6.2689Y-7.0882
X6.2939Y-5.2132
X6.2939Y-6.3382
X6.4564Y-7.8382
X6.4814Y-8.5882
X6.6439Y-6.3382
X6.6689Y-7.0882
X6.8314Y-8.5882
X6.8564Y-7.8382
X6.9251Y-9.3382
X7.0189Y-5.2132
X7.0189Y-7.0882
X7.0439Y-6.3382
X7.2064Y-7.8382
X7.2314Y-8.5882
X7.3251Y-9.3382
X7.3939Y-6.3382
X7.4189Y-5.2132
X7.4189Y-7.0882
X7.5814Y-8.5882
X7.6064Y-7.8382
X7.7689Y-5.2132
X7.7689Y-7.0882
X7.7939Y-6.3382
X7.9564Y-7.8382
X7.9814Y-8.5882
X8.1439Y-6.3382
X8.1689Y-5.2132
X8.1689Y-7.0882
X8.3314Y-8.5882
X8.3564Y-7.8382
X8.5189Y-5.2132
X8.5189Y-7.0882
X8.5439Y-6.3382
X8.7064Y-7.8382
X8.7314Y-8.5882
X8.8939Y-6.3382
X8.9189Y-5.2132
X8.9189Y-7.0882
X9.0814Y-8.5882
X9.1064Y-7.8382
X9.2689Y-5.2132
X9.2689Y-7.0882
X9.2939Y-6.3382
X9.4564Y-7.8382
X9.4814Y-8.5882
X9.6439Y-6.3382
X9.6689Y-5.2132
X9.6689Y-7.0882
X9.7376Y-9.3382
X9.8314Y-8.5882
X9.8564Y-7.8382
X10.0189Y-7.0882
X10.0439Y-6.3382
X10.1376Y-9.3382
X10.2064Y-7.8382
X10.2314Y-8.5882
X10.3939Y-5.2132
X10.3939Y-6.3382
X10.4189Y-7.0882
X10.5814Y-8.5882
X10.6064Y-7.8382
X10.6751Y-9.3382
X10.7689Y-7.0882
X10.7939Y-5.2132
X10.7939Y-6.3382
X10.9564Y-7.8382
X10.9814Y-8.5882
X11.0751Y-9.3382
X11.1439Y-5.2132
X11.1439Y-6.3382
X11.1689Y-7.0882
X11.3564Y-7.8382
X11.5189Y-7.0882
X11.5439Y-5.2132
X11.5439Y-6.3382
X11.6126Y-9.3382
X11.8939Y-5.2132
X11.9189Y-7.0882
X11.9876Y-8.5882
X12.0126Y-9.3382
X12.1751Y-7.8382
X12.2689Y-6.3382
X12.2939Y-5.2132
X12.3876Y-8.5882
X12.4564Y-7.0882
X12.5501Y-9.3382
X12.5751Y-7.8382
X12.6439Y-5.2132
X12.6689Y-6.3382
X12.8564Y-7.0882
X12.9501Y-9.3382
X13.0439Y-5.2132
X13.5814Y-5.2132
X13.5814Y-6.3382
X13.5814Y-7.0882
X13.5814Y-9.3382
X13.9814Y-5.2132
X13.9814Y-6.3382
X13.9814Y-7.0882
X13.9814Y-9.3382
X14.3314Y-5.2132
X14.3314Y-6.3382
X14.3314Y-7.0882
X14.3314Y-8.5882
X14.3314Y-9.3382
X14.7314Y-5.2132
X14.7314Y-6.3382
X14.7314Y-7.0882
X14.7314Y-8.5882
X14.7314Y-9.3382
X15.0814Y-5.2132
X15.0814Y-6.3382
X15.0814Y-7.0882
X15.0814Y-9.3382
X15.4814Y-5.2132
X15.4814Y-6.3382
X15.4814Y-7.0882
X15.4814Y-9.3382
X16.0189Y-6.3382
X16.0189Y-7.0882
X16.0189Y-7.8382
X16.0189Y-8.5882
X16.3939Y-9.3382
X16.4189Y-6.3382
X16.4189Y-7.0882
X16.4189Y-7.8382
X16.4189Y-8.5882
X16.7689Y-6.3382
X16.7689Y-7.0882
X16.7689Y-7.8382
X16.7689Y-8.5882
X16.7939Y-9.3382
X17.1689Y-6.3382
X17.1689Y-7.0882
X17.1689Y-7.8382
X17.1689Y-8.5882
X17.5189Y-6.3382
X17.5189Y-7.0882
X17.5189Y-7.8382
X17.5189Y-8.5882
X17.5189Y-9.3382
X17.9189Y-6.3382
X17.9189Y-7.0882
X17.9189Y-7.8382
X17.9189Y-8.5882
X17.9189Y-9.3382
X18.2689Y-6.3382
X18.2689Y-7.4632
X18.2689Y-8.9632
X18.6689Y-6.3382
X18.6689Y-7.4632
X18.6689Y-8.9632
T3
X17.5886Y-5.2165
X18.3858Y-5.2165
T4
X2.3441Y-8.3126
X3.2812Y-8.3126
X5.1566Y-9.0626
X9.0937Y-9.0626
X11.7191Y-8.3126
X11.9066Y-7.5626
X12.0004Y-6.0626
X12.6562Y-8.3126
X12.8437Y-7.5626
X12.9374Y-6.0626
X16.1254Y-9.0626
X17.0624Y-9.0626
X18.1933Y-6.9947
X18.1933Y-7.9317
X18.1933Y-8.4947
X18.1933Y-9.4317
T5
X1.8701Y-5.8071
X1.8701Y-9.7441
X13.3071Y-9.7638
X13.3268Y-5.7677
X19.3898Y-9.4488
T6
X1.4064Y-6.3382
X1.4064Y-7.0882
X1.4064Y-7.8382
X1.4064Y-8.5882
X1.4064Y-9.3382
X2.3439Y-5.2132
X2.3439Y-6.3382
X2.3441Y-8.9126
X2.4376Y-9.3382
X2.5314Y-7.0882
X2.6251Y-7.8382
X2.8126Y-8.5882
X3.0939Y-6.3382
X3.2812Y-8.9126
X3.3751Y-9.3382
X3.4689Y-7.0882
X3.6564Y-7.8382
X3.8439Y-5.2132
X3.8439Y-6.3382
X4.0314Y-8.5882
X4.2189Y-7.0882
X4.3126Y-9.3382
X4.4064Y-7.8382
X4.5939Y-5.2132
X4.5939Y-6.3382
X4.7814Y-8.5882
X4.9689Y-7.0882
X5.1564Y-7.8382
X5.1566Y-9.6626
X5.3439Y-5.2132
X5.3439Y-6.3382
X5.5314Y-8.5882
X5.7189Y-7.0882
X5.9064Y-7.8382
X6.0939Y-5.2132
X6.0939Y-6.3382
X6.2814Y-8.5882
X6.4689Y-7.0882
X6.6564Y-7.8382
X6.8439Y-6.3382
X7.0314Y-8.5882
X7.1251Y-9.3382
X7.2189Y-5.2132
X7.2189Y-7.0882
X7.4064Y-7.8382
X7.5939Y-6.3382
X7.7814Y-8.5882
X7.9689Y-5.2132
X7.9689Y-7.0882
X8.1564Y-7.8382
X8.3439Y-6.3382
X8.5314Y-8.5882
X8.7189Y-5.2132
X8.7189Y-7.0882
X8.9064Y-7.8382
X9.0937Y-9.6626
X9.0939Y-6.3382
X9.2814Y-8.5882
X9.4689Y-5.2132
X9.4689Y-7.0882
X9.6564Y-7.8382
X9.8439Y-6.3382
X9.9376Y-9.3382
X10.0314Y-8.5882
X10.2189Y-7.0882
X10.4064Y-7.8382
X10.5939Y-5.2132
X10.5939Y-6.3382
X10.7814Y-8.5882
X10.8751Y-9.3382
X10.9689Y-7.0882
X11.1564Y-7.8382
X11.3439Y-5.2132
X11.3439Y-6.3382
X11.7189Y-7.0882
X11.7191Y-8.9126
X11.8126Y-9.3382
X11.9066Y-8.1626
X12.0004Y-6.6626
X12.0939Y-5.2132
X12.1876Y-8.5882
X12.3751Y-7.8382
X12.4689Y-6.3382
X12.6562Y-8.9126
X12.6564Y-7.0882
X12.7501Y-9.3382
X12.8437Y-8.1626
X12.8439Y-5.2132
X12.9374Y-6.6626
X13.7814Y-5.2132
X13.7814Y-6.3382
X13.7814Y-7.0882
X13.7814Y-9.3382
X14.5314Y-5.2132
X14.5314Y-6.3382
X14.5314Y-7.0882
X14.5314Y-8.5882
X14.5314Y-9.3382
X15.2814Y-5.2132
X15.2814Y-6.3382
X15.2814Y-7.0882
X15.2814Y-9.3382
X16.1254Y-9.6626
X16.2189Y-6.3382
X16.2189Y-7.0882
X16.2189Y-7.8382
X16.2189Y-8.5882
X16.5939Y-9.3382
X16.9689Y-6.3382
X16.9689Y-7.0882
X16.9689Y-7.8382
X16.9689Y-8.5882
X17.0624Y-9.6626
X17.7189Y-6.3382
X17.7189Y-7.0882
X17.7189Y-7.8382
X17.7189Y-8.5882
X17.7189Y-9.3382
X18.4689Y-6.3382
X18.4689Y-7.4632
X18.4689Y-8.9632
X18.7933Y-6.9947
X18.7933Y-7.9317
X18.7933Y-8.4947
X18.7933Y-9.4317
T1
G00X17.7776Y-5.2165
M15
G01X17.7539Y-5.2165
M16
G05
G00X18.1969Y-5.2165
M15
G01X18.2205Y-5.2165
M16
G05
M30
