M48
; DRILL file {KiCad 8.0.8} date 2025-11-12T22:54:28+0000
; FORMAT={-:-/ absolute / inch / decimal}
; #@! TF.CreationDate,2025-11-12T22:54:28+00:00
; #@! TF.GenerationSoftware,Kicad,Pcbnew,8.0.8
; #@! TF.FileFunction,Plated,1,2,PTH
FMAT,2
INCH
; #@! TA.AperFunction,Plated,PTH,ViaDrill
T1C0.0118
; #@! TA.AperFunction,Plated,PTH,ComponentDrill
T2C0.0315
; #@! TA.AperFunction,Plated,PTH,ComponentDrill
T3C0.0350
; #@! TA.AperFunction,Plated,PTH,ComponentDrill
T4C0.0394
; #@! TA.AperFunction,Plated,PTH,ComponentDrill
T5C0.0433
; #@! TA.AperFunction,Plated,PTH,ComponentDrill
T6C0.0591
%
G90
G05
T1
X3.3465Y-4.8228
X6.752Y-4.9213
X16.0039Y-5.3543
X16.0986Y-5.8109
X16.7913Y-5.7913
X16.9882Y-5.7677
X17.0105Y-5.7454
X18.0315Y-5.5709
X18.0315Y-5.689
X18.0709Y-5.5709
X18.1102Y-5.752
X19.3307Y-6.9291
X19.3504Y-7.3622
X19.3898Y-7.3031
X19.4094Y-7.0276
X19.4291Y-5.3346
X19.4291Y-5.4331
X19.4291Y-5.5315
X19.4291Y-5.6299
X19.4291Y-7.3425
X19.4646Y-6.9094
X19.685Y-5.7874
X19.685Y-7.9134
X19.7244Y-5.7874
X19.7244Y-7.9134
X19.7638Y-5.7874
X19.7638Y-7.9134
X19.8031Y-5.7874
X19.8031Y-7.9134
X19.8425Y-5.7874
X19.8425Y-7.9134
X19.8819Y-5.7874
X19.8819Y-7.9134
X19.9134Y-7.9134
X19.9213Y-5.7874
T2
X19.2669Y-5.9094
X19.2669Y-6.0094
X19.2669Y-6.1094
X19.2669Y-6.2094
X19.2669Y-6.3094
X19.2669Y-6.4094
X19.2669Y-6.5094
X19.2669Y-6.6094
X19.2669Y-6.7094
X19.2669Y-6.8094
X19.2669Y-6.9094
X19.2669Y-7.0094
X19.2669Y-7.1094
X19.2669Y-7.2094
X19.2717Y-7.3362
X19.2717Y-7.4362
X19.2717Y-7.5362
X19.2717Y-7.6362
X19.2717Y-7.7362
X19.2717Y-7.8362
X19.2717Y-7.9362
X19.2717Y-8.0362
X19.2717Y-8.1362
X19.2717Y-8.2362
X19.2717Y-8.3362
X19.2717Y-8.4362
X19.2717Y-8.5362
X19.2717Y-8.6362
X19.5669Y-5.9094
X19.5669Y-6.0094
X19.5669Y-6.1094
X19.5669Y-6.2094
X19.5669Y-6.3094
X19.5669Y-6.4094
X19.5669Y-6.5094
X19.5669Y-6.6094
X19.5669Y-6.7094
X19.5669Y-6.8094
X19.5669Y-6.9094
X19.5669Y-7.0094
X19.5669Y-7.1094
X19.5669Y-7.2094
X19.5717Y-7.3362
X19.5717Y-7.4362
X19.5717Y-7.5362
X19.5717Y-7.6362
X19.5717Y-7.7362
X19.5717Y-7.8362
X19.5717Y-7.9362
X19.5717Y-8.0362
X19.5717Y-8.1362
X19.5717Y-8.2362
X19.5717Y-8.3362
X19.5717Y-8.4362
X19.5717Y-8.5362
X19.5717Y-8.6362
T3
X18.9669Y-5.0346
X18.9669Y-5.1346
X18.9669Y-5.2346
X18.9669Y-5.3346
X18.9669Y-5.4346
X18.9669Y-5.5346
X18.9669Y-5.6346
X19.5669Y-5.0346
X19.5669Y-5.1346
X19.5669Y-5.2346
X19.5669Y-5.3346
X19.5669Y-5.4346
X19.5669Y-5.5346
X19.5669Y-5.6346
T4
X15.8026Y-5.0575
X15.8026Y-5.1575
X15.8026Y-5.2575
X15.8026Y-5.3575
X17.313Y-5.1181
X17.313Y-5.315
X17.8839Y-5.1181
X17.8839Y-5.2165
X17.8839Y-5.315
X18.0906Y-5.1181
X18.0906Y-5.2165
X18.0906Y-5.315
X18.6614Y-5.1181
X18.6614Y-5.315
T5
X1.258Y-6.5516
X1.258Y-7.3016
X1.258Y-8.0516
X1.258Y-8.8016
X1.258Y-9.5516
X1.558Y-6.5516
X1.558Y-7.3016
X1.558Y-8.0516
X1.558Y-8.8016
X1.558Y-9.5516
X2.1955Y-5.4266
X2.1955Y-6.5516
X2.2892Y-9.5516
X2.383Y-7.3016
X2.4767Y-8.0516
X2.4955Y-5.4266
X2.4955Y-6.5516
X2.5892Y-9.5516
X2.6642Y-8.8016
X2.683Y-7.3016
X2.7767Y-8.0516
X2.9455Y-6.5516
X2.9642Y-8.8016
X3.2267Y-9.5516
X3.2455Y-6.5516
X3.3205Y-7.3016
X3.508Y-8.0516
X3.5267Y-9.5516
X3.6205Y-7.3016
X3.6955Y-5.4266
X3.6955Y-6.5516
X3.808Y-8.0516
X3.883Y-8.8016
X3.9955Y-5.4266
X3.9955Y-6.5516
X4.0705Y-7.3016
X4.1642Y-9.5516
X4.183Y-8.8016
X4.258Y-8.0516
X4.3705Y-7.3016
X4.4455Y-5.4266
X4.4455Y-6.5516
X4.4642Y-9.5516
X4.558Y-8.0516
X4.633Y-8.8016
X4.7455Y-5.4266
X4.7455Y-6.5516
X4.8205Y-7.3016
X4.933Y-8.8016
X5.008Y-8.0516
X5.1205Y-7.3016
X5.1955Y-5.4266
X5.1955Y-6.5516
X5.308Y-8.0516
X5.383Y-8.8016
X5.4955Y-5.4266
X5.4955Y-6.5516
X5.5705Y-7.3016
X5.683Y-8.8016
X5.758Y-8.0516
X5.8705Y-7.3016
X5.9455Y-5.4266
X5.9455Y-6.5516
X6.058Y-8.0516
X6.133Y-8.8016
X6.2455Y-5.4266
X6.2455Y-6.5516
X6.3205Y-7.3016
X6.433Y-8.8016
X6.508Y-8.0516
X6.6205Y-7.3016
X6.6955Y-6.5516
X6.808Y-8.0516
X6.883Y-8.8016
X6.9767Y-9.5516
X6.9955Y-6.5516
X7.0705Y-5.4266
X7.0705Y-7.3016
X7.183Y-8.8016
X7.258Y-8.0516
X7.2767Y-9.5516
X7.3705Y-5.4266
X7.3705Y-7.3016
X7.4455Y-6.5516
X7.558Y-8.0516
X7.633Y-8.8016
X7.7455Y-6.5516
X7.8205Y-5.4266
X7.8205Y-7.3016
X7.933Y-8.8016
X8.008Y-8.0516
X8.1205Y-5.4266
X8.1205Y-7.3016
X8.1955Y-6.5516
X8.308Y-8.0516
X8.383Y-8.8016
X8.4955Y-6.5516
X8.5705Y-5.4266
X8.5705Y-7.3016
X8.683Y-8.8016
X8.758Y-8.0516
X8.8705Y-5.4266
X8.8705Y-7.3016
X8.9455Y-6.5516
X9.058Y-8.0516
X9.133Y-8.8016
X9.2455Y-6.5516
X9.3205Y-5.4266
X9.3205Y-7.3016
X9.433Y-8.8016
X9.508Y-8.0516
X9.6205Y-5.4266
X9.6205Y-7.3016
X9.6955Y-6.5516
X9.7892Y-9.5516
X9.808Y-8.0516
X9.883Y-8.8016
X9.9955Y-6.5516
X10.0705Y-7.3016
X10.0892Y-9.5516
X10.183Y-8.8016
X10.258Y-8.0516
X10.3705Y-7.3016
X10.4455Y-5.4266
X10.4455Y-6.5516
X10.558Y-8.0516
X10.633Y-8.8016
X10.7267Y-9.5516
X10.7455Y-5.4266
X10.7455Y-6.5516
X10.8205Y-7.3016
X10.933Y-8.8016
X11.008Y-8.0516
X11.0267Y-9.5516
X11.1205Y-7.3016
X11.1955Y-5.4266
X11.1955Y-6.5516
X11.308Y-8.0516
X11.4955Y-5.4266
X11.4955Y-6.5516
X11.5705Y-7.3016
X11.6642Y-9.5516
X11.8705Y-7.3016
X11.9455Y-5.4266
X11.9642Y-9.5516
X12.0392Y-8.8016
X12.2267Y-8.0516
X12.2455Y-5.4266
X12.3205Y-6.5516
X12.3392Y-8.8016
X12.508Y-7.3016
X12.5267Y-8.0516
X12.6017Y-9.5516
X12.6205Y-6.5516
X12.6955Y-5.4266
X12.808Y-7.3016
X12.9017Y-9.5516
X12.9955Y-5.4266
X13.633Y-5.4266
X13.633Y-6.5516
X13.633Y-7.3016
X13.633Y-9.5516
X13.933Y-5.4266
X13.933Y-6.5516
X13.933Y-7.3016
X13.933Y-9.5516
X14.383Y-5.4266
X14.383Y-6.5516
X14.383Y-7.3016
X14.383Y-8.8016
X14.383Y-9.5516
X14.683Y-5.4266
X14.683Y-6.5516
X14.683Y-7.3016
X14.683Y-8.8016
X14.683Y-9.5516
X15.133Y-5.4266
X15.133Y-6.5516
X15.133Y-7.3016
X15.133Y-9.5516
X15.433Y-5.4266
X15.433Y-6.5516
X15.433Y-7.3016
X15.433Y-9.5516
X16.0705Y-6.5516
X16.0705Y-7.3016
X16.0705Y-8.0516
X16.0705Y-8.8016
X16.3705Y-6.5516
X16.3705Y-7.3016
X16.3705Y-8.0516
X16.3705Y-8.8016
X16.4455Y-9.5516
X16.7455Y-9.5516
X16.8205Y-6.5516
X16.8205Y-7.3016
X16.8205Y-8.0516
X16.8205Y-8.8016
X17.1205Y-6.5516
X17.1205Y-7.3016
X17.1205Y-8.0516
X17.1205Y-8.8016
X17.5705Y-6.5516
X17.5705Y-7.3016
X17.5705Y-8.0516
X17.5705Y-8.8016
X17.5705Y-9.5516
X17.8705Y-6.5516
X17.8705Y-7.3016
X17.8705Y-8.0516
X17.8705Y-8.8016
X17.8705Y-9.5516
X18.3205Y-6.5516
X18.3205Y-7.6766
X18.3205Y-9.1766
X18.6205Y-6.5516
X18.6205Y-7.6766
X18.6205Y-9.1766
T6
X1.2564Y-6.2382
X1.2564Y-6.9882
X1.2564Y-7.7382
X1.2564Y-8.4882
X1.2564Y-9.2382
X1.5064Y-6.1382
X1.5064Y-6.8882
X1.5064Y-7.6382
X1.5064Y-8.3882
X1.5064Y-9.1382
X2.1939Y-5.1132
X2.1939Y-6.2382
X2.2876Y-9.2382
X2.3814Y-6.9882
X2.4439Y-5.0132
X2.4439Y-6.1382
X2.4751Y-7.7382
X2.5376Y-9.1382
X2.6314Y-6.8882
X2.6626Y-8.4882
X2.7251Y-7.6382
X2.9126Y-8.3882
X2.9439Y-6.2382
X3.1939Y-6.1382
X3.2251Y-9.2382
X3.3189Y-6.9882
X3.4751Y-9.1382
X3.5064Y-7.7382
X3.5689Y-6.8882
X3.6939Y-5.1132
X3.6939Y-6.2382
X3.7564Y-7.6382
X3.8814Y-8.4882
X3.9439Y-5.0132
X3.9439Y-6.1382
X4.0689Y-6.9882
X4.1314Y-8.3882
X4.1626Y-9.2382
X4.2564Y-7.7382
X4.3189Y-6.8882
X4.4126Y-9.1382
X4.4439Y-5.1132
X4.4439Y-6.2382
X4.5064Y-7.6382
X4.6314Y-8.4882
X4.6939Y-5.0132
X4.6939Y-6.1382
X4.8189Y-6.9882
X4.8814Y-8.3882
X5.0064Y-7.7382
X5.0689Y-6.8882
X5.1939Y-5.1132
X5.1939Y-6.2382
X5.2564Y-7.6382
X5.3814Y-8.4882
X5.4439Y-5.0132
X5.4439Y-6.1382
X5.5689Y-6.9882
X5.6314Y-8.3882
X5.7564Y-7.7382
X5.8189Y-6.8882
X5.9439Y-5.1132
X5.9439Y-6.2382
X6.0064Y-7.6382
X6.1314Y-8.4882
X6.1939Y-5.0132
X6.1939Y-6.1382
X6.3189Y-6.9882
X6.3814Y-8.3882
X6.5064Y-7.7382
X6.5689Y-6.8882
X6.6939Y-6.2382
X6.7564Y-7.6382
X6.8814Y-8.4882
X6.9439Y-6.1382
X6.9751Y-9.2382
X7.0689Y-5.1132
X7.0689Y-6.9882
X7.1314Y-8.3882
X7.2251Y-9.1382
X7.2564Y-7.7382
X7.3189Y-5.0132
X7.3189Y-6.8882
X7.4439Y-6.2382
X7.5064Y-7.6382
X7.6314Y-8.4882
X7.6939Y-6.1382
X7.8189Y-5.1132
X7.8189Y-6.9882
X7.8814Y-8.3882
X8.0064Y-7.7382
X8.0689Y-5.0132
X8.0689Y-6.8882
X8.1939Y-6.2382
X8.2564Y-7.6382
X8.3814Y-8.4882
X8.4439Y-6.1382
X8.5689Y-5.1132
X8.5689Y-6.9882
X8.6314Y-8.3882
X8.7564Y-7.7382
X8.8189Y-5.0132
X8.8189Y-6.8882
X8.9439Y-6.2382
X9.0064Y-7.6382
X9.1314Y-8.4882
X9.1939Y-6.1382
X9.3189Y-5.1132
X9.3189Y-6.9882
X9.3814Y-8.3882
X9.5064Y-7.7382
X9.5689Y-5.0132
X9.5689Y-6.8882
X9.6939Y-6.2382
X9.7564Y-7.6382
X9.7876Y-9.2382
X9.8814Y-8.4882
X9.9439Y-6.1382
X10.0376Y-9.1382
X10.0689Y-6.9882
X10.1314Y-8.3882
X10.2564Y-7.7382
X10.3189Y-6.8882
X10.4439Y-5.1132
X10.4439Y-6.2382
X10.5064Y-7.6382
X10.6314Y-8.4882
X10.6939Y-5.0132
X10.6939Y-6.1382
X10.7251Y-9.2382
X10.8189Y-6.9882
X10.8814Y-8.3882
X10.9751Y-9.1382
X11.0064Y-7.7382
X11.0689Y-6.8882
X11.1939Y-5.1132
X11.1939Y-6.2382
X11.2564Y-7.6382
X11.4439Y-5.0132
X11.4439Y-6.1382
X11.5689Y-6.9882
X11.6626Y-9.2382
X11.8189Y-6.8882
X11.9126Y-9.1382
X11.9439Y-5.1132
X12.0376Y-8.4882
X12.1939Y-5.0132
X12.2251Y-7.7382
X12.2876Y-8.3882
X12.3189Y-6.2382
X12.4751Y-7.6382
X12.5064Y-6.9882
X12.5689Y-6.1382
X12.6001Y-9.2382
X12.6939Y-5.1132
X12.7564Y-6.8882
X12.8501Y-9.1382
X12.9439Y-5.0132
X13.6314Y-5.1132
X13.6314Y-6.2382
X13.6314Y-6.9882
X13.6314Y-9.2382
X13.8814Y-5.0132
X13.8814Y-6.1382
X13.8814Y-6.8882
X13.8814Y-9.1382
X14.3814Y-5.1132
X14.3814Y-6.2382
X14.3814Y-6.9882
X14.3814Y-8.4882
X14.3814Y-9.2382
X14.6314Y-5.0132
X14.6314Y-6.1382
X14.6314Y-6.8882
X14.6314Y-8.3882
X14.6314Y-9.1382
X15.1314Y-5.1132
X15.1314Y-6.2382
X15.1314Y-6.9882
X15.1314Y-9.2382
X15.3814Y-5.0132
X15.3814Y-6.1382
X15.3814Y-6.8882
X15.3814Y-9.1382
X16.0689Y-6.2382
X16.0689Y-6.9882
X16.0689Y-7.7382
X16.0689Y-8.4882
X16.3189Y-6.1382
X16.3189Y-6.8882
X16.3189Y-7.6382
X16.3189Y-8.3882
X16.4439Y-9.2382
X16.6939Y-9.1382
X16.8189Y-6.2382
X16.8189Y-6.9882
X16.8189Y-7.7382
X16.8189Y-8.4882
X17.0689Y-6.1382
X17.0689Y-6.8882
X17.0689Y-7.6382
X17.0689Y-8.3882
X17.5689Y-6.2382
X17.5689Y-6.9882
X17.5689Y-7.7382
X17.5689Y-8.4882
X17.5689Y-9.2382
X17.8189Y-6.1382
X17.8189Y-6.8882
X17.8189Y-7.6382
X17.8189Y-8.3882
X17.8189Y-9.1382
X18.3189Y-6.2382
X18.3189Y-7.3632
X18.3189Y-8.8632
X18.5689Y-6.1382
X18.5689Y-7.2632
X18.5689Y-8.7632
T6
G00X17.6142Y-4.9961
M15
G01X17.563Y-4.9961
M16
G05
G00X17.6142Y-5.437
M15
G01X17.563Y-5.437
M16
G05
G00X18.3602Y-4.9961
M15
G01X18.4114Y-4.9961
M16
G05
G00X18.3602Y-5.437
M15
G01X18.4114Y-5.437
M16
G05
M30
